<?xml version="1.0" encoding="UTF-8" standalone="no"?>
<!-- Created with Inkscape (http://www.inkscape.org/) -->

<svg
   width="677.49347"
   height="578.8548"
   viewBox="0 0 179.25348 153.15534"
   version="1.1"
   id="svg5"
   xmlns="http://www.w3.org/2000/svg"
   xmlns:svg="http://www.w3.org/2000/svg">
  <defs
     id="defs2" />
  <g
     id="layer1"
     transform="translate(0.75955033,-5.0141997)">
    <path
       style="fill:none;stroke:#b7c8c4;stroke-width:0.396874;stroke-linecap:butt;stroke-linejoin:miter;stroke-miterlimit:4;stroke-dasharray:0.396874, 1.19062;stroke-dashoffset:0;stroke-opacity:1"
       d="M 66.846157,31.178717 V 155.17398"
       id="path38525-0-0" />
    <path
       style="fill:none;stroke:#b7c8c4;stroke-width:0.396874;stroke-linecap:butt;stroke-linejoin:miter;stroke-miterlimit:4;stroke-dasharray:0.396874, 1.19062;stroke-dashoffset:0;stroke-opacity:1"
       d="M 47.727771,31.402065 V 155.17398"
       id="path38525" />
    <path
       style="fill:none;stroke:#5a2ca0;stroke-width:0.9975;stroke-linecap:butt;stroke-linejoin:miter;stroke-miterlimit:4;stroke-dasharray:none;stroke-opacity:1"
       d="m 88.036456,20.809986 3.040678,2.354699 h -18.05662"
       id="path1459-7" />
    <path
       style="fill:none;stroke:#5a2ca0;stroke-width:0.9975;stroke-linecap:butt;stroke-linejoin:miter;stroke-miterlimit:4;stroke-dasharray:none;stroke-opacity:1"
       d="m 128.50217,28.311963 -3.04068,-2.354698 h 18.05663"
       id="path1459-6-5" />
    <g
       aria-label="read 1"
       id="text7734"
       style="font-size:4.23333px;line-height:1.25;font-family:Arial;-inkscape-font-specification:Arial;stroke-width:0.264583"
       transform="matrix(1.5,0,0,1.5,-44.433594,-40.795934)">
      <path
         d="m 48.542714,47.685806 v -2.195213 h 0.334863 v 0.332796 q 0.128157,-0.233577 0.235644,-0.307991 0.109554,-0.07441 0.239779,-0.07441 0.188102,0 0.382405,0.119889 l -0.128157,0.345198 q -0.136426,-0.08061 -0.272852,-0.08061 -0.121956,0 -0.219108,0.07441 -0.09715,0.07235 -0.138492,0.202572 -0.06201,0.198437 -0.06201,0.434081 v 1.149283 z"
         id="path1960" />
      <path
         d="m 51.459329,46.978873 0.384473,0.04754 q -0.09095,0.33693 -0.33693,0.522965 -0.24598,0.186035 -0.628385,0.186035 -0.481624,0 -0.764811,-0.295589 -0.281119,-0.297656 -0.281119,-0.833024 0,-0.553971 0.285253,-0.859895 0.285254,-0.305924 0.740006,-0.305924 0.440283,0 0.719335,0.299723 0.279053,0.299723 0.279053,0.843359 0,0.03307 -0.0021,0.09922 h -1.637108 q 0.02067,0.361735 0.204638,0.553971 0.183968,0.192236 0.458887,0.192236 0.204638,0 0.349332,-0.107487 0.144694,-0.107486 0.229443,-0.343131 z m -1.22163,-0.601513 h 1.225764 q -0.0248,-0.276985 -0.140559,-0.415478 -0.177767,-0.214974 -0.460954,-0.214974 -0.256315,0 -0.432014,0.171566 -0.173633,0.171565 -0.192237,0.458886 z"
         id="path1962" />
      <path
         d="m 53.743426,47.415022 q -0.206706,0.1757 -0.398942,0.248047 -0.190169,0.07235 -0.409277,0.07235 -0.361735,0 -0.556038,-0.1757 -0.194303,-0.177767 -0.194303,-0.452685 0,-0.161231 0.07235,-0.293522 0.07441,-0.134359 0.192236,-0.214974 0.119889,-0.08062 0.268717,-0.121956 0.109554,-0.02894 0.330729,-0.05581 0.450618,-0.05374 0.663525,-0.128157 0.0021,-0.07648 0.0021,-0.09715 0,-0.227376 -0.10542,-0.320393 -0.142627,-0.126091 -0.423746,-0.126091 -0.262516,0 -0.388607,0.09302 -0.124023,0.09095 -0.183968,0.324527 l -0.363801,-0.04961 q 0.04961,-0.233577 0.163297,-0.376204 0.113688,-0.144694 0.328662,-0.221175 0.214974,-0.07855 0.49816,-0.07855 0.28112,0 0.456819,0.06615 0.1757,0.06615 0.258382,0.167431 0.08268,0.09922 0.115756,0.252181 0.0186,0.09509 0.0186,0.343131 v 0.496094 q 0,0.51883 0.02274,0.657323 0.0248,0.136426 0.09508,0.262516 H 53.81784 Q 53.75996,47.57006 53.74343,47.415031 Z m -0.03101,-0.830956 q -0.202572,0.08268 -0.607714,0.140559 -0.229444,0.03307 -0.324528,0.07441 -0.09508,0.04134 -0.146761,0.121957 -0.05168,0.07855 -0.05168,0.175699 0,0.148828 0.111621,0.248047 0.113688,0.09922 0.330728,0.09922 0.214974,0 0.382406,-0.09302 0.167431,-0.09508 0.245979,-0.258382 0.05994,-0.12609 0.05994,-0.37207 z"
         id="path1964" />
      <path
         d="m 56.089534,47.685806 v -0.276985 q -0.208773,0.326595 -0.613916,0.326595 -0.262516,0 -0.483691,-0.144694 -0.219108,-0.144694 -0.341064,-0.403076 -0.119889,-0.260449 -0.119889,-0.597379 0,-0.328662 0.109554,-0.595312 0.109554,-0.268717 0.328662,-0.411344 0.219108,-0.142627 0.489892,-0.142627 0.198437,0 0.353466,0.08475 0.15503,0.08268 0.252181,0.217041 v -1.087271 h 0.370003 v 3.030303 z m -1.176155,-1.095539 q 0,0.421679 0.177767,0.630452 0.177767,0.208772 0.419612,0.208772 0.243913,0 0.413411,-0.198437 0.171566,-0.200504 0.171566,-0.609781 0,-0.450618 -0.173633,-0.661458 -0.173632,-0.21084 -0.42788,-0.21084 -0.248047,0 -0.415478,0.202572 -0.165365,0.202571 -0.165365,0.63872 z"
         id="path1966" />
      <path
         d="m 59.493974,47.685806 h -0.37207 v -2.370912 q -0.134358,0.128157 -0.353466,0.256314 -0.217041,0.128158 -0.390674,0.192237 v -0.359668 q 0.312126,-0.146761 0.545703,-0.355534 0.233577,-0.208772 0.330729,-0.405142 h 0.239778 z"
         id="path1968" />
    </g>
    <g
       aria-label="read 2"
       id="text7734-5"
       style="font-size:4.23333px;line-height:1.25;font-family:Arial;-inkscape-font-specification:Arial;stroke-width:0.264583"
       transform="matrix(1.5,0,0,1.5,-44.433594,-40.795934)">
      <path
         d="m 48.542714,51.974842 v -2.195213 h 0.334863 v 0.332796 q 0.128157,-0.233577 0.235644,-0.307991 0.109554,-0.07441 0.239779,-0.07441 0.188102,0 0.382405,0.119889 l -0.128157,0.345198 q -0.136426,-0.08062 -0.272852,-0.08062 -0.121956,0 -0.219108,0.07441 -0.09715,0.07235 -0.138492,0.202572 -0.06201,0.198437 -0.06201,0.434081 v 1.149283 z"
         id="path1971" />
      <path
         d="m 51.459329,51.267909 0.384473,0.04754 q -0.09095,0.33693 -0.33693,0.522965 -0.24598,0.186035 -0.628385,0.186035 -0.481624,0 -0.764811,-0.295589 -0.281119,-0.297656 -0.281119,-0.833023 0,-0.553971 0.285253,-0.859895 0.285254,-0.305924 0.740006,-0.305924 0.440283,0 0.719335,0.299723 0.279053,0.299723 0.279053,0.843358 0,0.03307 -0.0021,0.09922 h -1.637108 q 0.02067,0.361735 0.204638,0.553971 0.183968,0.192236 0.458887,0.192236 0.204638,0 0.349332,-0.107487 0.144694,-0.107487 0.229443,-0.343131 z m -1.22163,-0.601513 h 1.225764 q -0.0248,-0.276986 -0.140559,-0.415478 -0.177767,-0.214974 -0.460954,-0.214974 -0.256315,0 -0.432014,0.171566 -0.173633,0.171565 -0.192237,0.458886 z"
         id="path1973" />
      <path
         d="m 53.743426,51.704058 q -0.206706,0.1757 -0.398942,0.248046 -0.190169,0.07235 -0.409277,0.07235 -0.361735,0 -0.556038,-0.175699 -0.194303,-0.177767 -0.194303,-0.452685 0,-0.161231 0.07235,-0.293522 0.07441,-0.134359 0.192236,-0.214974 0.119889,-0.08062 0.268717,-0.121956 0.109554,-0.02894 0.330729,-0.05581 0.450618,-0.05374 0.663525,-0.128157 0.0021,-0.07648 0.0021,-0.09715 0,-0.227376 -0.10542,-0.320394 -0.142627,-0.12609 -0.423746,-0.12609 -0.262516,0 -0.388607,0.09302 -0.124023,0.09095 -0.183968,0.324527 l -0.363801,-0.04961 q 0.04961,-0.233577 0.163297,-0.376204 0.113688,-0.144694 0.328662,-0.221175 0.214974,-0.07855 0.49816,-0.07855 0.28112,0 0.456819,0.06615 0.1757,0.06614 0.258382,0.167431 0.08268,0.09922 0.115756,0.252181 0.0186,0.09508 0.0186,0.343131 v 0.496093 q 0,0.518831 0.02274,0.657324 0.0248,0.136426 0.09508,0.262516 H 53.81784 q -0.05788,-0.115755 -0.07441,-0.270784 z m -0.03101,-0.830957 q -0.202572,0.08268 -0.607714,0.14056 -0.229444,0.03307 -0.324528,0.07441 -0.09508,0.04134 -0.146761,0.121957 -0.05168,0.07855 -0.05168,0.175699 0,0.148828 0.111621,0.248047 0.113688,0.09922 0.330728,0.09922 0.214974,0 0.382406,-0.09302 0.167431,-0.09508 0.245979,-0.258382 0.05994,-0.12609 0.05994,-0.37207 z"
         id="path1975" />
      <path
         d="m 56.089534,51.974842 v -0.276985 q -0.208773,0.326594 -0.613916,0.326594 -0.262516,0 -0.483691,-0.144693 -0.219108,-0.144694 -0.341064,-0.403076 -0.119889,-0.260449 -0.119889,-0.597379 0,-0.328662 0.109554,-0.595312 0.109554,-0.268718 0.328662,-0.411344 0.219108,-0.142627 0.489892,-0.142627 0.198437,0 0.353466,0.08475 0.15503,0.08268 0.252181,0.217041 V 48.94454 h 0.370003 v 3.030303 z m -1.176155,-1.095539 q 0,0.421679 0.177767,0.630452 0.177767,0.208772 0.419612,0.208772 0.243913,0 0.413411,-0.198437 0.171566,-0.200505 0.171566,-0.609782 0,-0.450618 -0.173633,-0.661457 -0.173632,-0.21084 -0.42788,-0.21084 -0.248047,0 -0.415478,0.202571 -0.165365,0.202572 -0.165365,0.638721 z"
         id="path1977" />
      <path
         d="m 60.047945,51.617241 v 0.357601 h -2.002977 q -0.0041,-0.134359 0.04341,-0.258382 0.07648,-0.204638 0.243912,-0.403076 0.169499,-0.198437 0.487825,-0.458886 0.494027,-0.405143 0.667659,-0.640787 0.173633,-0.237712 0.173633,-0.448551 0,-0.221175 -0.159163,-0.37207 -0.157097,-0.152962 -0.411344,-0.152962 -0.268718,0 -0.429948,0.16123 -0.16123,0.16123 -0.163297,0.446484 l -0.382406,-0.03927 q 0.03927,-0.427881 0.295589,-0.651123 0.256315,-0.225309 0.68833,-0.225309 0.436148,0 0.690396,0.241846 0.254248,0.241845 0.254248,0.599446 0,0.181901 -0.07441,0.357601 -0.07441,0.175699 -0.248047,0.370002 -0.171565,0.194304 -0.572574,0.533301 -0.334863,0.281119 -0.429947,0.382405 -0.09508,0.09922 -0.157097,0.200504 z"
         id="path1979" />
    </g>
    <g
       aria-label="pair 1"
       id="text13140"
       style="font-size:4.23333px;line-height:1.25;font-family:Arial;-inkscape-font-specification:Arial;stroke-width:0.264583"
       transform="matrix(1.5,0,0,1.5,-44.433594,-40.795934)">
      <path
         d="M 34.818821,50.275774 V 47.23927 h 0.338997 v 0.285253 q 0.119889,-0.167431 0.270784,-0.250113 0.150895,-0.08475 0.365869,-0.08475 0.281119,0 0.496093,0.144694 0.214974,0.144694 0.324528,0.409277 0.109554,0.262516 0.109554,0.576709 0,0.33693 -0.121956,0.607714 -0.11989,0.268717 -0.3514,0.413411 -0.229443,0.142627 -0.483691,0.142627 -0.186035,0 -0.334863,-0.07855 -0.146761,-0.07855 -0.241845,-0.198438 v 1.068668 z m 0.33693,-1.926496 q 0,0.423747 0.171565,0.626318 0.171566,0.202572 0.415479,0.202572 0.248046,0 0.423746,-0.208773 0.177767,-0.21084 0.177767,-0.651122 0,-0.419613 -0.173633,-0.628385 -0.171566,-0.208773 -0.411344,-0.208773 -0.237711,0 -0.421679,0.223242 -0.181901,0.221175 -0.181901,0.644921 z"
         style="fill:#d40000"
         id="path1982" />
      <path
         d="m 38.605667,49.163698 q -0.206706,0.1757 -0.398942,0.248047 -0.190169,0.07235 -0.409277,0.07235 -0.361735,0 -0.556038,-0.1757 -0.194303,-0.177767 -0.194303,-0.452685 0,-0.16123 0.07235,-0.293522 0.07441,-0.134358 0.192236,-0.214974 0.119889,-0.08062 0.268717,-0.121956 0.109554,-0.02894 0.330729,-0.05581 0.450618,-0.05374 0.663525,-0.128158 0.0021,-0.07648 0.0021,-0.09715 0,-0.227377 -0.10542,-0.320394 -0.142627,-0.12609 -0.423746,-0.12609 -0.262517,0 -0.388607,0.09302 -0.124023,0.09095 -0.183968,0.324528 l -0.363802,-0.04961 q 0.04961,-0.233577 0.163298,-0.376204 0.113688,-0.144694 0.328662,-0.221175 0.214973,-0.07855 0.49816,-0.07855 0.28112,0 0.456819,0.06615 0.1757,0.06615 0.258382,0.167432 0.08268,0.09922 0.115755,0.25218 0.0186,0.09508 0.0186,0.343132 v 0.496093 q 0,0.518831 0.02274,0.657324 0.02481,0.136425 0.09508,0.262516 h -0.388606 q -0.05788,-0.115756 -0.07441,-0.270785 z m -0.03101,-0.830956 q -0.202572,0.08268 -0.607715,0.14056 -0.229443,0.03307 -0.324527,0.07441 -0.09508,0.04134 -0.146761,0.121956 -0.05168,0.07855 -0.05168,0.1757 0,0.148828 0.111621,0.248046 0.113688,0.09922 0.330729,0.09922 0.214974,0 0.382405,-0.09302 0.167432,-0.09509 0.24598,-0.258382 0.05994,-0.126091 0.05994,-0.37207 z"
         style="fill:#d40000"
         id="path1984" />
      <path
         d="m 39.52964,46.83206 v -0.427881 h 0.37207 v 0.427881 z m 0,2.602423 V 47.23927 h 0.37207 v 2.195213 z"
         style="fill:#d40000"
         id="path1986" />
      <path
         d="M 40.46395,49.434483 V 47.23927 h 0.334863 v 0.332796 q 0.128157,-0.233578 0.235644,-0.307992 0.109554,-0.07441 0.239778,-0.07441 0.188102,0 0.382406,0.119889 l -0.128158,0.345199 q -0.136426,-0.08061 -0.272851,-0.08061 -0.121956,0 -0.219108,0.07441 -0.09715,0.07235 -0.138493,0.202571 -0.06201,0.198437 -0.06201,0.434082 v 1.149283 z"
         style="fill:#d40000"
         id="path1988" />
      <path
         d="m 44.352081,49.434483 h -0.37207 V 47.06357 q -0.134359,0.128157 -0.353467,0.256315 -0.21704,0.128157 -0.390673,0.192236 v -0.359668 q 0.312125,-0.146761 0.545703,-0.355533 0.233577,-0.208773 0.330729,-0.405143 h 0.239778 z"
         style="fill:#d40000"
         id="path1990" />
    </g>
    <g
       aria-label="pair 2"
       id="text13140-1"
       style="font-size:4.23333px;line-height:1.25;font-family:Arial;-inkscape-font-specification:Arial;stroke-width:0.264583"
       transform="matrix(1.5,0,0,1.5,-44.433594,-40.795934)">
      <path
         d="m 128.79935,45.31391 v -3.036505 h 0.33899 v 0.285254 q 0.11989,-0.167432 0.27079,-0.250114 0.15089,-0.08475 0.36587,-0.08475 0.28112,0 0.49609,0.144694 0.21497,0.144694 0.32453,0.409277 0.10955,0.262516 0.10955,0.576708 0,0.33693 -0.12195,0.607714 -0.11989,0.268718 -0.3514,0.413412 -0.22945,0.142626 -0.48369,0.142626 -0.18604,0 -0.33487,-0.07855 -0.14676,-0.07855 -0.24184,-0.198437 v 1.068668 z m 0.33693,-1.926496 q 0,0.423746 0.17156,0.626318 0.17157,0.202571 0.41548,0.202571 0.24805,0 0.42375,-0.208772 0.17776,-0.21084 0.17776,-0.651123 0,-0.419612 -0.17363,-0.628385 -0.17156,-0.208772 -0.41134,-0.208772 -0.23771,0 -0.42168,0.223242 -0.1819,0.221175 -0.1819,0.644921 z"
         style="fill:#5a2ca0"
         id="path1993" />
      <path
         d="m 132.58619,44.201834 q -0.2067,0.1757 -0.39894,0.248046 -0.19017,0.07235 -0.40928,0.07235 -0.36173,0 -0.55603,-0.175699 -0.19431,-0.177767 -0.19431,-0.452685 0,-0.161231 0.0724,-0.293522 0.0744,-0.134359 0.19224,-0.214974 0.11988,-0.08062 0.26871,-0.121956 0.10956,-0.02894 0.33073,-0.05581 0.45062,-0.05374 0.66353,-0.128157 0.002,-0.07648 0.002,-0.09715 0,-0.227376 -0.10542,-0.320394 -0.14262,-0.12609 -0.42374,-0.12609 -0.26252,0 -0.38861,0.09302 -0.12402,0.09095 -0.18397,0.324527 l -0.3638,-0.04961 q 0.0496,-0.233577 0.1633,-0.376204 0.11369,-0.144694 0.32866,-0.221175 0.21497,-0.07855 0.49816,-0.07855 0.28112,0 0.45682,0.06615 0.1757,0.06614 0.25838,0.167431 0.0827,0.09922 0.11576,0.252181 0.0186,0.09508 0.0186,0.343131 v 0.496093 q 0,0.518831 0.0227,0.657324 0.0248,0.136426 0.0951,0.262516 h -0.3886 q -0.0579,-0.115755 -0.0744,-0.270784 z m -0.031,-0.830957 q -0.20257,0.08268 -0.60772,0.14056 -0.22944,0.03307 -0.32453,0.07441 -0.0951,0.04134 -0.14676,0.121957 -0.0517,0.07855 -0.0517,0.175699 0,0.148828 0.11162,0.248047 0.11369,0.09922 0.33073,0.09922 0.21497,0 0.3824,-0.09302 0.16743,-0.09508 0.24598,-0.258382 0.06,-0.12609 0.06,-0.37207 z"
         style="fill:#5a2ca0"
         id="path1995" />
      <path
         d="m 133.51017,41.870195 v -0.42788 h 0.37207 v 0.42788 z m 0,2.602423 v -2.195213 h 0.37207 v 2.195213 z"
         style="fill:#5a2ca0"
         id="path1997" />
      <path
         d="m 134.44448,44.472618 v -2.195213 h 0.33486 v 0.332796 q 0.12816,-0.233577 0.23564,-0.307991 0.10956,-0.07441 0.23978,-0.07441 0.1881,0 0.38241,0.119889 l -0.12816,0.345198 q -0.13643,-0.08062 -0.27285,-0.08062 -0.12196,0 -0.21911,0.07441 -0.0971,0.07235 -0.13849,0.202572 -0.062,0.198437 -0.062,0.434081 v 1.149283 z"
         style="fill:#5a2ca0"
         id="path1999" />
      <path
         d="m 138.88658,44.115017 v 0.357601 h -2.00298 q -0.004,-0.134359 0.0434,-0.258382 0.0765,-0.204638 0.24391,-0.403076 0.1695,-0.198437 0.48783,-0.458886 0.49402,-0.405143 0.66766,-0.640787 0.17363,-0.237712 0.17363,-0.448551 0,-0.221175 -0.15916,-0.37207 -0.1571,-0.152962 -0.41135,-0.152962 -0.26872,0 -0.42995,0.16123 -0.16123,0.16123 -0.16329,0.446484 l -0.38241,-0.03927 q 0.0393,-0.427881 0.29559,-0.651123 0.25631,-0.225309 0.68833,-0.225309 0.43615,0 0.6904,0.241846 0.25424,0.241845 0.25424,0.599446 0,0.181901 -0.0744,0.357601 -0.0744,0.175699 -0.24805,0.370002 -0.17156,0.194304 -0.57257,0.533301 -0.33486,0.281119 -0.42995,0.382405 -0.0951,0.09922 -0.1571,0.200504 z"
         style="fill:#5a2ca0"
         id="path2001" />
    </g>
    <g
       aria-label="gene"
       id="text7734-7"
       style="font-size:4.23333px;line-height:1.25;font-family:Arial;-inkscape-font-specification:Arial;stroke-width:0.264583"
       transform="matrix(1.5,0,0,1.5,-44.433594,-40.795934)">
      <path
         d="m 44.925493,38.939557 0.361734,0.05374 q 0.02274,0.167432 0.126091,0.243913 0.138493,0.103353 0.378271,0.103353 0.258382,0 0.398942,-0.103353 0.140559,-0.103353 0.190169,-0.289388 0.02894,-0.113688 0.02687,-0.47749 -0.243913,0.287321 -0.607715,0.287321 -0.452685,0 -0.700732,-0.326595 -0.248046,-0.326594 -0.248046,-0.783414 0,-0.314192 0.113688,-0.578775 0.113688,-0.26665 0.328662,-0.411344 0.21704,-0.144694 0.508495,-0.144694 0.388607,0 0.640787,0.314192 V 36.56244 h 0.343132 V 38.46 q 0,0.51263 -0.10542,0.725537 -0.103353,0.214973 -0.330729,0.338997 -0.225309,0.124023 -0.556038,0.124023 -0.392741,0 -0.634586,-0.177767 -0.241846,-0.175699 -0.233577,-0.531233 z m 0.307991,-1.318781 q 0,0.432014 0.171566,0.630451 0.171565,0.198438 0.429947,0.198438 0.256315,0 0.429948,-0.19637 0.173632,-0.198438 0.173632,-0.620117 0,-0.403076 -0.179833,-0.607714 -0.177767,-0.204639 -0.429948,-0.204639 -0.248047,0 -0.421679,0.202571 -0.173633,0.200505 -0.173633,0.59738 z"
         id="path2004" />
      <path
         d="m 48.850831,38.050723 0.384473,0.04754 q -0.09095,0.33693 -0.336931,0.522965 -0.245979,0.186035 -0.628384,0.186035 -0.481624,0 -0.764811,-0.295589 -0.28112,-0.297656 -0.28112,-0.833023 0,-0.553971 0.285254,-0.859895 0.285254,-0.305924 0.740006,-0.305924 0.440283,0 0.719335,0.299723 0.279053,0.299723 0.279053,0.843358 0,0.03307 -0.0021,0.09922 h -1.637108 q 0.02067,0.361735 0.204638,0.553971 0.183968,0.192236 0.458887,0.192236 0.204638,0 0.349332,-0.107487 0.144694,-0.107487 0.229443,-0.343131 z m -1.22163,-0.601513 h 1.225764 q -0.0248,-0.276986 -0.140559,-0.415478 -0.177767,-0.214974 -0.460954,-0.214974 -0.256315,0 -0.432014,0.171566 -0.173633,0.171565 -0.192237,0.458886 z"
         id="path2006" />
      <path
         d="m 49.702458,38.757656 v -2.195213 h 0.334863 v 0.312125 q 0.241846,-0.361734 0.698665,-0.361734 0.198437,0 0.363802,0.07235 0.167431,0.07028 0.250113,0.186035 0.08268,0.115755 0.115756,0.274918 0.02067,0.103353 0.02067,0.361735 v 1.349787 h -0.37207 v -1.335318 q 0,-0.227376 -0.04341,-0.338997 -0.04341,-0.113688 -0.155029,-0.179834 -0.109554,-0.06821 -0.258382,-0.06821 -0.237712,0 -0.411344,0.150895 -0.171566,0.150896 -0.171566,0.572575 v 1.198892 z"
         id="path2008" />
      <path
         d="m 53.559584,38.050723 0.384472,0.04754 q -0.09095,0.33693 -0.33693,0.522965 -0.245979,0.186035 -0.628385,0.186035 -0.481624,0 -0.76481,-0.295589 -0.28112,-0.297656 -0.28112,-0.833023 0,-0.553971 0.285254,-0.859895 0.285253,-0.305924 0.740006,-0.305924 0.440283,0 0.719335,0.299723 0.279053,0.299723 0.279053,0.843358 0,0.03307 -0.0021,0.09922 h -1.637108 q 0.02067,0.361735 0.204639,0.553971 0.183968,0.192236 0.458886,0.192236 0.204639,0 0.349333,-0.107487 0.144694,-0.107487 0.229443,-0.343131 z m -1.22163,-0.601513 h 1.225764 q -0.02481,-0.276986 -0.14056,-0.415478 -0.177767,-0.214974 -0.460953,-0.214974 -0.256315,0 -0.432015,0.171566 -0.173632,0.171565 -0.192236,0.458886 z"
         id="path2010" />
    </g>
    <g
       aria-label="exon 1"
       id="text7734-9"
       style="font-size:4.23333px;line-height:1.25;font-family:Arial;-inkscape-font-specification:Arial;stroke-width:0.264583"
       transform="matrix(1.5,0,0,1.5,-44.433594,-40.795934)">
      <path
         d="m 73.071711,34.639751 0.384473,0.04754 q -0.09095,0.33693 -0.33693,0.522965 -0.24598,0.186035 -0.628385,0.186035 -0.481624,0 -0.764811,-0.295589 -0.281119,-0.297656 -0.281119,-0.833023 0,-0.553971 0.285253,-0.859896 0.285254,-0.305924 0.740006,-0.305924 0.440283,0 0.719335,0.299723 0.279053,0.299723 0.279053,0.843359 0,0.03307 -0.0021,0.09922 h -1.637108 q 0.02067,0.361734 0.204638,0.55397 0.183968,0.192237 0.458887,0.192237 0.204638,0 0.349332,-0.107487 0.144694,-0.107487 0.229443,-0.343131 z m -1.22163,-0.601514 h 1.225764 q -0.0248,-0.276985 -0.140559,-0.415478 -0.177767,-0.214974 -0.460954,-0.214974 -0.256315,0 -0.432014,0.171566 -0.173633,0.171566 -0.192237,0.458886 z"
         id="path2013" />
      <path
         d="m 73.675292,35.346684 0.802017,-1.141015 -0.742073,-1.054198 h 0.465088 l 0.33693,0.514696 q 0.09508,0.146761 0.152962,0.24598 0.09095,-0.136426 0.167431,-0.241846 l 0.370003,-0.51883 h 0.444417 l -0.758609,1.033527 0.816487,1.161686 h -0.45682 l -0.450618,-0.682129 -0.119889,-0.183968 -0.576708,0.866097 z"
         id="path2015" />
      <path
         d="m 75.90151,34.249077 q 0,-0.609781 0.338997,-0.903303 0.283187,-0.243913 0.690397,-0.243913 0.452685,0 0.740006,0.297656 0.287321,0.295589 0.287321,0.818554 0,0.423747 -0.128158,0.667659 -0.12609,0.241846 -0.370003,0.376204 -0.241845,0.134359 -0.529166,0.134359 -0.460953,0 -0.746207,-0.295589 -0.283187,-0.295589 -0.283187,-0.851627 z m 0.382406,0 q 0,0.421679 0.183968,0.632519 0.183968,0.208773 0.46302,0.208773 0.276985,0 0.460953,-0.21084 0.183968,-0.21084 0.183968,-0.642854 0,-0.40721 -0.186035,-0.615983 -0.183968,-0.21084 -0.458886,-0.21084 -0.279052,0 -0.46302,0.208773 -0.183968,0.208773 -0.183968,0.630452 z"
         id="path2017" />
      <path
         d="m 78.394379,35.346684 v -2.195213 h 0.334863 v 0.312125 q 0.241846,-0.361735 0.698665,-0.361735 0.198437,0 0.363802,0.07235 0.167431,0.07028 0.250114,0.186035 0.08268,0.115755 0.115755,0.274919 0.02067,0.103352 0.02067,0.361734 v 1.349788 h -0.37207 v -1.335318 q 0,-0.227376 -0.04341,-0.338997 -0.04341,-0.113689 -0.155029,-0.179834 -0.109554,-0.06821 -0.258382,-0.06821 -0.237711,0 -0.411344,0.150895 -0.171566,0.150895 -0.171566,0.572574 v 1.198893 z"
         id="path2019" />
      <path
         d="m 83.223021,35.346684 h -0.37207 v -2.370913 q -0.134358,0.128157 -0.353466,0.256315 -0.217041,0.128157 -0.390674,0.192236 v -0.359668 q 0.312126,-0.146761 0.545703,-0.355533 0.233577,-0.208773 0.330729,-0.405143 h 0.239778 z"
         id="path2021" />
    </g>
    <g
       aria-label="exon 2"
       id="text7734-6"
       style="font-size:4.23333px;line-height:1.25;font-family:Arial;-inkscape-font-specification:Arial;stroke-width:0.264583"
       transform="matrix(1.5,0,0,1.5,-44.433594,-40.795934)">
      <path
         d="m 113.04457,34.639751 0.38448,0.04754 q -0.091,0.33693 -0.33693,0.522965 -0.24598,0.186035 -0.62839,0.186035 -0.48162,0 -0.76481,-0.295589 -0.28112,-0.297656 -0.28112,-0.833023 0,-0.553971 0.28525,-0.859896 0.28526,-0.305924 0.74001,-0.305924 0.44028,0 0.71934,0.299723 0.27905,0.299723 0.27905,0.843359 0,0.03307 -0.002,0.09922 h -1.63711 q 0.0207,0.361734 0.20464,0.55397 0.18397,0.192237 0.45889,0.192237 0.20464,0 0.34933,-0.107487 0.14469,-0.107487 0.22944,-0.343131 z m -1.22163,-0.601514 h 1.22577 q -0.0248,-0.276985 -0.14056,-0.415478 -0.17777,-0.214974 -0.46096,-0.214974 -0.25631,0 -0.43201,0.171566 -0.17363,0.171566 -0.19224,0.458886 z"
         id="path2024" />
      <path
         d="m 113.64815,35.346684 0.80202,-1.141015 -0.74207,-1.054198 h 0.46509 l 0.33693,0.514696 q 0.0951,0.146761 0.15296,0.24598 0.091,-0.136426 0.16743,-0.241846 l 0.37,-0.51883 h 0.44442 l -0.75861,1.033527 0.81649,1.161686 h -0.45682 l -0.45062,-0.682129 -0.11989,-0.183968 -0.57671,0.866097 z"
         id="path2026" />
      <path
         d="m 115.87437,34.249077 q 0,-0.609781 0.339,-0.903303 0.28319,-0.243913 0.6904,-0.243913 0.45268,0 0.74,0.297656 0.28732,0.295589 0.28732,0.818554 0,0.423747 -0.12815,0.667659 -0.12609,0.241846 -0.37001,0.376204 -0.24184,0.134359 -0.52916,0.134359 -0.46096,0 -0.74621,-0.295589 -0.28319,-0.295589 -0.28319,-0.851627 z m 0.38241,0 q 0,0.421679 0.18397,0.632519 0.18396,0.208773 0.46302,0.208773 0.27698,0 0.46095,-0.21084 0.18397,-0.21084 0.18397,-0.642854 0,-0.40721 -0.18604,-0.615983 -0.18397,-0.21084 -0.45888,-0.21084 -0.27906,0 -0.46302,0.208773 -0.18397,0.208773 -0.18397,0.630452 z"
         id="path2028" />
      <path
         d="m 118.36724,35.346684 v -2.195213 h 0.33486 v 0.312125 q 0.24185,-0.361735 0.69867,-0.361735 0.19844,0 0.3638,0.07235 0.16743,0.07028 0.25011,0.186035 0.0827,0.115755 0.11576,0.274919 0.0207,0.103352 0.0207,0.361734 v 1.349788 h -0.37207 v -1.335318 q 0,-0.227376 -0.0434,-0.338997 -0.0434,-0.113689 -0.15503,-0.179834 -0.10955,-0.06821 -0.25838,-0.06821 -0.23771,0 -0.41134,0.150895 -0.17157,0.150895 -0.17157,0.572574 v 1.198893 z"
         id="path2030" />
      <path
         d="m 123.74985,34.989083 v 0.357601 h -2.00297 q -0.004,-0.134359 0.0434,-0.258382 0.0765,-0.204639 0.24391,-0.403076 0.1695,-0.198438 0.48782,-0.458887 0.49403,-0.405142 0.66766,-0.640787 0.17363,-0.237711 0.17363,-0.448551 0,-0.221175 -0.15916,-0.37207 -0.15709,-0.152962 -0.41134,-0.152962 -0.26872,0 -0.42995,0.16123 -0.16123,0.161231 -0.1633,0.446484 l -0.3824,-0.03927 q 0.0393,-0.42788 0.29559,-0.651122 0.25631,-0.225309 0.68833,-0.225309 0.43614,0 0.69039,0.241845 0.25425,0.241846 0.25425,0.599446 0,0.181901 -0.0744,0.357601 -0.0744,0.1757 -0.24805,0.370003 -0.17157,0.194303 -0.57257,0.5333 -0.33487,0.28112 -0.42995,0.382406 -0.0951,0.09922 -0.1571,0.200504 z"
         id="path2032" />
    </g>
    <rect
       id="rect1113-3"
       width="54.786335"
       height="1.85309"
       x="44.174202"
       y="14.604811"
       style="stroke-width:0.396874" />
    <rect
       id="rect1113-3-3"
       width="28.624222"
       height="1.8530903"
       x="117.63004"
       y="14.604811"
       style="stroke-width:0.396874" />
    <path
       style="fill:none;stroke:#000000;stroke-width:0.3975;stroke-linecap:square;stroke-linejoin:round;stroke-miterlimit:4;stroke-dasharray:none;stroke-opacity:1;paint-order:normal"
       d="m 98.877755,14.839691 9.417525,-3.084855 9.38378,3.071786"
       id="path37243" />
    <path
       style="fill:none;stroke:#000000;stroke-width:0.396874px;stroke-linecap:butt;stroke-linejoin:miter;stroke-opacity:1"
       d="m 26.65752,29.077369 v 5.25472"
       id="path38262" />
    <path
       style="fill:none;stroke:#b7c8c4;stroke-width:0.396874;stroke-linecap:butt;stroke-linejoin:miter;stroke-miterlimit:4;stroke-dasharray:0.396874, 1.19062;stroke-dashoffset:0;stroke-opacity:1"
       d="M 73.21895,23.966663 V 155.17398"
       id="path38525-0" />
    <path
       style="fill:none;stroke:#d40000;stroke-width:0.9975;stroke-linecap:butt;stroke-linejoin:miter;stroke-miterlimit:4;stroke-dasharray:none;stroke-opacity:1"
       d="M 62.545282,27.953741 65.58596,30.30844 H 47.529334"
       id="path1459" />
    <path
       style="fill:none;stroke:#d40000;stroke-width:0.9975;stroke-linecap:butt;stroke-linejoin:miter;stroke-miterlimit:4;stroke-dasharray:none;stroke-opacity:1"
       d="M 64.774234,35.455718 61.733555,33.10102 h 18.056627"
       id="path1459-6" />
    <path
       style="fill:none;stroke:#b7c8c4;stroke-width:0.396874;stroke-linecap:butt;stroke-linejoin:miter;stroke-miterlimit:4;stroke-dasharray:0.396874, 1.19062;stroke-dashoffset:0;stroke-opacity:1"
       d="M 60.473359,33.441317 V 155.17398"
       id="path38525-9" />
    <path
       style="fill:none;stroke:#b7c8c4;stroke-width:0.396874;stroke-linecap:butt;stroke-linejoin:miter;stroke-miterlimit:4;stroke-dasharray:0.396874, 1.19062;stroke-dashoffset:0;stroke-opacity:1"
       d="M 79.591746,33.928699 V 155.17398"
       id="path38525-2" />
    <path
       style="fill:none;stroke:#b7c8c4;stroke-width:0.396874;stroke-linecap:butt;stroke-linejoin:miter;stroke-miterlimit:4;stroke-dasharray:0.396874, 1.19062;stroke-dashoffset:0;stroke-opacity:1"
       d="M 92.337331,23.998666 V 155.17398"
       id="path38525-23" />
    <path
       style="fill:none;stroke:#b7c8c4;stroke-width:0.396874;stroke-linecap:butt;stroke-linejoin:miter;stroke-miterlimit:4;stroke-dasharray:0.396874, 1.19062;stroke-dashoffset:0;stroke-opacity:1"
       d="M 98.762101,17.394586 V 155.17398"
       id="path38525-7" />
    <path
       style="fill:none;stroke:#000000;stroke-width:1.2975;stroke-linecap:butt;stroke-linejoin:miter;stroke-miterlimit:4;stroke-dasharray:none;stroke-opacity:1"
       d="m 47.727771,148.69589 v 6.47809"
       id="path45278-9-5-35" />
    <path
       style="fill:none;stroke:#000000;stroke-width:1.2975;stroke-linecap:butt;stroke-linejoin:miter;stroke-miterlimit:4;stroke-dasharray:none;stroke-opacity:1"
       d="m 73.218935,148.69589 v 6.47809"
       id="path45278-1-4-4-62" />
    <path
       style="fill:none;stroke:#000000;stroke-width:1.2975;stroke-linecap:butt;stroke-linejoin:miter;stroke-miterlimit:4;stroke-dasharray:none;stroke-opacity:1"
       d="m 54.100566,148.69589 v 6.47809"
       id="path45278-9-5-7-9" />
    <path
       style="fill:none;stroke:#000000;stroke-width:1.2975;stroke-linecap:butt;stroke-linejoin:miter;stroke-miterlimit:4;stroke-dasharray:none;stroke-opacity:1"
       d="m 60.473361,148.69589 v 6.47809"
       id="path45278-9-5-8-1" />
    <path
       style="fill:none;stroke:#000000;stroke-width:1.2975;stroke-linecap:butt;stroke-linejoin:miter;stroke-miterlimit:4;stroke-dasharray:none;stroke-opacity:1"
       d="m 66.846155,148.69589 v 6.47809"
       id="path45278-9-5-6-2" />
    <path
       style="fill:none;stroke:#000000;stroke-width:1.2975;stroke-linecap:butt;stroke-linejoin:miter;stroke-miterlimit:4;stroke-dasharray:none;stroke-opacity:1"
       d="m 79.59173,148.69589 v 6.47809"
       id="path45278-9-5-88-7" />
    <path
       style="fill:none;stroke:#000000;stroke-width:1.2975;stroke-linecap:butt;stroke-linejoin:miter;stroke-miterlimit:4;stroke-dasharray:none;stroke-opacity:1"
       d="m 85.964525,148.69589 v 6.47809"
       id="path45278-9-5-4-0" />
    <path
       style="fill:none;stroke:#000000;stroke-width:1.2975;stroke-linecap:butt;stroke-linejoin:miter;stroke-miterlimit:4;stroke-dasharray:none;stroke-opacity:1"
       d="m 92.33732,148.69589 v 6.47809"
       id="path45278-9-5-3-9" />
    <path
       style="fill:none;stroke:#000000;stroke-width:1.2975;stroke-linecap:butt;stroke-linejoin:miter;stroke-miterlimit:4;stroke-dasharray:none;stroke-opacity:1"
       d="m 98.710116,148.69589 v 6.47809"
       id="path45278-9-5-7-3-3" />
    <path
       style="fill:none;stroke:#000000;stroke-width:1.2975;stroke-linecap:butt;stroke-linejoin:miter;stroke-miterlimit:4;stroke-dasharray:none;stroke-opacity:1"
       d="m 105.08291,148.69589 v 6.47809"
       id="path45278-9-5-70-6" />
    <path
       style="fill:none;stroke:#000000;stroke-width:1.2975;stroke-linecap:butt;stroke-linejoin:miter;stroke-miterlimit:4;stroke-dasharray:none;stroke-opacity:1"
       d="m 73.218935,142.36719 v 6.4781"
       id="path45278-1-4-4-3-0" />
    <path
       style="fill:none;stroke:#000000;stroke-width:1.2975;stroke-linecap:butt;stroke-linejoin:miter;stroke-miterlimit:4;stroke-dasharray:none;stroke-opacity:1"
       d="m 79.59173,142.36719 v 6.4781"
       id="path45278-1-4-4-6-6" />
    <path
       style="fill:none;stroke:#b7c8c4;stroke-width:0.396874;stroke-linecap:butt;stroke-linejoin:miter;stroke-miterlimit:4;stroke-dasharray:0.396874, 1.19062;stroke-dashoffset:0;stroke-opacity:1"
       d="M 117.8285,17.317666 V 155.17398"
       id="path38525-5" />
    <path
       style="fill:none;stroke:#b7c8c4;stroke-width:0.396874;stroke-linecap:butt;stroke-linejoin:miter;stroke-miterlimit:4;stroke-dasharray:0.396874, 1.19062;stroke-dashoffset:0;stroke-opacity:1"
       d="M 124.2013,26.322941 V 155.17398"
       id="path38525-92" />
    <path
       style="fill:none;stroke:#b7c8c4;stroke-width:0.396874;stroke-linecap:butt;stroke-linejoin:miter;stroke-miterlimit:4;stroke-dasharray:0.396874, 1.19062;stroke-dashoffset:0;stroke-opacity:1"
       d="M 143.31968,27.053142 V 155.17398"
       id="path38525-28" />
    <path
       style="fill:none;stroke:#808080;stroke-width:0.396874px;stroke-linecap:butt;stroke-linejoin:miter;stroke-opacity:1"
       d="M 39.676455,53.241584 H 151.37099"
       id="path38405" />
    <g
       aria-label="first"
       id="text7734-97"
       style="font-style:italic;font-size:4.23333px;line-height:1.25;font-family:Arial;-inkscape-font-specification:'Arial Italic';stroke-width:0.264583"
       transform="matrix(1.5,0,0,1.5,-44.433594,-40.795934)">
      <path
         d="m 31.355341,62.742828 0.398942,-1.905825 H 31.41942 l 0.05995,-0.289388 h 0.334863 l 0.06408,-0.312125 q 0.04961,-0.233577 0.101286,-0.33693 0.05374,-0.103353 0.171566,-0.169499 0.119889,-0.06821 0.324527,-0.06821 0.142627,0 0.413411,0.05994 l -0.06821,0.326595 q -0.19017,-0.04961 -0.318327,-0.04961 -0.109554,0 -0.167431,0.05581 -0.05581,0.05374 -0.09715,0.258382 l -0.04961,0.235644 H 32.60592 L 32.54598,60.837 h -0.41756 l -0.398942,1.905825 z"
         id="path2035" />
      <path
         d="m 33.011053,60.136271 0.08888,-0.423746 h 0.37207 l -0.08888,0.423746 z m -0.545703,2.606557 0.458886,-2.195213 h 0.374137 l -0.458886,2.195213 z"
         id="path2037" />
      <path
         d="m 33.42033,62.742828 0.458886,-2.195213 h 0.330729 l -0.09302,0.448551 q 0.169499,-0.254247 0.330729,-0.376204 0.163298,-0.121956 0.332796,-0.121956 0.111621,0 0.274919,0.08062 l -0.152962,0.347266 q -0.09715,-0.07028 -0.212907,-0.07028 -0.19637,0 -0.403076,0.219108 -0.206706,0.219107 -0.324528,0.787548 l -0.186035,0.880565 z"
         id="path2039" />
      <path
         d="m 34.865201,61.992487 0.374138,-0.02274 q 0,0.16123 0.04961,0.274918 0.04961,0.113688 0.181901,0.186035 0.134358,0.07235 0.312125,0.07235 0.248047,0 0.37207,-0.09922 0.124023,-0.09922 0.124023,-0.233577 0,-0.09715 -0.07441,-0.183968 -0.07648,-0.08682 -0.374137,-0.212907 -0.295589,-0.128157 -0.378271,-0.179834 -0.138492,-0.08475 -0.208772,-0.198437 -0.07028,-0.115755 -0.07028,-0.264583 0,-0.260449 0.206705,-0.446484 0.206706,-0.186035 0.578776,-0.186035 0.413411,0 0.628385,0.192236 0.217041,0.190169 0.225309,0.502295 l -0.365869,0.0248 q -0.0083,-0.198437 -0.14056,-0.314192 -0.132291,-0.115755 -0.374137,-0.115755 -0.194303,0 -0.30179,0.08888 -0.107487,0.08888 -0.107487,0.192236 0,0.103353 0.09302,0.181901 0.06201,0.05374 0.320393,0.165365 0.429948,0.186035 0.541569,0.293522 0.177767,0.171565 0.177767,0.417545 0,0.163297 -0.101286,0.320393 -0.09922,0.157097 -0.305924,0.252181 -0.204639,0.09302 -0.483691,0.09302 -0.380339,0 -0.646989,-0.188102 -0.26665,-0.188102 -0.252181,-0.611849 z"
         id="path2041" />
      <path
         d="m 37.821091,62.438971 -0.06201,0.305924 q -0.134358,0.03514 -0.260449,0.03514 -0.223242,0 -0.355533,-0.109554 -0.09922,-0.08268 -0.09922,-0.225309 0,-0.07235 0.05374,-0.332796 l 0.266651,-1.275373 h -0.295589 l 0.05994,-0.289388 h 0.295589 l 0.113688,-0.539501 0.427881,-0.258382 -0.167432,0.797883 h 0.367936 l -0.06201,0.289388 h -0.365869 l -0.254248,1.213362 q -0.04754,0.23151 -0.04754,0.276985 0,0.06615 0.03721,0.101286 0.03927,0.03514 0.12609,0.03514 0.124023,0 0.221175,-0.02481 z"
         id="path2043" />
    </g>
    <path
       style="fill:none;stroke:#000000;stroke-width:1.2975;stroke-linecap:butt;stroke-linejoin:miter;stroke-miterlimit:4;stroke-dasharray:none;stroke-opacity:1"
       d="m 47.727771,46.565045 v 6.478102"
       id="path45278" />
    <path
       style="fill:none;stroke:#000000;stroke-width:1.2975;stroke-linecap:butt;stroke-linejoin:miter;stroke-miterlimit:4;stroke-dasharray:none;stroke-opacity:1"
       d="m 73.21895,46.565045 v 6.478102"
       id="path45278-1" />
    <path
       style="fill:none;stroke:#808080;stroke-width:0.396874px;stroke-linecap:butt;stroke-linejoin:miter;stroke-opacity:1"
       d="M 39.676455,70.26338 H 151.37099"
       id="path38405-9" />
    <g
       aria-label="last"
       id="text7734-97-3"
       style="font-style:italic;font-size:4.23333px;line-height:1.25;font-family:Arial;-inkscape-font-specification:'Arial Italic';stroke-width:0.264583"
       transform="matrix(1.5,0,0,1.5,-44.433594,-40.795934)">
      <path
         d="m 31.043216,74.090691 0.632519,-3.030304 h 0.374137 l -0.632519,3.030304 z"
         id="path2046" />
      <path
         d="m 33.492677,73.817839 q -0.194304,0.167432 -0.374137,0.24598 -0.179834,0.07648 -0.384473,0.07648 -0.303857,0 -0.489892,-0.177767 -0.186035,-0.179834 -0.186035,-0.458886 0,-0.183968 0.08268,-0.324528 0.08475,-0.142627 0.223242,-0.227376 0.138493,-0.08682 0.338997,-0.124023 0.126091,-0.02481 0.47749,-0.03927 0.353467,-0.01447 0.506429,-0.07441 0.04341,-0.152962 0.04341,-0.254248 0,-0.130225 -0.09508,-0.204639 -0.130225,-0.103352 -0.380339,-0.103352 -0.235644,0 -0.386539,0.105419 -0.148828,0.103353 -0.217041,0.295589 l -0.378271,-0.03307 q 0.115755,-0.326594 0.365869,-0.500227 0.252181,-0.173633 0.634586,-0.173633 0.40721,0 0.644921,0.194304 0.181901,0.144693 0.181901,0.376204 0,0.175699 -0.05168,0.40721 l -0.121957,0.545702 q -0.05788,0.260449 -0.05788,0.423747 0,0.103352 0.04547,0.297656 h -0.378271 q -0.03101,-0.107487 -0.04341,-0.272852 z m 0.138492,-0.839224 q -0.07855,0.03101 -0.169498,0.04754 -0.08888,0.01654 -0.299723,0.03514 -0.326595,0.02894 -0.460954,0.07441 -0.134358,0.04341 -0.202571,0.14056 -0.06821,0.09715 -0.06821,0.214974 0,0.157096 0.107487,0.258381 0.109554,0.101286 0.310058,0.101286 0.186035,0 0.357601,-0.09715 0.171566,-0.09922 0.270784,-0.274919 0.09922,-0.1757 0.155029,-0.500227 z"
         id="path2048" />
      <path
         d="m 34.402181,73.340349 0.374137,-0.02274 q 0,0.16123 0.04961,0.274918 0.04961,0.113688 0.1819,0.186035 0.134359,0.07235 0.312126,0.07235 0.248046,0 0.37207,-0.09922 0.124023,-0.09922 0.124023,-0.233578 0,-0.09715 -0.07441,-0.183968 -0.07648,-0.08682 -0.374137,-0.212906 -0.295589,-0.128158 -0.378271,-0.179834 -0.138493,-0.08475 -0.208773,-0.198438 -0.07028,-0.115755 -0.07028,-0.264583 0,-0.260449 0.206706,-0.446484 0.206706,-0.186035 0.578776,-0.186035 0.413411,0 0.628384,0.192236 0.217041,0.19017 0.225309,0.502295 l -0.365868,0.02481 q -0.0083,-0.198438 -0.14056,-0.314193 -0.132292,-0.115755 -0.374137,-0.115755 -0.194303,0 -0.30179,0.08888 -0.107487,0.08888 -0.107487,0.192237 0,0.103352 0.09302,0.181901 0.06201,0.05374 0.320394,0.165364 0.429947,0.186035 0.541568,0.293522 0.177767,0.171565 0.177767,0.417545 0,0.163297 -0.101285,0.320394 -0.09922,0.157096 -0.305925,0.25218 -0.204638,0.09302 -0.483691,0.09302 -0.380338,0 -0.646988,-0.188102 -0.26665,-0.188102 -0.252181,-0.611849 z"
         id="path2050" />
      <path
         d="m 37.358071,73.786833 -0.06201,0.305925 q -0.134359,0.03514 -0.260449,0.03514 -0.223242,0 -0.355534,-0.109554 -0.09922,-0.08268 -0.09922,-0.225309 0,-0.07235 0.05374,-0.332796 l 0.26665,-1.275374 h -0.295589 l 0.05994,-0.289387 h 0.295589 l 0.113688,-0.539502 0.42788,-0.258382 -0.167431,0.797884 h 0.367936 l -0.06201,0.289387 h -0.365869 l -0.254247,1.213362 q -0.04754,0.23151 -0.04754,0.276985 0,0.06615 0.03721,0.101286 0.03927,0.03514 0.126091,0.03514 0.124023,0 0.221175,-0.02481 z"
         id="path2052" />
    </g>
    <path
       style="fill:none;stroke:#000000;stroke-width:1.2975;stroke-linecap:butt;stroke-linejoin:miter;stroke-miterlimit:4;stroke-dasharray:none;stroke-opacity:1"
       d="m 79.591746,63.586841 v 6.478102"
       id="path45278-9" />
    <path
       style="fill:none;stroke:#000000;stroke-width:1.2975;stroke-linecap:butt;stroke-linejoin:miter;stroke-miterlimit:4;stroke-dasharray:none;stroke-opacity:1"
       d="m 143.31968,63.586841 v 6.478102"
       id="path45278-1-4" />
    <path
       style="fill:none;stroke:#808080;stroke-width:0.396874px;stroke-linecap:butt;stroke-linejoin:miter;stroke-opacity:1"
       d="M 39.676455,121.32879 H 151.37099"
       id="path38405-9-6" />
    <g
       aria-label="all"
       id="text7734-97-3-1"
       style="font-style:italic;font-size:4.23333px;line-height:1.25;font-family:Arial;-inkscape-font-specification:'Arial Italic';stroke-width:0.264583"
       transform="matrix(1.5,0,0,1.5,-44.433594,-40.795934)">
      <path
         d="m 32.669987,107.86145 q -0.194303,0.16743 -0.374137,0.24598 -0.179834,0.0765 -0.384472,0.0765 -0.303857,0 -0.489892,-0.17777 -0.186035,-0.17983 -0.186035,-0.45888 0,-0.18397 0.08268,-0.32453 0.08475,-0.14263 0.223242,-0.22738 0.138493,-0.0868 0.338997,-0.12402 0.12609,-0.0248 0.47749,-0.0393 0.353466,-0.0145 0.506428,-0.0744 0.04341,-0.15296 0.04341,-0.25425 0,-0.13022 -0.09508,-0.20464 -0.130225,-0.10335 -0.380338,-0.10335 -0.235645,0 -0.38654,0.10542 -0.148828,0.10335 -0.21704,0.29559 l -0.378272,-0.0331 q 0.115755,-0.3266 0.365869,-0.50023 0.252181,-0.17363 0.634586,-0.17363 0.40721,0 0.644922,0.1943 0.1819,0.1447 0.1819,0.37621 0,0.17569 -0.05168,0.40721 l -0.121956,0.5457 q -0.05788,0.26045 -0.05788,0.42374 0,0.10336 0.04547,0.29766 h -0.378271 q -0.03101,-0.10749 -0.04341,-0.27285 z m 0.138493,-0.83923 q -0.07855,0.031 -0.169499,0.0476 -0.08888,0.0165 -0.299723,0.0351 -0.326595,0.0289 -0.460953,0.0744 -0.134359,0.0434 -0.202572,0.14056 -0.06821,0.0971 -0.06821,0.21497 0,0.1571 0.107486,0.25839 0.109554,0.10128 0.310059,0.10128 0.186035,0 0.3576,-0.0971 0.171566,-0.0992 0.270785,-0.27492 0.09922,-0.1757 0.155029,-0.50023 z"
         id="path2055" />
      <path
         d="m 33.515413,108.1343 0.632519,-3.0303 h 0.374137 l -0.632519,3.0303 z"
         id="path2057" />
      <path
         d="m 34.455923,108.1343 0.632519,-3.0303 h 0.374137 l -0.632519,3.0303 z"
         id="path2059" />
    </g>
    <path
       style="fill:none;stroke:#808080;stroke-width:0.396874px;stroke-linecap:butt;stroke-linejoin:miter;stroke-opacity:1"
       d="M 39.676455,138.35061 H 151.37099"
       id="path38405-8-6" />
    <g
       aria-label="all-slice"
       id="text7734-97-4-5"
       style="font-style:italic;font-size:4.23333px;line-height:1.25;font-family:Arial;-inkscape-font-specification:'Arial Italic';stroke-width:0.264583"
       transform="matrix(1.5,0,0,1.5,-44.433594,-40.795934)">
      <path
         d="m 32.669987,119.20933 q -0.194303,0.16743 -0.374137,0.24598 -0.179834,0.0765 -0.384472,0.0765 -0.303857,0 -0.489892,-0.17777 -0.186035,-0.17983 -0.186035,-0.45889 0,-0.18396 0.08268,-0.32452 0.08475,-0.14263 0.223242,-0.22738 0.138493,-0.0868 0.338997,-0.12402 0.12609,-0.0248 0.47749,-0.0393 0.353466,-0.0145 0.506428,-0.0744 0.04341,-0.15296 0.04341,-0.25425 0,-0.13022 -0.09508,-0.20464 -0.130225,-0.10335 -0.380338,-0.10335 -0.235645,0 -0.38654,0.10542 -0.148828,0.10335 -0.21704,0.29559 l -0.378272,-0.0331 q 0.115755,-0.3266 0.365869,-0.50023 0.252181,-0.17363 0.634586,-0.17363 0.40721,0 0.644922,0.1943 0.1819,0.14469 0.1819,0.3762 0,0.1757 -0.05168,0.40721 l -0.121956,0.54571 q -0.05788,0.26044 -0.05788,0.42374 0,0.10335 0.04547,0.29766 h -0.378271 q -0.03101,-0.10749 -0.04341,-0.27285 z m 0.138493,-0.83923 q -0.07855,0.031 -0.169499,0.0475 -0.08888,0.0165 -0.299723,0.0351 -0.326595,0.0289 -0.460953,0.0744 -0.134359,0.0434 -0.202572,0.14056 -0.06821,0.0971 -0.06821,0.21497 0,0.1571 0.107486,0.25838 0.109554,0.10129 0.310059,0.10129 0.186035,0 0.3576,-0.0971 0.171566,-0.0992 0.270785,-0.27492 0.09922,-0.1757 0.155029,-0.50023 z"
         id="path2062" />
      <path
         d="m 33.515413,119.48218 0.632519,-3.03031 h 0.374137 l -0.632519,3.03031 z"
         id="path2064" />
      <path
         d="m 34.455923,119.48218 0.632519,-3.03031 h 0.374137 l -0.632519,3.03031 z"
         id="path2066" />
      <path
         d="m 35.481183,118.57267 0.07855,-0.37413 h 1.141015 l -0.07648,0.37413 z"
         id="path2068" />
      <path
         d="m 36.870244,118.73184 0.374137,-0.0227 q 0,0.16123 0.04961,0.27492 0.04961,0.11369 0.181901,0.18603 0.134359,0.0724 0.312126,0.0724 0.248046,0 0.37207,-0.0992 0.124023,-0.0992 0.124023,-0.23358 0,-0.0971 -0.07441,-0.18396 -0.07648,-0.0868 -0.374137,-0.21291 -0.295589,-0.12816 -0.378271,-0.17984 -0.138493,-0.0847 -0.208773,-0.19843 -0.07028,-0.11576 -0.07028,-0.26459 0,-0.26044 0.206706,-0.44648 0.206705,-0.18603 0.578775,-0.18603 0.413412,0 0.628385,0.19223 0.217041,0.19017 0.225309,0.5023 l -0.365868,0.0248 q -0.0083,-0.19844 -0.14056,-0.31419 -0.132292,-0.11576 -0.374137,-0.11576 -0.194304,0 -0.30179,0.0889 -0.107487,0.0889 -0.107487,0.19223 0,0.10336 0.09302,0.1819 0.06201,0.0537 0.320394,0.16537 0.429947,0.18603 0.541568,0.29352 0.177767,0.17157 0.177767,0.41755 0,0.16329 -0.101286,0.32039 -0.09922,0.1571 -0.305924,0.25218 -0.204638,0.093 -0.483691,0.093 -0.380338,0 -0.646988,-0.1881 -0.26665,-0.18811 -0.252181,-0.61185 z"
         id="path2070" />
      <path
         d="m 38.92283,119.48218 0.632519,-3.03031 h 0.374137 l -0.632519,3.03031 z"
         id="path2072" />
      <path
         d="m 40.423513,116.87562 0.08888,-0.42375 h 0.37207 l -0.08888,0.42375 z m -0.545703,2.60656 0.458886,-2.19522 h 0.374137 l -0.458886,2.19522 z"
         id="path2074" />
      <path
         d="m 42.347942,118.68223 0.374137,0.0393 q -0.14056,0.41135 -0.401009,0.61185 -0.258382,0.19844 -0.589111,0.19844 -0.3576,0 -0.580842,-0.23151 -0.221175,-0.23151 -0.221175,-0.64699 0,-0.35967 0.142626,-0.70693 0.142627,-0.34727 0.40721,-0.5271 0.266651,-0.1819 0.607715,-0.1819 0.353466,0 0.560172,0.2005 0.206705,0.19844 0.206705,0.5271 l -0.367936,0.0248 q -0.0021,-0.20877 -0.121956,-0.32659 -0.117822,-0.11782 -0.312125,-0.11782 -0.225309,0 -0.390674,0.14262 -0.165364,0.14263 -0.260449,0.43409 -0.09302,0.28938 -0.09302,0.5581 0,0.28112 0.124023,0.42168 0.124023,0.14056 0.305924,0.14056 0.181901,0 0.347266,-0.13849 0.167431,-0.1385 0.262516,-0.42168 z"
         id="path2076" />
      <path
         d="m 44.561758,118.73597 0.363802,0.0372 q -0.07855,0.27078 -0.361735,0.51469 -0.281119,0.24392 -0.671793,0.24392 -0.243912,0 -0.448551,-0.11162 -0.202571,-0.11369 -0.310058,-0.32867 -0.10542,-0.21497 -0.10542,-0.48989 0,-0.35967 0.165364,-0.6966 0.167432,-0.33899 0.432015,-0.50229 0.264583,-0.16536 0.572574,-0.16536 0.392741,0 0.626318,0.24391 0.235645,0.24391 0.235645,0.66559 0,0.16123 -0.02894,0.33073 h -1.616438 q -0.0083,0.0641 -0.0083,0.11575 0,0.308 0.14056,0.47129 0.142627,0.16123 0.347265,0.16123 0.192236,0 0.378271,-0.12609 0.186035,-0.12609 0.289388,-0.3638 z m -1.087271,-0.54363 h 1.231965 q 0.0021,-0.0579 0.0021,-0.0827 0,-0.28112 -0.14056,-0.42994 -0.140559,-0.1509 -0.361734,-0.1509 -0.239779,0 -0.438216,0.16536 -0.19637,0.16537 -0.293522,0.49817 z"
         id="path2078" />
    </g>
    <path
       style="fill:none;stroke:#808080;stroke-width:0.396874px;stroke-linecap:butt;stroke-linejoin:miter;stroke-opacity:1"
       d="M 39.676455,154.97555 H 151.37099"
       id="path38405-1-4" />
    <g
       aria-label="all-extension"
       id="text7734-97-0-5"
       style="font-style:italic;font-size:4.23333px;line-height:1.25;font-family:Arial;-inkscape-font-specification:'Arial Italic';stroke-width:0.264583"
       transform="matrix(1.5,0,0,1.5,-44.433594,-40.795934)">
      <path
         d="m 32.669987,130.5572 q -0.194303,0.16743 -0.374137,0.24598 -0.179834,0.0765 -0.384472,0.0765 -0.303857,0 -0.489892,-0.17777 -0.186035,-0.17983 -0.186035,-0.45889 0,-0.18396 0.08268,-0.32452 0.08475,-0.14263 0.223242,-0.22738 0.138493,-0.0868 0.338997,-0.12402 0.12609,-0.0248 0.47749,-0.0393 0.353466,-0.0145 0.506428,-0.0744 0.04341,-0.15296 0.04341,-0.25425 0,-0.13022 -0.09508,-0.20464 -0.130225,-0.10335 -0.380338,-0.10335 -0.235645,0 -0.38654,0.10542 -0.148828,0.10335 -0.21704,0.29559 l -0.378272,-0.0331 q 0.115755,-0.3266 0.365869,-0.50023 0.252181,-0.17363 0.634586,-0.17363 0.40721,0 0.644922,0.1943 0.1819,0.14469 0.1819,0.3762 0,0.1757 -0.05168,0.40721 l -0.121956,0.54571 q -0.05788,0.26044 -0.05788,0.42374 0,0.10335 0.04547,0.29766 h -0.378271 q -0.03101,-0.10749 -0.04341,-0.27285 z m 0.138493,-0.83923 q -0.07855,0.031 -0.169499,0.0475 -0.08888,0.0165 -0.299723,0.0351 -0.326595,0.0289 -0.460953,0.0744 -0.134359,0.0434 -0.202572,0.14056 -0.06821,0.0971 -0.06821,0.21497 0,0.1571 0.107486,0.25838 0.109554,0.10129 0.310059,0.10129 0.186035,0 0.3576,-0.0971 0.171566,-0.0992 0.270785,-0.27492 0.09922,-0.1757 0.155029,-0.50023 z"
         id="path2081" />
      <path
         d="m 33.515413,130.83005 0.632519,-3.03031 h 0.374137 l -0.632519,3.03031 z"
         id="path2083" />
      <path
         d="m 34.455923,130.83005 0.632519,-3.03031 h 0.374137 l -0.632519,3.03031 z"
         id="path2085" />
      <path
         d="m 35.481183,129.92054 0.07855,-0.37413 h 1.141015 l -0.07648,0.37413 z"
         id="path2087" />
      <path
         d="m 38.447407,130.08384 0.363802,0.0372 q -0.07855,0.27078 -0.361735,0.51469 -0.281119,0.24392 -0.671793,0.24392 -0.243912,0 -0.448551,-0.11162 -0.202571,-0.11369 -0.310058,-0.32867 -0.10542,-0.21497 -0.10542,-0.48989 0,-0.35967 0.165365,-0.6966 0.167431,-0.33899 0.432014,-0.50229 0.264583,-0.16536 0.572575,-0.16536 0.39274,0 0.626317,0.24391 0.235645,0.24391 0.235645,0.66559 0,0.16123 -0.02894,0.33073 h -1.616437 q -0.0083,0.0641 -0.0083,0.11575 0,0.30799 0.14056,0.47129 0.142627,0.16123 0.347265,0.16123 0.192237,0 0.378272,-0.12609 0.186035,-0.12609 0.289387,-0.3638 z m -1.087271,-0.54364 h 1.231965 q 0.0021,-0.0579 0.0021,-0.0827 0,-0.28112 -0.140559,-0.42994 -0.14056,-0.1509 -0.361735,-0.1509 -0.239779,0 -0.438216,0.16536 -0.19637,0.16537 -0.293522,0.49816 z"
         id="path2089" />
      <path
         d="m 39.042719,130.83005 0.95498,-1.11415 -0.54777,-1.08107 h 0.413412 l 0.186035,0.39068 q 0.103352,0.21911 0.186035,0.41961 l 0.632519,-0.81029 h 0.456819 l -0.921907,1.11001 0.553971,1.08521 h -0.413411 l -0.219108,-0.44649 q -0.07028,-0.14262 -0.159163,-0.35346 l -0.65319,0.79995 z"
         id="path2091" />
      <path
         d="m 42.18051,130.52619 -0.06201,0.30592 q -0.134358,0.0351 -0.260449,0.0351 -0.223242,0 -0.355533,-0.10955 -0.09922,-0.0827 -0.09922,-0.22531 0,-0.0724 0.05374,-0.33279 l 0.266651,-1.27538 H 41.4281 l 0.05994,-0.28939 h 0.295589 l 0.113688,-0.5395 0.427881,-0.25838 -0.167432,0.79788 h 0.367936 l -0.06201,0.28939 h -0.365868 l -0.254248,1.21336 q -0.04754,0.23151 -0.04754,0.27699 0,0.0661 0.03721,0.10129 0.03927,0.0351 0.126091,0.0351 0.124023,0 0.221175,-0.0248 z"
         id="path2093" />
      <path
         d="m 44.094603,130.08384 0.363802,0.0372 q -0.07855,0.27078 -0.361735,0.51469 -0.28112,0.24392 -0.671793,0.24392 -0.243913,0 -0.448551,-0.11162 -0.202572,-0.11369 -0.310059,-0.32867 -0.105419,-0.21497 -0.105419,-0.48989 0,-0.35967 0.165364,-0.6966 0.167431,-0.33899 0.432015,-0.50229 0.264583,-0.16536 0.572574,-0.16536 0.392741,0 0.626318,0.24391 0.235644,0.24391 0.235644,0.66559 0,0.16123 -0.02894,0.33073 h -1.616437 q -0.0083,0.0641 -0.0083,0.11575 0,0.30799 0.140559,0.47129 0.142627,0.16123 0.347266,0.16123 0.192236,0 0.378271,-0.12609 0.186035,-0.12609 0.289388,-0.3638 z m -1.087271,-0.54364 h 1.231965 q 0.0021,-0.0579 0.0021,-0.0827 0,-0.28112 -0.14056,-0.42994 -0.14056,-0.1509 -0.361735,-0.1509 -0.239778,0 -0.438216,0.16536 -0.19637,0.16537 -0.293521,0.49816 z"
         id="path2095" />
      <path
         d="m 44.836676,130.83005 0.458887,-2.19522 h 0.338997 l -0.08062,0.38241 q 0.221174,-0.22531 0.413411,-0.32866 0.192236,-0.10335 0.39274,-0.10335 0.26665,0 0.417545,0.14469 0.152963,0.14469 0.152963,0.38654 0,0.12195 -0.05374,0.38447 l -0.279052,1.32912 H 46.22367 l 0.291454,-1.39113 q 0.04341,-0.20257 0.04341,-0.29972 0,-0.10956 -0.07648,-0.17777 -0.07441,-0.0682 -0.21704,-0.0682 -0.287321,0 -0.51263,0.2067 -0.223242,0.20671 -0.328662,0.709 l -0.212907,1.02113 z"
         id="path2097" />
      <path
         d="m 47.226193,130.07971 0.374137,-0.0227 q 0,0.16123 0.04961,0.27492 0.04961,0.11369 0.181901,0.18603 0.134359,0.0724 0.312126,0.0724 0.248046,0 0.37207,-0.0992 0.124023,-0.0992 0.124023,-0.23358 0,-0.0971 -0.07441,-0.18396 -0.07648,-0.0868 -0.374137,-0.21291 -0.295589,-0.12816 -0.378271,-0.17984 -0.138493,-0.0847 -0.208773,-0.19843 -0.07028,-0.11576 -0.07028,-0.26459 0,-0.26044 0.206706,-0.44648 0.206705,-0.18603 0.578775,-0.18603 0.413411,0 0.628385,0.19223 0.217041,0.19017 0.225309,0.5023 l -0.365869,0.0248 q -0.0083,-0.19844 -0.140559,-0.31419 -0.132292,-0.11576 -0.374137,-0.11576 -0.194304,0 -0.30179,0.0889 -0.107487,0.0889 -0.107487,0.19223 0,0.10336 0.09302,0.1819 0.06201,0.0538 0.320394,0.16537 0.429947,0.18603 0.541568,0.29352 0.177767,0.17157 0.177767,0.41755 0,0.16329 -0.101286,0.32039 -0.09922,0.15709 -0.305924,0.25218 -0.204638,0.093 -0.483691,0.093 -0.380338,0 -0.646988,-0.18811 -0.26665,-0.1881 -0.252181,-0.61184 z"
         id="path2099" />
      <path
         d="m 49.838951,128.22349 0.08888,-0.42375 h 0.37207 l -0.08888,0.42375 z m -0.545702,2.60656 0.458886,-2.19522 h 0.374137 l -0.458886,2.19522 z"
         id="path2101" />
      <path
         d="m 50.314373,129.99702 q 0,-0.64285 0.378272,-1.06453 0.312125,-0.34726 0.818554,-0.34726 0.396874,0 0.63872,0.24804 0.243912,0.24805 0.243912,0.66973 0,0.37827 -0.152962,0.70486 -0.152962,0.32453 -0.436148,0.49816 -0.28112,0.17364 -0.593245,0.17364 -0.256315,0 -0.467155,-0.10956 -0.208773,-0.10955 -0.320394,-0.31006 -0.109554,-0.2005 -0.109554,-0.46302 z m 0.374138,-0.0372 q 0,0.31006 0.148828,0.47129 0.148828,0.15916 0.378271,0.15916 0.119889,0 0.237711,-0.0475 0.117822,-0.0496 0.219108,-0.14883 0.101286,-0.0992 0.171566,-0.22531 0.07235,-0.12816 0.115755,-0.27492 0.06408,-0.20464 0.06408,-0.39274 0,-0.29766 -0.150895,-0.46095 -0.148828,-0.16537 -0.376204,-0.16537 -0.175699,0 -0.320393,0.0848 -0.144694,0.0827 -0.262516,0.24391 -0.115756,0.16124 -0.171566,0.37621 -0.05374,0.21291 -0.05374,0.38034 z"
         id="path2103" />
      <path
         d="m 52.602604,130.83005 0.458886,-2.19522 h 0.338997 l -0.08062,0.38241 q 0.221175,-0.22531 0.413411,-0.32866 0.192236,-0.10335 0.39274,-0.10335 0.266651,0 0.417546,0.14469 0.152962,0.14469 0.152962,0.38654 0,0.12195 -0.05374,0.38447 l -0.279052,1.32912 h -0.374137 l 0.291455,-1.39113 q 0.04341,-0.20257 0.04341,-0.29972 0,-0.10956 -0.07648,-0.17777 -0.07441,-0.0682 -0.217041,-0.0682 -0.287321,0 -0.51263,0.2067 -0.223242,0.20671 -0.328662,0.709 l -0.212906,1.02113 z"
         id="path2105" />
    </g>
    <path
       style="fill:none;stroke:#808080;stroke-width:0.396874px;stroke-linecap:butt;stroke-linejoin:miter;stroke-opacity:1"
       d="M 39.676455,87.285185 H 151.37099"
       id="path38405-8" />
    <g
       aria-label="first-last"
       id="text7734-97-4"
       style="font-style:italic;font-size:4.23333px;line-height:1.25;font-family:Arial;-inkscape-font-specification:'Arial Italic';stroke-width:0.264583"
       transform="matrix(1.5,0,0,1.5,-44.433594,-40.795934)">
      <path
         d="m 31.355341,85.43856 0.398942,-1.905825 H 31.41942 l 0.05995,-0.289388 h 0.334863 l 0.06408,-0.312125 q 0.04961,-0.233577 0.101286,-0.33693 0.05374,-0.103353 0.171566,-0.169499 0.119889,-0.06821 0.324527,-0.06821 0.142627,0 0.413411,0.05994 l -0.06821,0.326595 q -0.19017,-0.04961 -0.318327,-0.04961 -0.109554,0 -0.167431,0.05581 -0.05581,0.05374 -0.09715,0.258382 l -0.04961,0.235644 h 0.417545 l -0.05994,0.289388 h -0.41756 l -0.398942,1.905825 z"
         id="path2108" />
      <path
         d="m 33.011053,82.832003 0.08888,-0.423746 h 0.37207 l -0.08888,0.423746 z m -0.545703,2.606557 0.458886,-2.195213 h 0.374137 l -0.458886,2.195213 z"
         id="path2110" />
      <path
         d="m 33.42033,85.43856 0.458886,-2.195213 h 0.330729 l -0.09302,0.448552 q 0.169499,-0.254248 0.330729,-0.376205 0.163298,-0.121956 0.332796,-0.121956 0.111621,0 0.274919,0.08062 l -0.152962,0.347266 q -0.09715,-0.07028 -0.212907,-0.07028 -0.19637,0 -0.403076,0.219108 -0.206706,0.219108 -0.324528,0.787548 l -0.186035,0.880565 z"
         id="path2112" />
      <path
         d="m 34.865201,84.688219 0.374138,-0.02274 q 0,0.16123 0.04961,0.274918 0.04961,0.113688 0.181901,0.186035 0.134358,0.07235 0.312125,0.07235 0.248047,0 0.37207,-0.09922 0.124023,-0.09922 0.124023,-0.233577 0,-0.09715 -0.07441,-0.183968 -0.07648,-0.08682 -0.374137,-0.212907 -0.295589,-0.128157 -0.378271,-0.179833 -0.138492,-0.08475 -0.208772,-0.198438 -0.07028,-0.115755 -0.07028,-0.264583 0,-0.260449 0.206705,-0.446484 0.206706,-0.186035 0.578776,-0.186035 0.413411,0 0.628385,0.192236 0.217041,0.190169 0.225309,0.502295 l -0.365869,0.0248 q -0.0083,-0.198437 -0.14056,-0.314192 -0.132291,-0.115755 -0.374137,-0.115755 -0.194303,0 -0.30179,0.08888 -0.107487,0.08888 -0.107487,0.192236 0,0.103353 0.09302,0.181901 0.06201,0.05374 0.320393,0.165365 0.429948,0.186035 0.541569,0.293522 0.177767,0.171565 0.177767,0.417545 0,0.163297 -0.101286,0.320394 -0.09922,0.157096 -0.305924,0.25218 -0.204639,0.09302 -0.483691,0.09302 -0.380339,0 -0.646989,-0.188102 -0.26665,-0.188102 -0.252181,-0.611849 z"
         id="path2114" />
      <path
         d="m 37.821091,85.134703 -0.06201,0.305925 q -0.134358,0.03514 -0.260449,0.03514 -0.223242,0 -0.355533,-0.109553 -0.09922,-0.08268 -0.09922,-0.22531 0,-0.07235 0.05374,-0.332795 l 0.266651,-1.275374 h -0.295589 l 0.05994,-0.289388 h 0.295589 l 0.113688,-0.539501 0.427881,-0.258382 -0.167432,0.797883 h 0.367936 l -0.06201,0.289388 h -0.365869 l -0.254248,1.213362 q -0.04754,0.23151 -0.04754,0.276985 0,0.06615 0.03721,0.101286 0.03927,0.03514 0.12609,0.03514 0.124023,0 0.221175,-0.02481 z"
         id="path2116" />
      <path
         d="m 38.178692,84.529056 0.07855,-0.374137 h 1.141014 l -0.07648,0.374137 z"
         id="path2118" />
      <path
         d="m 39.503675,85.43856 0.632519,-3.030303 h 0.374137 l -0.632519,3.030303 z"
         id="path2120" />
      <path
         d="m 41.953135,85.165709 q -0.194303,0.167432 -0.374137,0.24598 -0.179834,0.07648 -0.384472,0.07648 -0.303858,0 -0.489893,-0.177767 -0.186035,-0.179834 -0.186035,-0.458886 0,-0.183968 0.08268,-0.324528 0.08475,-0.142627 0.223242,-0.227376 0.138492,-0.08682 0.338997,-0.124023 0.12609,-0.02481 0.47749,-0.03928 0.353466,-0.01447 0.506428,-0.07441 0.04341,-0.152962 0.04341,-0.254247 0,-0.130225 -0.09508,-0.204639 -0.130225,-0.103353 -0.380338,-0.103353 -0.235645,0 -0.38654,0.10542 -0.148828,0.103353 -0.217041,0.295589 l -0.378271,-0.03307 q 0.115755,-0.326595 0.365869,-0.500227 0.252181,-0.173633 0.634586,-0.173633 0.40721,0 0.644921,0.194303 0.181901,0.144694 0.181901,0.376204 0,0.1757 -0.05168,0.40721 l -0.121956,0.545703 q -0.05788,0.260449 -0.05788,0.423746 0,0.103353 0.04548,0.297656 h -0.378271 q -0.03101,-0.107486 -0.04341,-0.272851 z m 0.138493,-0.839224 q -0.07855,0.031 -0.169499,0.04754 -0.08888,0.01654 -0.299723,0.03514 -0.326595,0.02894 -0.460953,0.07441 -0.134359,0.04341 -0.202572,0.14056 -0.06821,0.09715 -0.06821,0.214973 0,0.157097 0.107487,0.258382 0.109554,0.101286 0.310059,0.101286 0.186035,0 0.3576,-0.09715 0.171566,-0.09922 0.270785,-0.274918 0.09922,-0.1757 0.155029,-0.500227 z"
         id="path2122" />
      <path
         d="m 42.862639,84.688219 0.374137,-0.02274 q 0,0.16123 0.04961,0.274918 0.04961,0.113688 0.181901,0.186035 0.134359,0.07235 0.312126,0.07235 0.248046,0 0.37207,-0.09922 0.124023,-0.09922 0.124023,-0.233577 0,-0.09715 -0.07441,-0.183968 -0.07648,-0.08682 -0.374137,-0.212907 -0.295589,-0.128157 -0.378271,-0.179833 -0.138493,-0.08475 -0.208773,-0.198438 -0.07028,-0.115755 -0.07028,-0.264583 0,-0.260449 0.206706,-0.446484 0.206705,-0.186035 0.578775,-0.186035 0.413411,0 0.628385,0.192236 0.217041,0.190169 0.225309,0.502295 l -0.365869,0.0248 q -0.0083,-0.198437 -0.140559,-0.314192 -0.132292,-0.115755 -0.374137,-0.115755 -0.194304,0 -0.30179,0.08888 -0.107487,0.08888 -0.107487,0.192236 0,0.103353 0.09302,0.181901 0.06201,0.05374 0.320394,0.165365 0.429947,0.186035 0.541568,0.293522 0.177767,0.171565 0.177767,0.417545 0,0.163297 -0.101286,0.320394 -0.09922,0.157096 -0.305924,0.25218 -0.204638,0.09302 -0.483691,0.09302 -0.380338,0 -0.646988,-0.188102 -0.26665,-0.188102 -0.252181,-0.611849 z"
         id="path2124" />
      <path
         d="m 45.818528,85.134703 -0.06201,0.305925 q -0.134359,0.03514 -0.260449,0.03514 -0.223242,0 -0.355534,-0.109553 -0.09922,-0.08268 -0.09922,-0.22531 0,-0.07235 0.05374,-0.332795 l 0.26665,-1.275374 H 45.06612 l 0.05994,-0.289388 h 0.295589 l 0.113688,-0.539501 0.42788,-0.258382 -0.167431,0.797883 h 0.367936 l -0.06201,0.289388 h -0.365869 l -0.254248,1.213362 q -0.04754,0.23151 -0.04754,0.276985 0,0.06615 0.03721,0.101286 0.03927,0.03514 0.12609,0.03514 0.124024,0 0.221175,-0.02481 z"
         id="path2126" />
    </g>
    <path
       style="fill:none;stroke:#000000;stroke-width:1.2975;stroke-linecap:butt;stroke-linejoin:miter;stroke-miterlimit:4;stroke-dasharray:none;stroke-opacity:1"
       d="m 47.727771,80.608646 v 6.478102"
       id="path45278-0" />
    <path
       style="fill:none;stroke:#000000;stroke-width:1.2975;stroke-linecap:butt;stroke-linejoin:miter;stroke-miterlimit:4;stroke-dasharray:none;stroke-opacity:1"
       d="m 73.21895,80.608646 v 6.478102"
       id="path45278-1-3" />
    <path
       style="fill:none;stroke:#000000;stroke-width:1.2975;stroke-linecap:butt;stroke-linejoin:miter;stroke-miterlimit:4;stroke-dasharray:none;stroke-opacity:1"
       d="m 79.591746,80.608646 v 6.478102"
       id="path45278-9-7" />
    <path
       style="fill:none;stroke:#000000;stroke-width:1.2975;stroke-linecap:butt;stroke-linejoin:miter;stroke-miterlimit:4;stroke-dasharray:none;stroke-opacity:1"
       d="m 143.31968,80.608646 v 6.478102"
       id="path45278-9-4" />
    <path
       style="fill:none;stroke:#808080;stroke-width:0.396874px;stroke-linecap:butt;stroke-linejoin:miter;stroke-opacity:1"
       d="M 39.676455,104.30699 H 151.37099"
       id="path38405-1" />
    <g
       aria-label="position x
"
       id="text7734-97-0"
       style="font-style:italic;font-size:4.23333px;line-height:1.25;font-family:Arial;-inkscape-font-specification:'Arial Italic';stroke-width:0.264583"
       transform="matrix(1.5,0,0,1.5,-44.433594,-40.795934)">
      <path
         d="m 30.879918,97.725592 0.634586,-3.036505 h 0.345199 l -0.06408,0.305924 q 0.192236,-0.200504 0.343131,-0.276985 0.152962,-0.07855 0.322461,-0.07855 0.314192,0 0.520898,0.229443 0.206705,0.227376 0.206705,0.65319 0,0.343131 -0.113688,0.626317 -0.113688,0.28112 -0.279052,0.452686 -0.165365,0.171565 -0.334863,0.25218 -0.169499,0.08062 -0.347266,0.08062 -0.394807,0 -0.611848,-0.401009 l -0.248047,1.192691 z m 0.740006,-1.738394 q 0,0.24598 0.03514,0.341064 0.05168,0.134359 0.169499,0.217041 0.117822,0.08268 0.272851,0.08268 0.322461,0 0.520898,-0.361734 0.198437,-0.363802 0.198437,-0.742073 0,-0.279053 -0.134358,-0.429948 -0.132292,-0.152962 -0.330729,-0.152962 -0.142627,0 -0.264583,0.07648 -0.121957,0.07441 -0.227376,0.225309 -0.103353,0.148828 -0.171566,0.365869 -0.06821,0.217041 -0.06821,0.378271 z"
         id="path2129" />
      <path
         d="m 33.484408,96.051277 q 0,-0.642854 0.378272,-1.064534 0.312125,-0.347265 0.818554,-0.347265 0.396874,0 0.63872,0.248047 0.243912,0.248046 0.243912,0.669726 0,0.378271 -0.152962,0.704866 -0.152962,0.324527 -0.436149,0.49816 -0.281119,0.173633 -0.593245,0.173633 -0.256314,0 -0.467154,-0.109554 -0.208773,-0.109554 -0.320394,-0.310059 -0.109554,-0.200504 -0.109554,-0.46302 z m 0.374137,-0.03721 q 0,0.310058 0.148828,0.471289 0.148828,0.159163 0.378272,0.159163 0.119889,0 0.237711,-0.04754 0.117822,-0.04961 0.219108,-0.148828 0.101286,-0.09922 0.171565,-0.22531 0.07235,-0.128157 0.115756,-0.274918 0.06408,-0.204638 0.06408,-0.39274 0,-0.297656 -0.150895,-0.460954 -0.148828,-0.165364 -0.376204,-0.165364 -0.1757,0 -0.320393,0.08475 -0.144694,0.08268 -0.262517,0.243913 -0.115755,0.16123 -0.171565,0.376204 -0.05374,0.212906 -0.05374,0.380338 z"
         id="path2131" />
      <path
         d="m 35.807779,96.133959 0.374137,-0.02274 q 0,0.161231 0.04961,0.274919 0.04961,0.113688 0.181901,0.186035 0.134359,0.07235 0.312126,0.07235 0.248046,0 0.37207,-0.09922 0.124023,-0.09922 0.124023,-0.233577 0,-0.09715 -0.07441,-0.183968 -0.07648,-0.08682 -0.374137,-0.212907 -0.295589,-0.128157 -0.378271,-0.179834 -0.138493,-0.08475 -0.208773,-0.198437 -0.07028,-0.115755 -0.07028,-0.264583 0,-0.260449 0.206706,-0.446484 0.206705,-0.186035 0.578775,-0.186035 0.413411,0 0.628385,0.192236 0.217041,0.190169 0.225309,0.502295 l -0.365869,0.0248 q -0.0083,-0.198437 -0.140559,-0.314192 -0.132292,-0.115755 -0.374137,-0.115755 -0.194304,0 -0.301791,0.08888 -0.107486,0.08888 -0.107486,0.192236 0,0.103353 0.09302,0.181901 0.06201,0.05374 0.320394,0.165365 0.429947,0.186035 0.541568,0.293521 0.177767,0.171566 0.177767,0.417546 0,0.163297 -0.101286,0.320393 -0.09922,0.157097 -0.305924,0.252181 -0.204638,0.09302 -0.483691,0.09302 -0.380338,0 -0.646988,-0.188102 -0.266651,-0.188103 -0.252181,-0.611849 z"
         id="path2133" />
      <path
         d="m 38.420537,94.277743 0.08888,-0.423746 h 0.37207 l -0.08888,0.423746 z m -0.545703,2.606557 0.458887,-2.195213 h 0.374137 L 38.248971,96.8843 Z"
         id="path2135" />
      <path
         d="m 39.704179,96.580443 -0.06201,0.305924 q -0.134359,0.03514 -0.260449,0.03514 -0.223242,0 -0.355534,-0.109554 -0.09922,-0.08268 -0.09922,-0.225309 0,-0.07235 0.05374,-0.332796 l 0.26665,-1.275373 H 38.95177 l 0.05994,-0.289388 h 0.295589 l 0.113688,-0.539501 0.42788,-0.258382 -0.167431,0.797883 h 0.367936 l -0.06201,0.289388 h -0.365869 l -0.254247,1.213362 q -0.04754,0.23151 -0.04754,0.276985 0,0.06615 0.03721,0.101286 0.03927,0.03514 0.126091,0.03514 0.124023,0 0.221175,-0.02481 z"
         id="path2137" />
      <path
         d="m 40.537202,94.277743 0.08888,-0.423746 h 0.37207 l -0.08888,0.423746 z m -0.545703,2.606557 0.458887,-2.195213 h 0.374137 L 40.365636,96.8843 Z"
         id="path2139" />
      <path
         d="m 41.012625,96.051277 q 0,-0.642854 0.378271,-1.064534 0.312126,-0.347265 0.818554,-0.347265 0.396875,0 0.638721,0.248047 0.243912,0.248046 0.243912,0.669726 0,0.378271 -0.152962,0.704866 -0.152962,0.324527 -0.436149,0.49816 -0.281119,0.173633 -0.593245,0.173633 -0.256315,0 -0.467154,-0.109554 -0.208773,-0.109554 -0.320394,-0.310059 -0.109554,-0.200504 -0.109554,-0.46302 z m 0.374137,-0.03721 q 0,0.310058 0.148828,0.471289 0.148828,0.159163 0.378271,0.159163 0.11989,0 0.237712,-0.04754 0.117822,-0.04961 0.219108,-0.148828 0.101285,-0.09922 0.171565,-0.22531 0.07235,-0.128157 0.115755,-0.274918 0.06408,-0.204638 0.06408,-0.39274 0,-0.297656 -0.150895,-0.460954 -0.148828,-0.165364 -0.376204,-0.165364 -0.1757,0 -0.320394,0.08475 -0.144694,0.08268 -0.262516,0.243913 -0.115755,0.16123 -0.171565,0.376204 -0.05374,0.212906 -0.05374,0.380338 z"
         id="path2141" />
      <path
         d="m 43.300855,96.8843 0.458887,-2.195213 h 0.338997 l -0.08062,0.382406 q 0.221174,-0.22531 0.413411,-0.328662 0.192236,-0.103353 0.39274,-0.103353 0.26665,0 0.417545,0.144694 0.152963,0.144694 0.152963,0.386539 0,0.121956 -0.05374,0.384473 L 45.061987,96.8843 H 44.68785 l 0.291454,-1.391128 q 0.04341,-0.202572 0.04341,-0.299723 0,-0.109554 -0.07648,-0.177767 -0.07441,-0.06821 -0.21704,-0.06821 -0.287321,0 -0.51263,0.206706 -0.223242,0.206705 -0.328662,0.709 l -0.21291,1.021122 z"
         id="path2143" />
      <path
         d="m 46.684625,96.8843 0.95498,-1.114143 -0.54777,-1.08107 h 0.413411 l 0.186035,0.390674 q 0.103353,0.219108 0.186035,0.419612 l 0.632519,-0.810286 h 0.45682 l -0.921907,1.110009 0.553971,1.085204 H 48.185308 L 47.9662,96.437816 Q 47.89592,96.295189 47.807036,96.08435 l -0.653189,0.79995 z"
         id="path2145" />
    </g>
    <path
       style="fill:none;stroke:#000000;stroke-width:1.2975;stroke-linecap:butt;stroke-linejoin:miter;stroke-miterlimit:4;stroke-dasharray:none;stroke-opacity:1"
       d="m 63.659758,97.630451 v 6.478099"
       id="path45278-3" />
    <path
       style="fill:none;stroke:#000000;stroke-width:1.2975;stroke-linecap:butt;stroke-linejoin:miter;stroke-miterlimit:4;stroke-dasharray:none;stroke-opacity:1"
       d="m 108.26932,97.630451 v 6.478099"
       id="path45278-1-2" />
    <g
       aria-label="x=50%"
       id="text7734-7-4"
       style="font-size:4.23333px;line-height:1.25;font-family:Arial;-inkscape-font-specification:Arial;stroke-width:0.264583"
       transform="matrix(1.5,0,0,1.5,-44.433594,-40.795934)">
      <path
         d="m 133.47578,96.78643 0.80202,-1.141014 -0.74207,-1.054199 h 0.46509 l 0.33693,0.514697 q 0.0951,0.146761 0.15296,0.24598 0.0909,-0.136426 0.16743,-0.241846 l 0.37,-0.518831 h 0.44442 l -0.75861,1.033528 0.81649,1.161685 h -0.45682 l -0.45062,-0.682128 -0.11989,-0.183968 -0.57671,0.866096 z"
         id="path2148" />
      <path
         d="m 137.798,95.004628 h -2.00091 v -0.347265 h 2.00091 z m 0,0.91984 h -2.00091 v -0.347265 h 2.00091 z"
         id="path2150" />
      <path
         d="m 138.20934,95.992681 0.39068,-0.03307 q 0.0434,0.285254 0.2005,0.429948 0.15916,0.142627 0.3824,0.142627 0.26872,0 0.45476,-0.202572 0.18603,-0.202571 0.18603,-0.537434 0,-0.318327 -0.17983,-0.502295 -0.17777,-0.183968 -0.46716,-0.183968 -0.17983,0 -0.32452,0.08268 -0.1447,0.08062 -0.22738,0.21084 l -0.34933,-0.04547 0.29352,-1.556493 h 1.50688 v 0.355534 h -1.20922 l -0.1633,0.814419 q 0.27285,-0.190169 0.57257,-0.190169 0.39688,0 0.66973,0.274919 0.27285,0.274918 0.27285,0.706933 0,0.411344 -0.23978,0.711067 -0.29145,0.367936 -0.79582,0.367936 -0.41341,0 -0.67592,-0.23151 -0.26045,-0.231511 -0.29766,-0.613916 z"
         id="path2152" />
      <path
         d="m 140.56372,95.291949 q 0,-0.537434 0.10955,-0.864029 0.11162,-0.328662 0.32866,-0.506429 0.21911,-0.177766 0.54984,-0.177766 0.24391,0 0.42788,0.09922 0.18397,0.09715 0.30386,0.283187 0.11989,0.183968 0.1881,0.450618 0.0682,0.264583 0.0682,0.715201 0,0.533301 -0.10955,0.861962 -0.10955,0.326595 -0.32866,0.506429 -0.21704,0.177767 -0.54984,0.177767 -0.43822,0 -0.68833,-0.314193 -0.29972,-0.378271 -0.29972,-1.231965 z m 0.3824,0 q 0,0.746207 0.17364,0.994254 0.1757,0.24598 0.43201,0.24598 0.25632,0 0.42995,-0.248047 0.1757,-0.248047 0.1757,-0.992187 0,-0.748274 -0.1757,-0.994254 -0.17363,-0.245979 -0.43408,-0.245979 -0.25632,0 -0.40928,0.217041 -0.19224,0.276985 -0.19224,1.023192 z"
         id="path2154" />
      <path
         d="m 142.98837,94.48373 q 0,-0.324527 0.1633,-0.551903 0.1633,-0.227376 0.47336,-0.227376 0.28525,0 0.47129,0.204638 0.1881,0.202571 0.1881,0.597379 0,0.384472 -0.19017,0.593245 -0.1881,0.206706 -0.46509,0.206706 -0.27492,0 -0.45889,-0.204639 -0.1819,-0.204638 -0.1819,-0.61805 z m 0.64699,-0.522965 q -0.13849,0 -0.23151,0.11989 -0.0909,0.119889 -0.0909,0.440282 0,0.291455 0.093,0.411345 0.093,0.117822 0.22944,0.117822 0.14056,0 0.23151,-0.11989 0.093,-0.119889 0.093,-0.438215 0,-0.293522 -0.093,-0.411344 -0.093,-0.11989 -0.23151,-0.11989 z m 0.002,2.937286 1.65778,-3.1936 h 0.30179 l -1.65158,3.1936 z m 1.31051,-0.822688 q 0,-0.326595 0.1633,-0.551904 0.1633,-0.227376 0.47542,-0.227376 0.28526,0 0.47129,0.204639 0.1881,0.202571 0.1881,0.597379 0,0.384472 -0.19017,0.593245 -0.1881,0.206705 -0.46715,0.206705 -0.27492,0 -0.45889,-0.204638 -0.1819,-0.206706 -0.1819,-0.61805 z m 0.64906,-0.522965 q -0.14056,0 -0.23358,0.119889 -0.0909,0.11989 -0.0909,0.440283 0,0.289388 0.093,0.409277 0.093,0.119889 0.22944,0.119889 0.14263,0 0.23358,-0.119889 0.093,-0.119889 0.093,-0.438216 0,-0.293521 -0.093,-0.411344 -0.093,-0.119889 -0.23151,-0.119889 z"
         id="path2156" />
    </g>
    <path
       style="fill:none;stroke:#000000;stroke-width:1.2975;stroke-linecap:butt;stroke-linejoin:miter;stroke-miterlimit:4;stroke-dasharray:none;stroke-opacity:1"
       d="m 47.727769,114.65226 v 6.4781"
       id="path45278-9-5" />
    <path
       style="fill:none;stroke:#000000;stroke-width:1.2975;stroke-linecap:butt;stroke-linejoin:miter;stroke-miterlimit:4;stroke-dasharray:none;stroke-opacity:1"
       d="m 73.218939,114.65226 v 6.4781"
       id="path45278-1-4-4" />
    <path
       style="fill:none;stroke:#000000;stroke-width:1.2975;stroke-linecap:butt;stroke-linejoin:miter;stroke-miterlimit:4;stroke-dasharray:none;stroke-opacity:1"
       d="m 54.100562,114.65226 v 6.4781"
       id="path45278-9-5-7" />
    <path
       style="fill:none;stroke:#000000;stroke-width:1.2975;stroke-linecap:butt;stroke-linejoin:miter;stroke-miterlimit:4;stroke-dasharray:none;stroke-opacity:1"
       d="m 60.473351,114.65226 v 6.4781"
       id="path45278-9-5-8" />
    <path
       style="fill:none;stroke:#000000;stroke-width:1.2975;stroke-linecap:butt;stroke-linejoin:miter;stroke-miterlimit:4;stroke-dasharray:none;stroke-opacity:1"
       d="m 66.846145,114.65226 v 6.4781"
       id="path45278-9-5-6" />
    <path
       style="fill:none;stroke:#000000;stroke-width:1.2975;stroke-linecap:butt;stroke-linejoin:miter;stroke-miterlimit:4;stroke-dasharray:none;stroke-opacity:1"
       d="m 79.591734,114.65226 v 6.4781"
       id="path45278-9-5-88" />
    <path
       style="fill:none;stroke:#000000;stroke-width:1.2975;stroke-linecap:butt;stroke-linejoin:miter;stroke-miterlimit:4;stroke-dasharray:none;stroke-opacity:1"
       d="m 85.964527,114.65226 v 6.4781"
       id="path45278-9-5-4" />
    <path
       style="fill:none;stroke:#000000;stroke-width:1.2975;stroke-linecap:butt;stroke-linejoin:miter;stroke-miterlimit:4;stroke-dasharray:none;stroke-opacity:1"
       d="m 92.337322,114.65226 v 6.4781"
       id="path45278-9-5-3" />
    <path
       style="fill:none;stroke:#000000;stroke-width:1.2975;stroke-linecap:butt;stroke-linejoin:miter;stroke-miterlimit:4;stroke-dasharray:none;stroke-opacity:1"
       d="m 98.710116,114.65226 v 6.4781"
       id="path45278-9-5-7-3" />
    <path
       style="fill:none;stroke:#000000;stroke-width:1.2975;stroke-linecap:butt;stroke-linejoin:miter;stroke-miterlimit:4;stroke-dasharray:none;stroke-opacity:1"
       d="m 105.08291,114.65226 v 6.4781"
       id="path45278-9-5-70" />
    <path
       style="fill:none;stroke:#000000;stroke-width:1.2975;stroke-linecap:butt;stroke-linejoin:miter;stroke-miterlimit:4;stroke-dasharray:none;stroke-opacity:1"
       d="m 130.57409,114.65226 v 6.4781"
       id="path45278-1-4-4-9" />
    <path
       style="fill:none;stroke:#000000;stroke-width:1.2975;stroke-linecap:butt;stroke-linejoin:miter;stroke-miterlimit:4;stroke-dasharray:none;stroke-opacity:1"
       d="m 111.45571,114.65226 v 6.4781"
       id="path45278-9-5-7-36" />
    <path
       style="fill:none;stroke:#000000;stroke-width:1.2975;stroke-linecap:butt;stroke-linejoin:miter;stroke-miterlimit:4;stroke-dasharray:none;stroke-opacity:1"
       d="m 117.8285,114.65226 v 6.4781"
       id="path45278-9-5-8-0" />
    <path
       style="fill:none;stroke:#000000;stroke-width:1.2975;stroke-linecap:butt;stroke-linejoin:miter;stroke-miterlimit:4;stroke-dasharray:none;stroke-opacity:1"
       d="m 124.2013,114.65226 v 6.4781"
       id="path45278-9-5-6-62" />
    <path
       style="fill:none;stroke:#000000;stroke-width:1.2975;stroke-linecap:butt;stroke-linejoin:miter;stroke-miterlimit:4;stroke-dasharray:none;stroke-opacity:1"
       d="m 136.94689,114.65226 v 6.4781"
       id="path45278-9-5-88-6" />
    <path
       style="fill:none;stroke:#000000;stroke-width:1.2975;stroke-linecap:butt;stroke-linejoin:miter;stroke-miterlimit:4;stroke-dasharray:none;stroke-opacity:1"
       d="m 143.31968,114.65226 v 6.4781"
       id="path45278-9-5-4-1" />
    <path
       style="fill:none;stroke:#000000;stroke-width:1.2975;stroke-linecap:butt;stroke-linejoin:miter;stroke-miterlimit:4;stroke-dasharray:none;stroke-opacity:1"
       d="m 47.727771,131.67407 v 6.47811"
       id="path45278-0-9" />
    <path
       style="fill:none;stroke:#000000;stroke-width:1.2975;stroke-linecap:butt;stroke-linejoin:miter;stroke-miterlimit:4;stroke-dasharray:none;stroke-opacity:1"
       d="m 73.21895,131.67407 v 6.47811"
       id="path45278-1-3-3" />
    <path
       style="fill:none;stroke:#000000;stroke-width:1.2975;stroke-linecap:butt;stroke-linejoin:miter;stroke-miterlimit:4;stroke-dasharray:none;stroke-opacity:1"
       d="m 54.100564,131.67408 v 6.4781"
       id="path45278-9-5-7-2" />
    <path
       style="fill:none;stroke:#000000;stroke-width:1.2975;stroke-linecap:butt;stroke-linejoin:miter;stroke-miterlimit:4;stroke-dasharray:none;stroke-opacity:1"
       d="m 60.473353,131.67408 v 6.4781"
       id="path45278-9-5-8-3" />
    <path
       style="fill:none;stroke:#000000;stroke-width:1.2975;stroke-linecap:butt;stroke-linejoin:miter;stroke-miterlimit:4;stroke-dasharray:none;stroke-opacity:1"
       d="m 66.846146,131.67408 v 6.4781"
       id="path45278-9-5-6-7" />
    <path
       style="fill:none;stroke:#000000;stroke-width:1.2975;stroke-linecap:butt;stroke-linejoin:miter;stroke-miterlimit:4;stroke-dasharray:none;stroke-opacity:1"
       d="m 79.591735,131.67408 v 6.4781"
       id="path45278-9-5-88-5" />
    <path
       style="fill:none;stroke:#000000;stroke-width:1.2975;stroke-linecap:butt;stroke-linejoin:miter;stroke-miterlimit:4;stroke-dasharray:none;stroke-opacity:1"
       d="m 85.964528,131.67408 v 6.4781"
       id="path45278-9-5-4-9" />
    <path
       style="fill:none;stroke:#000000;stroke-width:1.2975;stroke-linecap:butt;stroke-linejoin:miter;stroke-miterlimit:4;stroke-dasharray:none;stroke-opacity:1"
       d="m 92.337323,131.67408 v 6.4781"
       id="path45278-9-5-3-2" />
    <path
       style="fill:none;stroke:#000000;stroke-width:1.2975;stroke-linecap:butt;stroke-linejoin:miter;stroke-miterlimit:4;stroke-dasharray:none;stroke-opacity:1"
       d="m 98.710117,131.67408 v 6.4781"
       id="path45278-9-5-7-3-2" />
    <path
       style="fill:none;stroke:#000000;stroke-width:1.2975;stroke-linecap:butt;stroke-linejoin:miter;stroke-miterlimit:4;stroke-dasharray:none;stroke-opacity:1"
       d="m 130.57409,131.67408 v 6.4781"
       id="path45278-1-4-4-9-9" />
    <path
       style="fill:none;stroke:#000000;stroke-width:1.2975;stroke-linecap:butt;stroke-linejoin:miter;stroke-miterlimit:4;stroke-dasharray:none;stroke-opacity:1"
       d="m 117.8285,131.67408 v 6.4781"
       id="path45278-9-5-8-0-3" />
    <path
       style="fill:none;stroke:#000000;stroke-width:1.2975;stroke-linecap:butt;stroke-linejoin:miter;stroke-miterlimit:4;stroke-dasharray:none;stroke-opacity:1"
       d="m 124.2013,131.67408 v 6.4781"
       id="path45278-9-5-6-62-6" />
    <path
       style="fill:none;stroke:#000000;stroke-width:1.2975;stroke-linecap:butt;stroke-linejoin:miter;stroke-miterlimit:4;stroke-dasharray:none;stroke-opacity:1"
       d="m 136.94689,131.67408 v 6.4781"
       id="path45278-9-5-88-6-1" />
    <path
       style="fill:none;stroke:#000000;stroke-width:1.2975;stroke-linecap:butt;stroke-linejoin:miter;stroke-miterlimit:4;stroke-dasharray:none;stroke-opacity:1"
       d="m 143.31968,131.67408 v 6.4781"
       id="path45278-9-5-4-1-2" />
    <path
       style="fill:none;stroke:#000000;stroke-width:1.2975;stroke-linecap:butt;stroke-linejoin:miter;stroke-miterlimit:4;stroke-dasharray:none;stroke-opacity:1"
       d="m 73.218939,108.32357 v 6.47809"
       id="path45278-1-4-4-3" />
    <path
       style="fill:none;stroke:#000000;stroke-width:1.2975;stroke-linecap:butt;stroke-linejoin:miter;stroke-miterlimit:4;stroke-dasharray:none;stroke-opacity:1"
       d="m 79.591734,108.32357 v 6.47809"
       id="path45278-1-4-4-6" />
    <path
       style="fill:none;stroke:#000000;stroke-width:1.2975;stroke-linecap:butt;stroke-linejoin:miter;stroke-miterlimit:4;stroke-dasharray:none;stroke-opacity:1"
       d="m 73.21895,125.34557 v 6.47809"
       id="path45278-9-5-8-0-3-7" />
    <path
       style="fill:none;stroke:#000000;stroke-width:1.2975;stroke-linecap:butt;stroke-linejoin:miter;stroke-miterlimit:4;stroke-dasharray:none;stroke-opacity:1"
       d="m 79.591735,125.34557 v 6.47809"
       id="path45278-9-5-8-0-3-5" />
    <g
       aria-label="6nt ext."
       id="text7734-7-4-2"
       style="font-size:4.23333px;line-height:1.25;font-family:Arial;-inkscape-font-specification:Arial;stroke-width:0.264583"
       transform="matrix(1.5,0,0,1.5,-44.433594,-40.795934)">
      <path
         d="m 135.44431,128.30843 -0.37,0.0289 q -0.0496,-0.21911 -0.14056,-0.31832 -0.1509,-0.15917 -0.37207,-0.15917 -0.17777,0 -0.31213,0.0992 -0.1757,0.12816 -0.27698,0.37414 -0.10129,0.24598 -0.10542,0.70073 0.13436,-0.20464 0.32866,-0.30386 0.1943,-0.0992 0.40721,-0.0992 0.37207,0 0.63252,0.27492 0.26252,0.27285 0.26252,0.70694 0,0.28525 -0.12403,0.53123 -0.12195,0.24391 -0.33693,0.37414 -0.21497,0.13022 -0.48782,0.13022 -0.46509,0 -0.75861,-0.34106 -0.29352,-0.34313 -0.29352,-1.12862 0,-0.87849 0.32452,-1.27744 0.28319,-0.34726 0.76275,-0.34726 0.3576,0 0.58497,0.2005 0.22945,0.20051 0.27492,0.55397 z m -1.51928,1.30638 q 0,0.19224 0.0806,0.36794 0.0827,0.1757 0.22944,0.26872 0.14677,0.0909 0.308,0.0909 0.23564,0 0.40514,-0.19017 0.1695,-0.19017 0.1695,-0.51677 0,-0.31419 -0.16743,-0.49402 -0.16744,-0.1819 -0.42168,-0.1819 -0.25218,0 -0.42788,0.1819 -0.1757,0.17983 -0.1757,0.47335 z"
         id="path2159" />
      <path
         d="m 135.97141,130.59666 v -2.19521 h 0.33486 v 0.31213 q 0.24185,-0.36174 0.69867,-0.36174 0.19844,0 0.3638,0.0724 0.16743,0.0703 0.25011,0.18603 0.0827,0.11576 0.11576,0.27492 0.0207,0.10336 0.0207,0.36174 v 1.34978 h -0.37207 v -1.33531 q 0,-0.22738 -0.0434,-0.339 -0.0434,-0.11369 -0.15503,-0.17983 -0.10955,-0.0682 -0.25838,-0.0682 -0.23771,0 -0.41134,0.1509 -0.17157,0.15089 -0.17157,0.57257 v 1.19889 z"
         id="path2161" />
      <path
         d="m 139.13814,130.26387 0.0537,0.32866 q -0.15709,0.0331 -0.28112,0.0331 -0.20257,0 -0.31419,-0.0641 -0.11162,-0.0641 -0.15709,-0.16743 -0.0455,-0.10542 -0.0455,-0.44028 v -1.26297 h -0.27285 v -0.28939 h 0.27285 v -0.54363 l 0.37,-0.22325 v 0.76688 h 0.37414 v 0.28939 H 138.764 v 1.28364 q 0,0.15916 0.0186,0.20464 0.0207,0.0455 0.0641,0.0724 0.0455,0.0269 0.12815,0.0269 0.062,0 0.1633,-0.0145 z"
         id="path2163" />
      <path
         d="m 142.18085,129.88973 0.38447,0.0475 q -0.091,0.33693 -0.33693,0.52297 -0.24598,0.18603 -0.62839,0.18603 -0.48162,0 -0.76481,-0.29559 -0.28112,-0.29765 -0.28112,-0.83302 0,-0.55397 0.28526,-0.85989 0.28525,-0.30593 0.74,-0.30593 0.44029,0 0.71934,0.29973 0.27905,0.29972 0.27905,0.84335 0,0.0331 -0.002,0.0992 h -1.6371 q 0.0207,0.36174 0.20463,0.55397 0.18397,0.19224 0.45889,0.19224 0.20464,0 0.34933,-0.10749 0.1447,-0.10748 0.22945,-0.34313 z m -1.22163,-0.60151 h 1.22576 q -0.0248,-0.27699 -0.14056,-0.41548 -0.17777,-0.21497 -0.46095,-0.21497 -0.25632,0 -0.43202,0.17156 -0.17363,0.17157 -0.19223,0.45889 z"
         id="path2165" />
      <path
         d="m 142.78443,130.59666 0.80201,-1.14101 -0.74207,-1.0542 h 0.46509 l 0.33693,0.5147 q 0.0951,0.14676 0.15296,0.24598 0.0909,-0.13643 0.16743,-0.24185 l 0.37,-0.51883 h 0.44442 l -0.75861,1.03353 0.81649,1.16168 h -0.45682 l -0.45062,-0.68212 -0.11989,-0.18397 -0.57671,0.86609 z"
         id="path2167" />
      <path
         d="m 145.96149,130.26387 0.0537,0.32866 q -0.15709,0.0331 -0.28112,0.0331 -0.20257,0 -0.31419,-0.0641 -0.11162,-0.0641 -0.15709,-0.16743 -0.0455,-0.10542 -0.0455,-0.44028 v -1.26297 h -0.27285 v -0.28939 h 0.27285 v -0.54363 l 0.37,-0.22325 v 0.76688 h 0.37414 v 0.28939 h -0.37414 v 1.28364 q 0,0.15916 0.0186,0.20464 0.0207,0.0455 0.0641,0.0724 0.0455,0.0269 0.12815,0.0269 0.062,0 0.1633,-0.0145 z"
         id="path2169" />
      <path
         d="m 146.43071,130.59666 v -0.42374 h 0.42375 v 0.42374 z"
         id="path2171" />
    </g>
  </g>
</svg>
