<?xml version="1.0" encoding="UTF-8" standalone="no"?>
<!-- Created with Inkscape (http://www.inkscape.org/) -->

<svg
   width="338.97195"
   height="157.06609"
   viewBox="0 0 89.686327 41.55707"
   version="1.1"
   id="svg5144"
   xmlns="http://www.w3.org/2000/svg"
   xmlns:svg="http://www.w3.org/2000/svg">
  <defs
     id="defs5141">
    <marker
       style="overflow:visible"
       id="marker6337"
       refX="0"
       refY="0"
       orient="auto">
      <path
         transform="matrix(0.2,0,0,0.2,-1.2,0)"
         style="fill:context-stroke;fill-rule:evenodd;stroke:context-stroke;stroke-width:1pt"
         d="M 0,-7.0710768 -7.0710894,0 0,7.0710589 7.0710462,0 Z"
         id="path6335" />
    </marker>
    <marker
       style="overflow:visible"
       id="DiamondM"
       refX="0"
       refY="0"
       orient="auto">
      <path
         transform="scale(0.4)"
         style="fill:context-stroke;fill-rule:evenodd;stroke:context-stroke;stroke-width:1pt"
         d="M 0,-7.0710768 -7.0710894,0 0,7.0710589 7.0710462,0 Z"
         id="path6113" />
    </marker>
    <marker
       style="overflow:visible"
       id="DiamondSend"
       refX="0"
       refY="0"
       orient="auto">
      <path
         transform="matrix(0.2,0,0,0.2,-1.2,0)"
         style="fill:context-stroke;fill-rule:evenodd;stroke:context-stroke;stroke-width:1pt"
         d="M 0,-7.0710768 -7.0710894,0 0,7.0710589 7.0710462,0 Z"
         id="path6134" />
    </marker>
    <marker
       orient="auto"
       refY="0"
       refX="0"
       id="InfiniteLineEnd"
       style="overflow:visible">
      <g
         style="fill:context-stroke"
         id="g6272">
        <circle
           cx="3"
           cy="0"
           r="0.80000001"
           id="circle6266" />
        <circle
           cx="6.5"
           cy="0"
           r="0.80000001"
           id="circle6268" />
        <circle
           cx="10"
           cy="0"
           r="0.80000001"
           id="circle6270" />
      </g>
    </marker>
    <marker
       style="overflow:visible"
       id="Arrow1Lstart"
       refX="0"
       refY="0"
       orient="auto">
      <path
         transform="matrix(0.8,0,0,0.8,10,0)"
         style="fill:context-stroke;fill-rule:evenodd;stroke:context-stroke;stroke-width:1pt"
         d="M 0,0 5,-5 -12.5,0 5,5 Z"
         id="path6031" />
    </marker>
    <marker
       style="overflow:visible"
       id="marker6337-1"
       refX="0"
       refY="0"
       orient="auto">
      <path
         transform="matrix(0.2,0,0,0.2,-1.2,0)"
         style="fill:context-stroke;fill-rule:evenodd;stroke:context-stroke;stroke-width:1pt"
         d="M 0,-7.0710768 -7.0710894,0 0,7.0710589 7.0710462,0 Z"
         id="path6335-8" />
    </marker>
  </defs>
  <g
     id="layer1"
     transform="translate(-6.5831167,-2.9828008)">
    <path
       style="fill:none;stroke:#b3b3b3;stroke-width:0.169;stroke-linecap:butt;stroke-linejoin:miter;stroke-miterlimit:4;stroke-dasharray:none;stroke-opacity:1"
       d="m 42.488973,19.744568 4.258918,-7.927435"
       id="path19440" />
    <path
       style="fill:none;stroke:#b3b3b3;stroke-width:0.169;stroke-linecap:butt;stroke-linejoin:miter;stroke-miterlimit:4;stroke-dasharray:none;stroke-opacity:1"
       d="M 65.329164,39.89394 89.23808,31.823988"
       id="path19085" />
    <g
       id="path5181"
       transform="matrix(1.3,0,0,1.3,-15.427885,-7.1284003)">
      <path
         style="color:#000000;fill:#666666;stroke-linecap:round;-inkscape-stroke:none"
         d="m 20.308594,23.988281 a 1.34225,1.34225 0 0 0 -1.341797,1.341797 1.34225,1.34225 0 0 0 1.341797,1.34375 h 21.365234 a 1.34225,1.34225 0 0 0 1.341797,-1.34375 1.34225,1.34225 0 0 0 -1.341797,-1.341797 z"
         id="path2354" />
      <g
         id="g2342">
        <g
           id="path2344">
          <path
             style="color:#000000;fill:#666666;fill-rule:evenodd;stroke-width:0.5369pt;-inkscape-stroke:none"
             d="m 38.451547,21.534499 -3.796468,3.796461 3.796468,3.796451 3.796445,-3.796451 z"
             id="path2348" />
          <path
             style="color:#000000;fill:#666666;fill-rule:evenodd;-inkscape-stroke:none"
             d="m 38.451172,21.027344 -0.251953,0.253906 -4.050782,4.048828 4.302735,4.302734 4.302734,-4.302734 z m 0.002,1.011718 3.289062,3.291016 -3.291015,3.291016 -3.291016,-3.289063 z"
             id="path2350" />
        </g>
      </g>
    </g>
    <path
       style="fill:none;stroke:#666666;stroke-width:3.48985;stroke-linecap:round;stroke-linejoin:miter;stroke-miterlimit:4;stroke-dasharray:none;stroke-opacity:1"
       d="M 38.746946,25.801841 H 91.878691"
       id="path5181-7" />
    <rect
       id="rect1113-3-3"
       width="7.3685126"
       height="2.087815"
       x="63.268364"
       y="19.697918"
       style="stroke-width:0.447145" />
    <path
       style="fill:none;stroke:#000000;stroke-width:0.44785;stroke-linecap:square;stroke-linejoin:round;stroke-miterlimit:4;stroke-dasharray:none;stroke-opacity:1;paint-order:normal"
       d="m 54.660892,19.962549 4.35037,-3.475603 4.312344,3.460878"
       id="path37243" />
    <rect
       id="rect1113-3"
       width="12.338418"
       height="2.087815"
       x="42.415749"
       y="19.697918"
       style="fill:#d40000;stroke-width:0.447145" />
    <rect
       id="rect1113-3-37"
       width="12.338418"
       height="2.087815"
       x="46.672848"
       y="9.823143"
       style="fill:#d40000;stroke-width:0.447145" />
    <rect
       id="rect1113-3-3-5"
       width="7.3685126"
       height="2.087815"
       x="59.011265"
       y="9.823143"
       style="stroke-width:0.447145" />
    <rect
       id="rect1113-3-3-2"
       width="7.3685126"
       height="2.087815"
       x="-68.411598"
       y="-31.905764"
       style="stroke-width:0.447145"
       transform="scale(-1)" />
    <path
       style="fill:none;stroke:#000000;stroke-width:0.44785;stroke-linecap:square;stroke-linejoin:round;stroke-miterlimit:4;stroke-dasharray:none;stroke-opacity:1;paint-order:normal"
       d="m 77.019066,31.641133 -4.350368,3.475603 -4.312345,-3.460879"
       id="path37243-2" />
    <rect
       id="rect1113-3-37-8"
       width="12.338418"
       height="2.087815"
       x="65.300179"
       y="39.806221"
       style="fill:#5a2ca0;stroke-width:0.447145" />
    <rect
       id="rect1113-3-3-5-9"
       width="7.3685126"
       height="2.087815"
       x="77.638611"
       y="39.806221"
       style="stroke-width:0.447145" />
    <rect
       id="rect1113-3-9"
       width="12.338418"
       height="2.087815"
       x="-89.264206"
       y="-31.905764"
       style="fill:#5a2ca0;stroke-width:0.447145"
       transform="scale(-1)" />
    <g
       aria-label="1"
       id="text9050"
       style="font-size:3.66889px;line-height:1.25;font-family:Arial;-inkscape-font-specification:Arial;letter-spacing:0px;word-spacing:0px;stroke-width:0.343958"
       transform="matrix(1.3,0,0,1.3,-15.427885,-7.1284003)">
      <path
         d="M 45.901041,20.033848 H 45.57858 v -2.054794 q -0.116444,0.11107 -0.306338,0.22214 -0.188102,0.11107 -0.338584,0.166605 v -0.311712 q 0.270509,-0.127193 0.472943,-0.30813 0.202434,-0.180936 0.286632,-0.351124 h 0.207808 z"
         id="path1329" />
    </g>
    <g
       aria-label="1"
       id="text9050-7"
       style="font-size:3.66889px;line-height:1.25;font-family:Arial;-inkscape-font-specification:Arial;letter-spacing:0px;word-spacing:0px;stroke-width:0.343958"
       transform="matrix(1.3,0,0,1.3,-15.427885,-7.1284003)">
      <path
         d="m 49.280306,12.450118 h -0.322461 v -2.054793 q -0.116445,0.11107 -0.306338,0.22214 -0.188103,0.111069 -0.338584,0.166604 v -0.311712 q 0.270509,-0.127193 0.472943,-0.308129 0.202433,-0.1809369 0.286632,-0.3511246 h 0.207808 z"
         id="path1332" />
    </g>
    <g
       aria-label="1"
       id="text9050-6"
       style="font-size:3.66889px;line-height:1.25;font-family:Arial;-inkscape-font-specification:Arial;letter-spacing:0px;word-spacing:0px;stroke-width:0.343958"
       transform="matrix(1.3,0,0,1.3,-15.427885,-7.1284003)">
      <path
         d="m 63.478632,35.391876 h -0.322461 v -2.054793 q -0.116444,0.11107 -0.306338,0.22214 -0.188102,0.11107 -0.338584,0.166605 v -0.311713 q 0.270509,-0.127193 0.472943,-0.308129 0.202433,-0.180937 0.286632,-0.351124 h 0.207808 z"
         id="path1335" />
    </g>
    <g
       aria-label="1"
       id="text9050-2"
       style="font-size:3.66889px;line-height:1.25;font-family:Arial;-inkscape-font-specification:Arial;letter-spacing:0px;word-spacing:0px;stroke-width:0.343958"
       transform="matrix(1.3,0,0,1.3,-15.427885,-7.1284003)">
      <path
         d="m 80.134523,33.089428 h -0.322461 v -2.054793 q -0.116444,0.111069 -0.306338,0.222139 -0.188102,0.11107 -0.338584,0.166605 v -0.311712 q 0.270509,-0.127193 0.472943,-0.30813 0.202434,-0.180936 0.286632,-0.351124 h 0.207808 z"
         id="path1338" />
    </g>
    <path
       style="fill:none;stroke:#000000;stroke-width:0.447145px;stroke-linecap:round;stroke-linejoin:miter;stroke-opacity:1"
       d="m 13.30708,31.171715 h 1.743336"
       id="path14772-7" />
    <g
       id="g15089"
       transform="matrix(1.69,0,0,1.69,-35.396345,1.007792)">
      <path
         style="fill:none;stroke:#000000;stroke-width:0.264583px;stroke-linecap:round;stroke-linejoin:miter;stroke-opacity:1"
         d="m 28.818595,12.009375 h 1.03156"
         id="path14772" />
      <path
         style="fill:none;stroke:#000000;stroke-width:0.264583px;stroke-linecap:round;stroke-linejoin:miter;stroke-opacity:1"
         d="m 29.334375,12.525155 v -1.03156"
         id="path14772-8" />
    </g>
    <g
       aria-label="gene"
       id="text9050-4"
       style="font-size:3.66889px;line-height:1.25;font-family:Arial;-inkscape-font-specification:Arial;letter-spacing:0px;word-spacing:0px;stroke-width:0.343958"
       transform="matrix(1.3,0,0,1.3,-15.427885,-7.1284003)">
      <path
         d="m 67.89978,22.054672 0.327835,0.03045 q -0.0036,0.11107 0.02687,0.166605 0.03045,0.05553 0.09674,0.08599 0.08778,0.03941 0.227514,0.03941 0.293798,0 0.422783,-0.152274 0.0842,-0.102112 0.155856,-0.444279 l 0.03225,-0.154065 q -0.252595,0.256177 -0.537435,0.256177 -0.288424,0 -0.483692,-0.211391 -0.193476,-0.213182 -0.193476,-0.601927 0,-0.32067 0.152273,-0.589387 0.154065,-0.268718 0.365456,-0.404868 0.211391,-0.137942 0.435322,-0.137942 0.374413,0 0.576847,0.354708 l 0.06449,-0.311713 h 0.297381 l -0.38337,1.836237 q -0.0627,0.302755 -0.164814,0.471151 -0.102112,0.170188 -0.28484,0.263343 -0.180937,0.09316 -0.4192,0.09316 -0.229305,0 -0.39591,-0.05912 -0.164814,-0.05912 -0.24722,-0.173771 -0.08062,-0.112861 -0.08062,-0.25976 0,-0.04479 0.009,-0.09674 z m 0.404867,-1.013961 q 0,0.195268 0.03762,0.293798 0.05374,0.137941 0.152273,0.211391 0.100321,0.07166 0.22214,0.07166 0.159439,0 0.317087,-0.11107 0.157647,-0.112862 0.254386,-0.347542 0.09853,-0.23468 0.09853,-0.447862 0,-0.23468 -0.130776,-0.372622 -0.128984,-0.139733 -0.320669,-0.139733 -0.118236,0 -0.229306,0.06449 -0.11107,0.0627 -0.207808,0.193477 -0.09495,0.128984 -0.145107,0.309921 -0.04837,0.180936 -0.04837,0.274092 z"
         style="font-style:italic;-inkscape-font-specification:'Arial Italic'"
         id="path1341" />
      <path
         d="m 71.355487,21.235979 0.315295,0.03225 q -0.06808,0.23468 -0.313503,0.446071 -0.243638,0.211391 -0.582222,0.211391 -0.211391,0 -0.388744,-0.09674 -0.175563,-0.09853 -0.268718,-0.284841 -0.09136,-0.186311 -0.09136,-0.424573 0,-0.311713 0.143316,-0.603719 0.145108,-0.293798 0.374413,-0.435323 0.229306,-0.143316 0.496232,-0.143316 0.340375,0 0.542809,0.211392 0.204226,0.211391 0.204226,0.576847 0,0.139733 -0.02508,0.286632 h -1.400914 q -0.0072,0.05553 -0.0072,0.100321 0,0.266926 0.121819,0.40845 0.12361,0.139734 0.300964,0.139734 0.166605,0 0.327835,-0.109279 0.161231,-0.109278 0.250803,-0.315295 z m -0.942303,-0.471152 h 1.067705 q 0.0018,-0.05016 0.0018,-0.07166 0,-0.243637 -0.121819,-0.372621 -0.121818,-0.130776 -0.313503,-0.130776 -0.207809,0 -0.379788,0.143316 -0.170188,0.143316 -0.254386,0.431739 z"
         style="font-style:italic;-inkscape-font-specification:'Arial Italic'"
         id="path1343" />
      <path
         d="m 71.998618,21.882692 0.397702,-1.90252 h 0.293797 l -0.06987,0.331419 q 0.191685,-0.195269 0.35829,-0.284841 0.166605,-0.08957 0.340376,-0.08957 0.231097,0 0.361872,0.125402 0.132568,0.125401 0.132568,0.335001 0,0.105696 -0.04658,0.33321 l -0.241846,1.151902 h -0.324252 l 0.252594,-1.205646 q 0.03762,-0.175562 0.03762,-0.25976 0,-0.09495 -0.06628,-0.154065 -0.06449,-0.05912 -0.188102,-0.05912 -0.249012,0 -0.44428,0.179145 -0.193476,0.179145 -0.28484,0.614467 l -0.18452,0.884976 z"
         style="font-style:italic;-inkscape-font-specification:'Arial Italic'"
         id="path1345" />
      <path
         d="m 75.436411,21.235979 0.315295,0.03225 q -0.06807,0.23468 -0.313504,0.446071 -0.243637,0.211391 -0.582221,0.211391 -0.211391,0 -0.388745,-0.09674 -0.175562,-0.09853 -0.268717,-0.284841 -0.09136,-0.186311 -0.09136,-0.424573 0,-0.311713 0.143316,-0.603719 0.145107,-0.293798 0.374413,-0.435323 0.229306,-0.143316 0.496232,-0.143316 0.340375,0 0.542809,0.211392 0.204225,0.211391 0.204225,0.576847 0,0.139733 -0.02508,0.286632 H 74.44216 q -0.0072,0.05553 -0.0072,0.100321 0,0.266926 0.121819,0.40845 0.12361,0.139734 0.300963,0.139734 0.166605,0 0.327836,-0.109279 0.16123,-0.109278 0.250803,-0.315295 z m -0.942303,-0.471152 h 1.067704 q 0.0018,-0.05016 0.0018,-0.07166 0,-0.243637 -0.121819,-0.372621 -0.121818,-0.130776 -0.313504,-0.130776 -0.207808,0 -0.379787,0.143316 -0.170188,0.143316 -0.254386,0.431739 z"
         style="font-style:italic;-inkscape-font-specification:'Arial Italic'"
         id="path1347" />
    </g>
    <g
       aria-label="mRNA"
       id="text9050-4-0"
       style="font-size:3.66889px;line-height:1.25;font-family:Arial;-inkscape-font-specification:Arial;letter-spacing:0px;word-spacing:0px;stroke-width:0.343958"
       transform="matrix(1.3,0,0,1.3,-15.427885,-7.1284003)">
      <path
         d="m 64.269426,14.827505 0.397702,-1.90252 h 0.324252 l -0.06628,0.313504 q 0.180936,-0.202434 0.322461,-0.279466 0.143316,-0.07703 0.309921,-0.07703 0.177353,0 0.295589,0.09495 0.120027,0.09316 0.157648,0.261552 0.145107,-0.179145 0.304546,-0.266926 0.161231,-0.08957 0.338584,-0.08957 0.238263,0 0.356499,0.112862 0.120027,0.112861 0.120027,0.317086 0,0.08778 -0.0412,0.290215 l -0.256178,1.225352 h -0.324252 l 0.261551,-1.257598 q 0.03404,-0.154065 0.03404,-0.220348 0,-0.09316 -0.05912,-0.146899 -0.05912,-0.05374 -0.166605,-0.05374 -0.145107,0 -0.295589,0.08778 -0.150482,0.08778 -0.23468,0.231097 -0.08241,0.141525 -0.145107,0.437114 l -0.193477,0.922597 h -0.324253 l 0.268718,-1.28447 q 0.02866,-0.130776 0.02866,-0.18631 0,-0.09316 -0.05912,-0.150482 -0.05733,-0.05733 -0.150482,-0.05733 -0.137941,0 -0.290214,0.08778 -0.150482,0.08778 -0.245429,0.245429 -0.09495,0.155856 -0.155856,0.446071 l -0.188103,0.899308 z"
         style="font-style:italic;-inkscape-font-specification:'Arial Italic'"
         id="path1350" />
      <path
         d="m 67.377592,14.827505 0.549975,-2.626266 h 1.101742 q 0.326044,0 0.49444,0.05554 0.168397,0.05374 0.263344,0.204225 0.09674,0.150482 0.09674,0.379788 0,0.320669 -0.2096,0.532061 -0.209599,0.211391 -0.677168,0.274091 0.143316,0.105696 0.216766,0.207809 0.164813,0.231097 0.265134,0.478317 l 0.200643,0.49444 H 69.28728 l -0.188102,-0.489066 q -0.102113,-0.265134 -0.232889,-0.458611 -0.08957,-0.134359 -0.182728,-0.175562 -0.09315,-0.043 -0.302755,-0.043 h -0.40845 l -0.243638,1.166234 z m 0.653879,-1.451075 h 0.485483 q 0.336793,0 0.438906,-0.009 0.198851,-0.01971 0.326044,-0.08957 0.127193,-0.06987 0.197059,-0.188103 0.06987,-0.118235 0.06987,-0.254386 0,-0.114652 -0.05195,-0.19885 -0.05195,-0.08599 -0.136151,-0.116445 -0.0842,-0.03045 -0.286632,-0.03045 h -0.856313 z"
         style="font-style:italic;-inkscape-font-specification:'Arial Italic'"
         id="path1352" />
      <path
         d="m 70.034312,14.827505 0.549976,-2.626266 h 0.340375 l 0.442488,0.985298 q 0.202434,0.451445 0.32067,0.759575 0.06808,0.179145 0.157648,0.483691 0.04837,-0.331418 0.121818,-0.684334 l 0.322461,-1.54423 h 0.342167 l -0.548184,2.626266 H 71.73619 l -0.652088,-1.517358 q -0.17377,-0.401285 -0.270509,-0.707623 -0.02687,0.256177 -0.103904,0.628799 l -0.33321,1.596182 z"
         style="font-style:italic;-inkscape-font-specification:'Arial Italic'"
         id="path1354" />
      <path
         d="m 72.431273,14.827505 1.488695,-2.626266 h 0.413825 l 0.433531,2.626266 h -0.340375 l -0.127193,-0.755992 h -1.06233 l -0.420991,0.755992 z m 0.956635,-1.026501 h 0.868853 L 74.154648,13.14175 q -0.05912,-0.392327 -0.07345,-0.653879 -0.08957,0.225723 -0.261552,0.535644 z"
         style="font-style:italic;-inkscape-font-specification:'Arial Italic'"
         id="path1356" />
    </g>
    <g
       aria-label="chromosome"
       id="text9050-4-6"
       style="font-size:3.66889px;line-height:1.25;font-family:Arial;-inkscape-font-specification:Arial;letter-spacing:0px;word-spacing:0px;stroke-width:0.343958"
       transform="matrix(1.3,0,0,1.3,-15.427885,-7.1284003)">
      <path
         d="m 30.01135,33.32463 0.324253,0.03404 q -0.121819,0.356498 -0.347541,0.530269 -0.223932,0.171979 -0.510564,0.171979 -0.309921,0 -0.503397,-0.200642 -0.191685,-0.200643 -0.191685,-0.560724 0,-0.311712 0.12361,-0.612676 0.12361,-0.300964 0.352915,-0.45682 0.231097,-0.157647 0.526687,-0.157647 0.306338,0 0.485483,0.17377 0.179145,0.171979 0.179145,0.45682 l -0.318878,0.0215 q -0.0018,-0.180936 -0.105696,-0.283049 -0.102113,-0.102112 -0.270509,-0.102112 -0.195268,0 -0.338584,0.12361 -0.143316,0.12361 -0.225723,0.376204 -0.08061,0.250803 -0.08061,0.483692 0,0.243637 0.107487,0.365456 0.107487,0.121818 0.265135,0.121818 0.157647,0 0.300963,-0.120027 0.145108,-0.120027 0.227514,-0.365456 z"
         style="font-style:italic;-inkscape-font-specification:'Arial Italic'"
         id="path1359" />
      <path
         d="m 30.532662,34.017921 0.548184,-2.626266 h 0.324253 l -0.2096,1.008587 q 0.180937,-0.175562 0.336793,-0.250803 0.155856,-0.07703 0.320669,-0.07703 0.236472,0 0.367248,0.125401 0.130775,0.12361 0.130775,0.327835 0,0.100322 -0.05733,0.369039 l -0.23468,1.123239 h -0.324252 l 0.241845,-1.151902 q 0.05195,-0.250803 0.05195,-0.315295 0,-0.09316 -0.06449,-0.152274 -0.06449,-0.05912 -0.186311,-0.05912 -0.175562,0 -0.335001,0.09315 -0.159439,0.09136 -0.250803,0.252595 -0.08957,0.159439 -0.164813,0.515937 l -0.170188,0.816901 z"
         style="font-style:italic;-inkscape-font-specification:'Arial Italic'"
         id="path1361" />
      <path
         d="m 32.573124,34.017921 0.397702,-1.90252 h 0.286632 l -0.08062,0.388745 q 0.146899,-0.220348 0.286632,-0.326044 0.141525,-0.105695 0.288423,-0.105695 0.09674,0 0.238263,0.06987 l -0.132567,0.300964 q -0.0842,-0.06091 -0.184519,-0.06091 -0.170188,0 -0.349333,0.189894 -0.179145,0.189894 -0.281258,0.682543 l -0.16123,0.763157 z"
         style="font-style:italic;-inkscape-font-specification:'Arial Italic'"
         id="path1363" />
      <path
         d="m 33.85222,33.295967 q 0,-0.557141 0.327835,-0.922597 0.270509,-0.300963 0.709414,-0.300963 0.343959,0 0.553559,0.214974 0.211391,0.214974 0.211391,0.580429 0,0.327836 -0.132568,0.610885 -0.132567,0.281258 -0.377996,0.431739 -0.243637,0.150482 -0.514146,0.150482 -0.22214,0 -0.404868,-0.09495 -0.180936,-0.09495 -0.277674,-0.268717 -0.09495,-0.173771 -0.09495,-0.401285 z m 0.324252,-0.03225 q 0,0.268717 0.128985,0.408451 0.128984,0.137941 0.327835,0.137941 0.103904,0 0.206017,-0.0412 0.102112,-0.04299 0.189894,-0.128985 0.08778,-0.08599 0.14869,-0.195268 0.0627,-0.11107 0.100321,-0.238262 0.05553,-0.177354 0.05553,-0.340376 0,-0.257969 -0.130776,-0.399493 -0.128984,-0.143316 -0.326044,-0.143316 -0.152273,0 -0.277675,0.07345 -0.125401,0.07166 -0.227514,0.211391 -0.100321,0.139733 -0.14869,0.326044 -0.04658,0.184519 -0.04658,0.329627 z"
         style="font-style:italic;-inkscape-font-specification:'Arial Italic'"
         id="path1365" />
      <path
         d="m 35.833563,34.017921 0.397702,-1.90252 h 0.324253 l -0.06628,0.313504 q 0.180937,-0.202434 0.322461,-0.279466 0.143316,-0.07703 0.309921,-0.07703 0.177354,0 0.295589,0.09495 0.120028,0.09316 0.157648,0.261552 0.145107,-0.179145 0.304547,-0.266926 0.16123,-0.08957 0.338584,-0.08957 0.238263,0 0.356498,0.112861 0.120027,0.112861 0.120027,0.317087 0,0.08778 -0.0412,0.290215 l -0.256177,1.225351 h -0.324253 l 0.261552,-1.257598 q 0.03404,-0.154064 0.03404,-0.220348 0,-0.09315 -0.05912,-0.146899 -0.05912,-0.05374 -0.166605,-0.05374 -0.145108,0 -0.29559,0.08778 -0.150481,0.08778 -0.23468,0.231097 -0.08241,0.141524 -0.145107,0.437114 l -0.193477,0.922596 h -0.324252 l 0.268717,-1.284469 q 0.02866,-0.130776 0.02866,-0.186311 0,-0.09316 -0.05912,-0.150482 -0.05733,-0.05733 -0.150482,-0.05733 -0.137942,0 -0.290215,0.08778 -0.150482,0.08778 -0.245429,0.245428 -0.09495,0.155857 -0.155856,0.446071 l -0.188102,0.899308 z"
         style="font-style:italic;-inkscape-font-specification:'Arial Italic'"
         id="path1367" />
      <path
         d="m 38.948896,33.295967 q 0,-0.557141 0.327835,-0.922597 0.270509,-0.300963 0.709414,-0.300963 0.343959,0 0.553558,0.214974 0.211392,0.214974 0.211392,0.580429 0,0.327836 -0.132568,0.610885 -0.132567,0.281258 -0.377996,0.431739 -0.243637,0.150482 -0.514146,0.150482 -0.22214,0 -0.404868,-0.09495 -0.180936,-0.09495 -0.277675,-0.268717 -0.09495,-0.173771 -0.09495,-0.401285 z m 0.324252,-0.03225 q 0,0.268717 0.128985,0.408451 0.128984,0.137941 0.327835,0.137941 0.103904,0 0.206017,-0.0412 0.102112,-0.04299 0.189893,-0.128985 0.08778,-0.08599 0.148691,-0.195268 0.0627,-0.11107 0.100321,-0.238262 0.05553,-0.177354 0.05553,-0.340376 0,-0.257969 -0.130776,-0.399493 -0.128984,-0.143316 -0.326044,-0.143316 -0.152273,0 -0.277675,0.07345 -0.125401,0.07166 -0.227514,0.211391 -0.100321,0.139733 -0.14869,0.326044 -0.04658,0.184519 -0.04658,0.329627 z"
         style="font-style:italic;-inkscape-font-specification:'Arial Italic'"
         id="path1369" />
      <path
         d="m 40.962485,33.367625 0.324253,-0.01971 q 0,0.139733 0.04299,0.238263 0.04299,0.09853 0.157647,0.16123 0.116445,0.0627 0.270509,0.0627 0.214974,0 0.322461,-0.08599 0.107487,-0.08599 0.107487,-0.202434 0,-0.0842 -0.06449,-0.159439 -0.06628,-0.07524 -0.324252,-0.18452 -0.256178,-0.11107 -0.327836,-0.155856 -0.120027,-0.07345 -0.180936,-0.171979 -0.06091,-0.100321 -0.06091,-0.229306 0,-0.225722 0.179146,-0.386953 0.179145,-0.16123 0.501606,-0.16123 0.35829,0 0.5446,0.166604 0.188103,0.164814 0.195268,0.435323 l -0.317086,0.0215 q -0.0072,-0.171979 -0.121819,-0.2723 -0.114653,-0.100321 -0.324252,-0.100321 -0.168397,0 -0.261552,0.07703 -0.09315,0.07703 -0.09315,0.166605 0,0.08957 0.08062,0.157647 0.05374,0.04658 0.277675,0.143316 0.372621,0.161231 0.46936,0.254386 0.154064,0.148691 0.154064,0.361873 0,0.141525 -0.08778,0.277675 -0.08599,0.13615 -0.265134,0.218557 -0.177354,0.08062 -0.4192,0.08062 -0.329627,0 -0.560724,-0.163022 -0.231097,-0.163022 -0.218557,-0.530269 z"
         style="font-style:italic;-inkscape-font-specification:'Arial Italic'"
         id="path1371" />
      <path
         d="m 42.823802,33.295967 q 0,-0.557141 0.327836,-0.922597 0.270509,-0.300963 0.709414,-0.300963 0.343958,0 0.553558,0.214974 0.211391,0.214974 0.211391,0.580429 0,0.327836 -0.132567,0.610885 -0.132568,0.281258 -0.377996,0.431739 -0.243637,0.150482 -0.514146,0.150482 -0.22214,0 -0.404868,-0.09495 -0.180937,-0.09495 -0.277675,-0.268717 -0.09495,-0.173771 -0.09495,-0.401285 z m 0.324253,-0.03225 q 0,0.268717 0.128984,0.408451 0.128984,0.137941 0.327835,0.137941 0.103905,0 0.206017,-0.0412 0.102113,-0.04299 0.189894,-0.128985 0.08778,-0.08599 0.14869,-0.195268 0.0627,-0.11107 0.100322,-0.238262 0.05553,-0.177354 0.05553,-0.340376 0,-0.257969 -0.130775,-0.399493 -0.128985,-0.143316 -0.326044,-0.143316 -0.152274,0 -0.277675,0.07345 -0.125402,0.07166 -0.227514,0.211391 -0.100321,0.139733 -0.148691,0.326044 -0.04658,0.184519 -0.04658,0.329627 z"
         style="font-style:italic;-inkscape-font-specification:'Arial Italic'"
         id="path1373" />
      <path
         d="m 44.805147,34.017921 0.397702,-1.90252 h 0.324252 l -0.06628,0.313504 q 0.180936,-0.202434 0.322461,-0.279466 0.143316,-0.07703 0.30992,-0.07703 0.177354,0 0.29559,0.09495 0.120027,0.09316 0.157647,0.261552 0.145108,-0.179145 0.304547,-0.266926 0.16123,-0.08957 0.338584,-0.08957 0.238263,0 0.356499,0.112861 0.120027,0.112861 0.120027,0.317087 0,0.08778 -0.0412,0.290215 l -0.256177,1.225351 H 47.04446 l 0.261551,-1.257598 q 0.03404,-0.154064 0.03404,-0.220348 0,-0.09315 -0.05912,-0.146899 -0.05912,-0.05374 -0.166605,-0.05374 -0.145107,0 -0.295589,0.08778 -0.150482,0.08778 -0.23468,0.231097 -0.08241,0.141524 -0.145108,0.437114 l -0.193476,0.922596 H 45.92122 l 0.268718,-1.284469 q 0.02866,-0.130776 0.02866,-0.186311 0,-0.09316 -0.05912,-0.150482 -0.05733,-0.05733 -0.150482,-0.05733 -0.137941,0 -0.290215,0.08778 -0.150481,0.08778 -0.245428,0.245428 -0.09495,0.155857 -0.155856,0.446071 l -0.188103,0.899308 z"
         style="font-style:italic;-inkscape-font-specification:'Arial Italic'"
         id="path1375" />
      <path
         d="m 49.260483,33.371208 0.315295,0.03225 q -0.06808,0.23468 -0.313504,0.446071 -0.243637,0.211391 -0.582221,0.211391 -0.211391,0 -0.388745,-0.09674 -0.175562,-0.09853 -0.268717,-0.284841 -0.09136,-0.18631 -0.09136,-0.424573 0,-0.311713 0.143316,-0.603719 0.145107,-0.293798 0.374413,-0.435322 0.229305,-0.143316 0.496232,-0.143316 0.340375,0 0.542809,0.211391 0.204225,0.211391 0.204225,0.576847 0,0.139733 -0.02508,0.286632 h -1.400914 q -0.0072,0.05553 -0.0072,0.100321 0,0.266926 0.121819,0.408451 0.12361,0.139733 0.300963,0.139733 0.166605,0 0.327836,-0.109279 0.16123,-0.109278 0.250803,-0.315295 z M 48.31818,32.900057 h 1.067704 q 0.0018,-0.05016 0.0018,-0.07166 0,-0.243638 -0.121819,-0.372622 -0.121818,-0.130776 -0.313504,-0.130776 -0.207808,0 -0.379787,0.143316 -0.170188,0.143316 -0.254386,0.43174 z"
         style="font-style:italic;-inkscape-font-specification:'Arial Italic'"
         id="path1377" />
    </g>
  </g>
</svg>
