<?xml version="1.0" encoding="UTF-8" standalone="no"?>
<!-- Created with Inkscape (http://www.inkscape.org/) -->

<svg
   width="573.52966"
   height="137.20862"
   viewBox="0 0 151.74639 36.303115"
   version="1.1"
   id="svg5"
   xmlns="http://www.w3.org/2000/svg"
   xmlns:svg="http://www.w3.org/2000/svg">
  <defs
     id="defs2">
    <marker
       style="overflow:visible"
       id="Arrow1Send"
       refX="0"
       refY="0"
       orient="auto">
      <path
         transform="matrix(-0.2,0,0,-0.2,-1.2,0)"
         style="fill:context-stroke;fill-rule:evenodd;stroke:context-stroke;stroke-width:1pt"
         d="M 0,0 5,-5 -12.5,0 5,5 Z"
         id="path30733" />
    </marker>
    <marker
       style="overflow:visible"
       id="Arrow1Sstart"
       refX="0"
       refY="0"
       orient="auto">
      <path
         transform="matrix(0.2,0,0,0.2,1.2,0)"
         style="fill:context-stroke;fill-rule:evenodd;stroke:context-stroke;stroke-width:1pt"
         d="M 0,0 5,-5 -12.5,0 5,5 Z"
         id="path30730" />
    </marker>
    <marker
       style="overflow:visible"
       id="Arrow1Sstart-0"
       refX="0"
       refY="0"
       orient="auto">
      <path
         transform="matrix(0.2,0,0,0.2,1.2,0)"
         style="fill:context-stroke;fill-rule:evenodd;stroke:context-stroke;stroke-width:1pt"
         d="M 0,0 5,-5 -12.5,0 5,5 Z"
         id="path30730-6" />
    </marker>
    <marker
       style="overflow:visible"
       id="Arrow1Send-3"
       refX="0"
       refY="0"
       orient="auto">
      <path
         transform="matrix(-0.2,0,0,-0.2,-1.2,0)"
         style="fill:context-stroke;fill-rule:evenodd;stroke:context-stroke;stroke-width:1pt"
         d="M 0,0 5,-5 -12.5,0 5,5 Z"
         id="path30733-2" />
    </marker>
  </defs>
  <g
     id="layer1"
     transform="translate(1.8617943,-5.2572776)">
    <rect
       style="fill:#00aad4;stroke:none;stroke-width:0.6975;stroke-linecap:square;stroke-linejoin:miter;stroke-miterlimit:4;stroke-dasharray:none;stroke-dashoffset:0"
       id="rect30220-6"
       width="17.351656"
       height="4.0089769"
       x="5.4706264"
       y="22.027557" />
    <rect
       style="fill:#71c837;stroke:none;stroke-width:0.6975;stroke-linecap:square;stroke-linejoin:miter;stroke-miterlimit:4;stroke-dasharray:none;stroke-dashoffset:0"
       id="rect30220-6-1"
       width="17.351656"
       height="4.0089769"
       x="22.822285"
       y="22.027559" />
    <rect
       style="fill:#ff7f2a;stroke:none;stroke-width:0.6975;stroke-linecap:square;stroke-linejoin:miter;stroke-miterlimit:4;stroke-dasharray:none;stroke-dashoffset:0"
       id="rect30220"
       width="4.3378382"
       height="4.0089784"
       x="1.132789"
       y="22.027557" />
    <rect
       style="fill:none;stroke:#000000;stroke-width:0.6975;stroke-linecap:square;stroke-linejoin:miter;stroke-miterlimit:4;stroke-dasharray:none"
       id="rect846"
       width="125.79858"
       height="4.002655"
       x="1.132789"
       y="22.027557" />
    <path
       style="fill:none;stroke:#000000;stroke-width:0.6975;stroke-linecap:butt;stroke-linejoin:miter;stroke-miterlimit:4;stroke-dasharray:1.395, 1.395;stroke-dashoffset:0;stroke-opacity:1"
       d="m 128.36176,22.027557 h 18.877"
       id="path1124" />
    <path
       style="fill:none;stroke:#000000;stroke-width:0.6975;stroke-linecap:butt;stroke-linejoin:miter;stroke-miterlimit:4;stroke-dasharray:1.395, 1.395;stroke-dashoffset:0;stroke-opacity:1"
       d="m 128.36176,26.030211 h 18.877"
       id="path1124-3" />
    <g
       aria-label="version"
       id="text5316"
       style="font-style:italic;font-size:5.29166px;line-height:1.25;font-family:Arial;-inkscape-font-specification:'Arial Italic';fill:#ff7f2a;stroke-width:0.396874">
      <path
         d="M 2.2329552,11.926153 1.7833708,9.1821382 h 0.454752 l 0.2351275,1.5115338 q 0.038757,0.248046 0.095601,0.808735 0.1343586,-0.291971 0.3436479,-0.669209 L 3.8297549,9.1821382 H 4.3232642 L 2.7523026,11.926153 Z"
         id="path14214" />
      <path
         d="m 6.2017,10.993395 0.4547521,0.04651 q -0.098185,0.33848 -0.4521682,0.64337 -0.3513993,0.304891 -0.839741,0.304891 -0.3048905,0 -0.5606885,-0.139526 -0.2532142,-0.14211 -0.3875728,-0.410827 -0.1317747,-0.268718 -0.1317747,-0.612365 0,-0.449585 0.2067054,-0.8707472 Q 4.7005016,9.5309536 5.0312304,9.326832 5.3619591,9.1201265 5.746948,9.1201265 q 0.4909255,0 0.782897,0.3048906 0.2945552,0.3048905 0.2945552,0.8319899 0,0.201537 -0.036173,0.413411 H 4.7676809 q -0.010335,0.0801 -0.010335,0.144693 0,0.384989 0.1756997,0.589111 0.1782834,0.201538 0.4340814,0.201538 0.2402951,0 0.4728388,-0.157613 Q 6.0725091,11.290534 6.2017,10.993395 Z M 4.8426116,10.313851 h 1.5399557 q 0.00258,-0.07235 0.00258,-0.103353 0,-0.3513994 -0.1756996,-0.5374344 -0.1756996,-0.1886187 -0.4521682,-0.1886187 -0.2997229,0 -0.5477695,0.2067055 -0.2454627,0.2067054 -0.3669022,0.6227006 z"
         id="path14216" />
      <path
         d="M 7.1292909,11.926153 7.7028985,9.1821382 h 0.413411 L 8.0000376,9.7428267 Q 8.2119107,9.4250171 8.4134486,9.2725718 8.6175702,9.1201265 8.8294433,9.1201265 q 0.1395262,0 0.3436478,0.1007689 L 8.9818886,9.6549769 q -0.1214395,-0.08785 -0.2661333,-0.08785 -0.2454627,0 -0.5038446,0.2738847 -0.2583818,0.2738852 -0.4056594,0.9844352 l -0.2325437,1.100706 z"
         id="path14218" />
      <path
         d="m 8.9353799,10.988227 0.4676711,-0.02842 q 0,0.201538 0.062012,0.343648 0.062012,0.14211 0.2273761,0.232544 0.1679481,0.09043 0.3901563,0.09043 0.310058,0 0.465088,-0.124023 0.155029,-0.124023 0.155029,-0.291971 0,-0.12144 -0.09302,-0.22996 -0.0956,-0.108521 -0.467671,-0.266134 Q 9.772537,10.554146 9.6691843,10.48955 9.4960685,10.383614 9.4082186,10.241504 q -0.08785,-0.144694 -0.08785,-0.3307291 0,-0.3255611 0.2583818,-0.5581047 0.2583819,-0.2325437 0.7234694,-0.2325437 0.516763,0 0.785481,0.2402951 0.2713,0.2377113 0.281636,0.6278679 l -0.457336,0.031005 q -0.01033,-0.2480463 -0.1757,-0.3927401 -0.165364,-0.1446938 -0.467671,-0.1446938 -0.242879,0 -0.3772373,0.1111042 -0.1343586,0.1111042 -0.1343586,0.2402951 0,0.1291909 0.1162718,0.2273756 0.077515,0.06718 0.4004921,0.206706 0.537434,0.232543 0.67696,0.366902 0.222209,0.214457 0.222209,0.521931 0,0.204122 -0.126608,0.400492 -0.124023,0.19637 -0.382405,0.315226 -0.255798,0.116272 -0.604613,0.116272 -0.4754227,0 -0.8087353,-0.235128 -0.3333125,-0.235127 -0.3152258,-0.76481 z"
         id="path14220" />
      <path
         d="M 12.201326,8.6679583 12.31243,8.1382756 h 0.465087 l -0.111104,0.5296827 z m -0.682128,3.2581947 0.573608,-2.7440148 h 0.467671 l -0.573608,2.7440148 z"
         id="path14222" />
      <path
         d="m 12.795604,10.884874 q 0,-0.803567 0.472839,-1.330666 0.390156,-0.4340815 1.023192,-0.4340815 0.496093,0 0.7984,0.3100582 0.30489,0.3100582 0.30489,0.8371573 0,0.472839 -0.191202,0.881082 -0.191203,0.405659 -0.545186,0.6227 -0.351399,0.217041 -0.741556,0.217041 -0.320393,0 -0.583943,-0.136943 -0.260965,-0.136942 -0.400492,-0.387572 -0.136942,-0.250631 -0.136942,-0.578776 z m 0.467671,-0.04651 q 0,0.387572 0.186035,0.58911 0.186035,0.198954 0.472839,0.198954 0.149861,0 0.297139,-0.05943 0.147278,-0.06201 0.273885,-0.186034 0.126607,-0.124024 0.214457,-0.281637 0.09043,-0.160196 0.144693,-0.343647 0.0801,-0.255799 0.0801,-0.490926 0,-0.3720698 -0.188619,-0.5761914 -0.186035,-0.2067055 -0.470255,-0.2067055 -0.219624,0 -0.400492,0.1059365 -0.180867,0.1033528 -0.328145,0.3048906 -0.144693,0.2015378 -0.214457,0.4702548 -0.06718,0.266133 -0.06718,0.475423 z"
         id="path14224" />
      <path
         d="m 15.655891,11.926153 0.573608,-2.7440148 h 0.423746 l -0.100769,0.4780064 q 0.276469,-0.2816362 0.516764,-0.4108272 0.240295,-0.1291909 0.490925,-0.1291909 0.333313,0 0.521932,0.1808673 0.191202,0.1808673 0.191202,0.483174 0,0.1524453 -0.06718,0.4805902 l -0.348816,1.661395 h -0.467671 l 0.364319,-1.73891 q 0.05426,-0.2532137 0.05426,-0.3746532 0,-0.1369423 -0.0956,-0.2222083 -0.09302,-0.085266 -0.271301,-0.085266 -0.359151,0 -0.640787,0.2583818 -0.279053,0.2583817 -0.410827,0.8862497 l -0.266134,1.276406 z"
         id="path14226" />
    </g>
    <g
       aria-label="uint8"
       id="text8620"
       style="font-style:italic;font-size:5.29166px;line-height:1.25;font-family:Arial;-inkscape-font-specification:'Arial Italic';stroke-width:0.396874">
      <path
         d="m 3.5016107,16.82351 q -0.4935093,0.558105 -1.010273,0.558105 -0.3178096,0 -0.5141798,-0.180868 -0.1937864,-0.183451 -0.1937864,-0.447 0,-0.173116 0.08785,-0.594278 L 2.2019501,14.575588 H 2.6696212 L 2.302719,16.330001 q -0.046509,0.219624 -0.046509,0.341064 0,0.155029 0.093017,0.242878 0.095601,0.08527 0.2790524,0.08527 0.1963702,0 0.3824051,-0.0956 0.1886188,-0.0956 0.3229773,-0.258382 0.1369424,-0.16278 0.2222084,-0.384989 0.056844,-0.14211 0.1317747,-0.498676 L 3.9356922,14.575588 H 4.4033633 L 3.8297556,17.319603 H 3.398258 Z"
         id="path14229" />
      <path
         d="M 5.2353528,14.061408 5.346457,13.531725 h 0.4650873 l -0.1111042,0.529683 z m -0.682128,3.258195 0.5736077,-2.744015 h 0.4676711 l -0.5736077,2.744015 z"
         id="path14231" />
      <path
         d="M 5.746949,17.319603 6.3205567,14.575588 H 6.7443029 L 6.643534,15.053594 q 0.2764685,-0.281636 0.5167636,-0.410827 0.2402951,-0.129191 0.4909255,-0.129191 0.3333125,0 0.5219313,0.180868 0.1912025,0.180867 0.1912025,0.483174 0,0.152445 -0.067179,0.48059 L 7.9483622,17.319603 H 7.4806911 l 0.3643183,-1.73891 q 0.05426,-0.253214 0.05426,-0.374653 0,-0.136943 -0.095601,-0.222209 -0.093018,-0.08527 -0.271301,-0.08527 -0.3591507,0 -0.6407869,0.258382 -0.2790524,0.258382 -0.4108271,0.88625 l -0.2661333,1.276406 z"
         id="path14233" />
      <path
         d="m 9.782873,16.939782 -0.077515,0.382405 q -0.1679482,0.04393 -0.3255611,0.04393 -0.2790523,0 -0.4444167,-0.136943 -0.1240233,-0.103352 -0.1240233,-0.281636 0,-0.09043 0.067179,-0.415995 l 0.3333125,-1.594215 h -0.369486 l 0.074931,-0.361735 h 0.369486 l 0.14211,-0.674377 0.5348504,-0.322977 -0.2092893,0.997354 h 0.45992 l -0.07752,0.361735 H 9.6795203 l -0.3178097,1.516701 q -0.059428,0.289387 -0.059428,0.346231 0,0.08268 0.046509,0.126608 0.049093,0.04392 0.1576129,0.04392 0.1550291,0 0.2764686,-0.03101 z"
         id="path14235" />
      <path
         d="m 11.178135,15.237045 q -0.211873,-0.116271 -0.31781,-0.297139 -0.105937,-0.183451 -0.105937,-0.39274 0,-0.343648 0.248047,-0.635619 0.330729,-0.395325 0.896585,-0.395325 0.498677,0 0.785481,0.268718 0.286804,0.266133 0.286804,0.653706 0,0.276468 -0.15503,0.498677 -0.155029,0.222208 -0.485757,0.353983 0.227376,0.14211 0.325561,0.302306 0.126607,0.20929 0.126607,0.488342 0,0.509012 -0.361735,0.90692 -0.35915,0.397908 -0.958596,0.397908 -0.478007,0 -0.780313,-0.294555 -0.302307,-0.294555 -0.302307,-0.736388 0,-0.415995 0.214457,-0.713134 0.214457,-0.299723 0.583943,-0.40566 z m 0.03617,-0.669208 q 0,0.242878 0.155029,0.39274 0.157613,0.147278 0.431498,0.147278 0.320393,0 0.519347,-0.193787 0.201538,-0.19637 0.201538,-0.48059 0,-0.240295 -0.157613,-0.390157 -0.155029,-0.152445 -0.428914,-0.152445 -0.206705,0 -0.379821,0.0956 -0.173116,0.0956 -0.258382,0.260966 -0.08268,0.162781 -0.08268,0.320394 z m -0.364318,1.826759 q 0,0.157613 0.07493,0.302307 0.07752,0.144694 0.232544,0.22996 0.155029,0.08527 0.353983,0.08527 0.379822,0 0.614949,-0.356567 0.186035,-0.279053 0.186035,-0.60203 0,-0.263549 -0.173116,-0.431498 -0.170532,-0.167948 -0.449584,-0.167948 -0.3514,0 -0.596862,0.260966 -0.242879,0.260965 -0.242879,0.679544 z"
         id="path14237" />
    </g>
    <g
       aria-label="total length"
       id="text13946"
       style="font-style:italic;font-size:5.29166px;line-height:1.25;font-family:Arial;-inkscape-font-specification:'Arial Italic';fill:#00aad4;stroke-width:0.396874">
      <path
         d="m 6.790894,32.709683 -0.077515,0.382405 q -0.1679482,0.04393 -0.3255611,0.04393 -0.2790523,0 -0.4444167,-0.136942 -0.1240233,-0.103353 -0.1240233,-0.281637 0,-0.09043 0.067179,-0.415994 l 0.3333125,-1.594216 h -0.369486 l 0.074931,-0.361735 h 0.369486 l 0.14211,-0.674376 0.5348504,-0.322978 -0.2092893,0.997354 h 0.4599196 l -0.077514,0.361735 H 6.6875413 l -0.3178097,1.516701 q -0.059428,0.289388 -0.059428,0.346232 0,0.08268 0.046509,0.126607 0.049093,0.04393 0.1576129,0.04393 0.1550291,0 0.2764686,-0.03101 z"
         id="path14240" />
      <path
         d="m 7.2508136,32.048225 q 0,-0.803567 0.4728387,-1.330666 0.3901566,-0.434081 1.0231921,-0.434081 0.4960931,0 0.7983998,0.310058 0.3048906,0.310058 0.3048906,0.837157 0,0.472839 -0.1912026,0.881082 -0.1912025,0.405659 -0.5451856,0.6227 -0.3513993,0.217041 -0.7415559,0.217041 -0.3203934,0 -0.5839429,-0.136942 Q 7.5272821,32.877631 7.387756,32.627001 7.2508136,32.37637 7.2508136,32.048225 Z m 0.4676711,-0.04651 q 0,0.387572 0.1860349,0.58911 0.1860349,0.198954 0.4728388,0.198954 0.1498614,0 0.2971391,-0.05943 0.1472776,-0.06201 0.2738847,-0.186035 0.1266071,-0.124024 0.2144569,-0.281637 0.090434,-0.160196 0.1446938,-0.343647 0.080098,-0.255798 0.080098,-0.490926 0,-0.37207 -0.1886187,-0.576191 -0.1860349,-0.206706 -0.470255,-0.206706 -0.2196245,0 -0.4004918,0.105937 -0.1808673,0.103352 -0.3281449,0.30489 -0.1446938,0.201538 -0.2144569,0.470255 -0.067179,0.266133 -0.067179,0.475423 z"
         id="path14242" />
      <path
         d="m 11.204056,32.709683 -0.07752,0.382405 q -0.167948,0.04393 -0.325561,0.04393 -0.279052,0 -0.444417,-0.136942 -0.124023,-0.103353 -0.124023,-0.281637 0,-0.09043 0.06718,-0.415994 l 0.333313,-1.594216 h -0.369486 l 0.07493,-0.361735 h 0.369486 l 0.14211,-0.674376 0.53485,-0.322978 -0.209289,0.997354 h 0.459919 l -0.07751,0.361735 h -0.457336 l -0.31781,1.516701 q -0.05943,0.289388 -0.05943,0.346232 0,0.08268 0.04651,0.126607 0.04909,0.04393 0.157613,0.04393 0.155029,0 0.276469,-0.03101 z"
         id="path14244" />
      <path
         d="m 13.431307,32.74844 q -0.242879,0.20929 -0.467671,0.307475 -0.224792,0.0956 -0.48059,0.0956 -0.379822,0 -0.612365,-0.222208 -0.232544,-0.224793 -0.232544,-0.573608 0,-0.22996 0.103353,-0.40566 0.105936,-0.178283 0.279052,-0.28422 0.173116,-0.10852 0.423746,-0.155029 0.157613,-0.03101 0.596862,-0.04909 0.441833,-0.01809 0.633036,-0.09302 0.05426,-0.191202 0.05426,-0.317809 0,-0.162781 -0.118856,-0.255798 -0.16278,-0.129191 -0.475422,-0.129191 -0.294555,0 -0.483174,0.131774 -0.186035,0.129191 -0.271301,0.369486 l -0.472839,-0.04134 q 0.144694,-0.408243 0.457336,-0.625284 0.315226,-0.21704 0.793232,-0.21704 0.509012,0 0.806151,0.242879 0.227376,0.180867 0.227376,0.470254 0,0.219625 -0.0646,0.509013 l -0.152445,0.682128 q -0.07235,0.325561 -0.07235,0.529682 0,0.129191 0.05684,0.37207 h -0.472839 q -0.03876,-0.134358 -0.05426,-0.341064 z m 0.173116,-1.04903 q -0.09819,0.03876 -0.211873,0.05943 -0.111105,0.02067 -0.374654,0.04392 -0.408243,0.03617 -0.576191,0.09302 -0.167949,0.05426 -0.253215,0.1757 -0.08527,0.121439 -0.08527,0.268717 0,0.19637 0.134359,0.322977 0.136942,0.126607 0.387573,0.126607 0.232543,0 0.447,-0.121439 0.214457,-0.124023 0.33848,-0.343648 0.124024,-0.219625 0.193787,-0.625284 z"
         id="path14246" />
      <path
         d="m 14.488089,33.089504 0.790648,-3.787877 h 0.467671 l -0.790648,3.787877 z"
         id="path14248" />
      <path
         d="m 17.133918,33.089504 0.790648,-3.787877 h 0.467672 l -0.790649,3.787877 z"
         id="path14250" />
      <path
         d="m 20.361108,32.156746 0.454752,0.04651 q -0.09819,0.33848 -0.452168,0.64337 -0.351399,0.304891 -0.839741,0.304891 -0.304891,0 -0.560689,-0.139526 -0.253214,-0.14211 -0.387572,-0.410827 -0.131775,-0.268718 -0.131775,-0.612365 0,-0.449585 0.206705,-0.870747 0.20929,-0.423746 0.540018,-0.627868 0.330729,-0.206705 0.715718,-0.206705 0.490925,0 0.782897,0.30489 0.294555,0.304891 0.294555,0.83199 0,0.201537 -0.03617,0.413411 h -2.020546 q -0.01033,0.0801 -0.01033,0.144693 0,0.384989 0.175699,0.589111 0.178284,0.201538 0.434082,0.201538 0.240295,0 0.472838,-0.157613 0.232544,-0.157613 0.361735,-0.454752 z M 19.00202,31.477202 h 1.539955 q 0.0026,-0.07235 0.0026,-0.103353 0,-0.351399 -0.1757,-0.537434 -0.175699,-0.188619 -0.452168,-0.188619 -0.299723,0 -0.547769,0.206705 -0.245463,0.206706 -0.366902,0.622701 z"
         id="path14252" />
      <path
         d="m 21.288698,33.089504 0.573608,-2.744015 h 0.423746 l -0.100769,0.478007 q 0.276469,-0.281637 0.516764,-0.410827 0.240295,-0.129191 0.490925,-0.129191 0.333313,0 0.521931,0.180867 0.191203,0.180867 0.191203,0.483174 0,0.152445 -0.06718,0.48059 l -0.348816,1.661395 H 23.02244 l 0.364319,-1.738909 q 0.05426,-0.253215 0.05426,-0.374654 0,-0.136942 -0.0956,-0.222208 -0.09302,-0.08527 -0.2713,-0.08527 -0.359151,0 -0.640787,0.258381 -0.279053,0.258382 -0.410827,0.88625 l -0.266134,1.276406 z"
         id="path14254" />
      <path
         d="m 24.20583,33.337551 0.472839,0.04393 q -0.0052,0.160196 0.03876,0.240295 0.04393,0.0801 0.139526,0.124023 0.126608,0.05684 0.328145,0.05684 0.423747,0 0.609781,-0.219624 0.12144,-0.147278 0.224793,-0.640787 l 0.04651,-0.222209 q -0.364318,0.369486 -0.775145,0.369486 -0.415995,0 -0.697631,-0.30489 -0.279052,-0.307475 -0.279052,-0.868163 0,-0.462504 0.219624,-0.850076 0.222209,-0.387573 0.527099,-0.583943 0.304891,-0.198954 0.627868,-0.198954 0.540018,0 0.831989,0.511596 l 0.09302,-0.449585 h 0.428914 l -0.552937,2.648414 q -0.09043,0.436665 -0.237712,0.679544 -0.147277,0.245463 -0.410827,0.379821 -0.260965,0.134359 -0.604613,0.134359 -0.330729,0 -0.571024,-0.08527 -0.237711,-0.08527 -0.356567,-0.25063 -0.116272,-0.162781 -0.116272,-0.374654 0,-0.0646 0.01292,-0.139526 z m 0.583943,-1.462441 q 0,0.281636 0.05426,0.423746 0.07752,0.198954 0.219625,0.30489 0.144694,0.103353 0.320393,0.103353 0.22996,0 0.457336,-0.160197 0.227376,-0.16278 0.366902,-0.50126 0.14211,-0.338481 0.14211,-0.645955 0,-0.33848 -0.188618,-0.537434 -0.186035,-0.201538 -0.462504,-0.201538 -0.170532,0 -0.330729,0.09302 -0.160196,0.09043 -0.299722,0.279052 -0.136943,0.186035 -0.20929,0.447 -0.06976,0.260966 -0.06976,0.395325 z"
         id="path14256" />
      <path
         d="m 28.267592,32.709683 -0.07752,0.382405 q -0.167948,0.04393 -0.325561,0.04393 -0.279052,0 -0.444416,-0.136942 -0.124024,-0.103353 -0.124024,-0.281637 0,-0.09043 0.06718,-0.415994 l 0.333312,-1.594216 h -0.369486 l 0.07493,-0.361735 h 0.369486 l 0.14211,-0.674376 0.53485,-0.322978 -0.209289,0.997354 h 0.45992 l -0.07752,0.361735 h -0.457336 l -0.317809,1.516701 q -0.05943,0.289388 -0.05943,0.346232 0,0.08268 0.04651,0.126607 0.04909,0.04393 0.157613,0.04393 0.155029,0 0.276469,-0.03101 z"
         id="path14258" />
      <path
         d="m 28.644829,33.089504 0.790648,-3.787877 h 0.467671 l -0.302307,1.454689 q 0.260966,-0.253214 0.485758,-0.361734 0.224793,-0.111104 0.462504,-0.111104 0.341064,0 0.529683,0.180867 0.188618,0.178283 0.188618,0.472839 0,0.144693 -0.08268,0.532266 l -0.33848,1.620054 h -0.467671 l 0.348815,-1.661395 q 0.07493,-0.361734 0.07493,-0.454752 0,-0.134358 -0.09302,-0.219624 -0.09302,-0.08527 -0.268718,-0.08527 -0.253214,0 -0.483174,0.134358 -0.229959,0.131775 -0.361734,0.364318 -0.129191,0.22996 -0.237711,0.74414 L 29.1125,33.089504 Z"
         id="path14260" />
    </g>
    <g
       aria-label="uint32"
       id="text14730"
       style="font-style:italic;font-size:5.29166px;line-height:1.25;font-family:Arial;-inkscape-font-specification:'Arial Italic';stroke-width:0.396874">
      <path
         d="m 7.5376158,38.353871 q -0.4935093,0.558105 -1.0102729,0.558105 -0.3178097,0 -0.5141799,-0.180867 -0.1937863,-0.183452 -0.1937863,-0.447001 0,-0.173116 0.08785,-0.594278 l 0.3307287,-1.583881 h 0.4676711 l -0.3669021,1.754413 q -0.046509,0.219624 -0.046509,0.341064 0,0.155029 0.093018,0.242879 0.095601,0.08527 0.2790524,0.08527 0.1963701,0 0.3824051,-0.0956 0.1886187,-0.0956 0.3229772,-0.258381 Q 7.50661,38.012807 7.591876,37.790599 7.64872,37.648489 7.7236507,37.291922 L 7.9716973,36.105949 H 8.4393684 L 7.8657608,38.849964 H 7.4342631 Z"
         id="path14263" />
      <path
         d="M 9.271358,35.591769 9.3824621,35.062087 H 9.8475494 L 9.7364453,35.591769 Z M 8.5892299,38.849964 9.1628376,36.105949 H 9.6305087 L 9.056901,38.849964 Z"
         id="path14265" />
      <path
         d="m 9.7829541,38.849964 0.5736079,-2.744015 h 0.423746 l -0.100769,0.478007 q 0.276469,-0.281637 0.516764,-0.410828 0.240295,-0.129191 0.490925,-0.129191 0.333313,0 0.521932,0.180868 0.191202,0.180867 0.191202,0.483174 0,0.152445 -0.06718,0.48059 l -0.348816,1.661395 h -0.467671 l 0.364319,-1.73891 q 0.05426,-0.253214 0.05426,-0.374653 0,-0.136943 -0.0956,-0.222209 -0.09302,-0.08527 -0.2713,-0.08527 -0.359151,0 -0.640787,0.258382 -0.279053,0.258382 -0.410827,0.88625 l -0.266134,1.276406 z"
         id="path14267" />
      <path
         d="m 13.818878,38.470143 -0.07751,0.382405 q -0.167949,0.04393 -0.325562,0.04393 -0.279052,0 -0.444416,-0.136942 -0.124024,-0.103353 -0.124024,-0.281637 0,-0.09043 0.06718,-0.415994 l 0.333312,-1.594216 h -0.369486 l 0.07493,-0.361735 h 0.369486 l 0.14211,-0.674376 0.53485,-0.322978 -0.209289,0.997354 h 0.45992 l -0.07752,0.361735 h -0.457336 l -0.317809,1.516701 q -0.05943,0.289388 -0.05943,0.346232 0,0.08268 0.04651,0.126607 0.04909,0.04393 0.157613,0.04393 0.155029,0 0.276468,-0.03101 z"
         id="path14269" />
      <path
         d="m 14.309803,37.857778 0.454752,-0.05684 q 0.05168,0.397908 0.227376,0.571024 0.178284,0.170532 0.465088,0.170532 0.346231,0 0.596862,-0.248047 0.253214,-0.248046 0.253214,-0.56844 0,-0.279052 -0.188619,-0.459919 -0.188619,-0.183452 -0.506428,-0.183452 -0.03617,0 -0.149862,0.01034 l 0.0801,-0.390157 q 0.06718,0.01034 0.129191,0.01034 0.400491,0 0.614948,-0.193786 0.217041,-0.19637 0.217041,-0.48059 0,-0.260966 -0.178283,-0.439249 -0.1757,-0.178284 -0.431498,-0.178284 -0.25063,0 -0.452168,0.183451 -0.198954,0.180868 -0.255798,0.51418 l -0.45992,-0.09302 q 0.113688,-0.467671 0.436665,-0.723469 0.322978,-0.255798 0.764811,-0.255798 0.465087,0 0.751891,0.281636 0.289387,0.281636 0.289387,0.692463 0,0.299723 -0.157612,0.524515 -0.15503,0.222209 -0.467672,0.369486 0.222209,0.131775 0.330729,0.31781 0.111104,0.186035 0.111104,0.42633 0,0.509012 -0.382405,0.883666 -0.379821,0.37207 -0.909504,0.37207 -0.51418,0 -0.831989,-0.286804 -0.315226,-0.289388 -0.3514,-0.769978 z"
         id="path14271" />
      <path
         d="m 17.273443,38.849964 q 0.07235,-0.33848 0.198954,-0.565856 0.129191,-0.22996 0.341064,-0.434082 0.211873,-0.206705 0.816487,-0.689879 0.366902,-0.291971 0.501261,-0.431498 0.193786,-0.201537 0.281636,-0.395324 0.05943,-0.131775 0.05943,-0.286804 0,-0.260965 -0.186035,-0.441833 -0.183451,-0.183451 -0.452168,-0.183451 -0.266134,0 -0.465088,0.186035 -0.198954,0.183451 -0.28422,0.591695 l -0.457336,-0.06718 q 0.06718,-0.503844 0.390157,-0.793232 0.325561,-0.291971 0.808735,-0.291971 0.322977,0 0.583943,0.134358 0.263549,0.134359 0.395324,0.377238 0.131775,0.242879 0.131775,0.50126 0,0.377238 -0.268717,0.726053 -0.165365,0.217041 -0.971516,0.855244 -0.346231,0.273885 -0.516763,0.449585 -0.167949,0.175699 -0.253215,0.330728 h 1.694985 l -0.09043,0.428914 z"
         id="path14273" />
    </g>
    <g
       aria-label="checksum"
       id="text18232"
       style="font-style:italic;font-size:5.29166px;line-height:1.25;font-family:Arial;-inkscape-font-specification:'Arial Italic';fill:#71c837;stroke-width:0.396874">
      <path
         d="m 24.943238,10.691051 0.467672,0.04909 q -0.1757,0.51418 -0.501261,0.764811 -0.322977,0.248046 -0.736388,0.248046 -0.447001,0 -0.726053,-0.289387 -0.276469,-0.289388 -0.276469,-0.808736 0,-0.449584 0.178284,-0.8836654 0.178283,-0.4340815 0.509012,-0.6588737 0.333312,-0.227376 0.759642,-0.227376 0.441833,0 0.700215,0.2506304 0.258382,0.2480465 0.258382,0.6588736 l -0.45992,0.031006 Q 25.11377,9.5645061 24.963909,9.4172285 24.816631,9.2699508 24.573752,9.2699508 q -0.281636,0 -0.488341,0.1782835 -0.206706,0.1782834 -0.325561,0.5426018 -0.116272,0.3617349 -0.116272,0.6976309 0,0.351399 0.155029,0.527099 0.155029,0.1757 0.382405,0.1757 0.227376,0 0.434082,-0.173116 0.209289,-0.173116 0.328144,-0.527099 z"
         id="path14276" />
      <path
         d="m 25.69513,11.690989 0.790648,-3.7878781 h 0.467671 l -0.302307,1.4546897 q 0.260966,-0.2532142 0.485758,-0.3617345 0.224792,-0.1111042 0.462504,-0.1111042 0.341064,0 0.529682,0.1808673 0.188619,0.1782834 0.188619,0.4728387 0,0.1446938 -0.08268,0.5322661 l -0.33848,1.620055 h -0.467671 l 0.348815,-1.661396 q 0.07493,-0.3617342 0.07493,-0.4547516 0,-0.1343586 -0.09302,-0.2196246 -0.09302,-0.085266 -0.268717,-0.085266 -0.253214,0 -0.483174,0.1343586 -0.22996,0.1317747 -0.361734,0.3643183 -0.129191,0.2299599 -0.237712,0.7441393 l -0.245462,1.178222 z"
         id="path14278" />
      <path
         d="m 30.653477,10.75823 0.454752,0.04651 q -0.09819,0.33848 -0.452168,0.643371 -0.3514,0.30489 -0.839741,0.30489 -0.304891,0 -0.560689,-0.139526 -0.253214,-0.14211 -0.387573,-0.410827 -0.131774,-0.268717 -0.131774,-0.612365 0,-0.449584 0.206705,-0.8707468 0.209289,-0.4237462 0.540018,-0.6278678 0.330729,-0.2067055 0.715718,-0.2067055 0.490925,0 0.782897,0.3048905 0.294555,0.3048906 0.294555,0.8319896 0,0.201538 -0.03617,0.413411 h -2.020546 q -0.01034,0.0801 -0.01034,0.144694 0,0.384989 0.1757,0.58911 0.178284,0.201538 0.434082,0.201538 0.240295,0 0.472838,-0.157613 0.232544,-0.157613 0.361735,-0.454752 z m -1.359089,-0.679544 h 1.539956 q 0.0026,-0.07235 0.0026,-0.1033528 0,-0.3513993 -0.1757,-0.5374342 -0.175699,-0.1886187 -0.452168,-0.1886187 -0.299723,0 -0.547769,0.2067054 -0.245463,0.2067055 -0.366903,0.6227003 z"
         id="path14280" />
      <path
         d="m 33.475006,10.691051 0.467671,0.04909 q -0.175699,0.51418 -0.50126,0.764811 -0.322978,0.248046 -0.736389,0.248046 -0.447,0 -0.726052,-0.289387 -0.276469,-0.289388 -0.276469,-0.808736 0,-0.449584 0.178283,-0.8836654 0.178284,-0.4340815 0.509013,-0.6588737 0.333312,-0.227376 0.759642,-0.227376 0.441833,0 0.700215,0.2506304 0.258382,0.2480465 0.258382,0.6588736 l -0.45992,0.031006 Q 33.645538,9.5645061 33.495677,9.4172285 33.348399,9.2699508 33.10552,9.2699508 q -0.281636,0 -0.488341,0.1782835 -0.206706,0.1782834 -0.325561,0.5426018 -0.116272,0.3617349 -0.116272,0.6976309 0,0.351399 0.155029,0.527099 0.155029,0.1757 0.382405,0.1757 0.227376,0 0.434081,-0.173116 0.20929,-0.173116 0.328145,-0.527099 z"
         id="path14282" />
      <path
         d="m 34.232065,11.690989 0.793232,-3.7878781 h 0.465088 l -0.490926,2.3486911 1.364256,-1.3048285 h 0.617533 l -1.17047,1.0231921 0.707966,1.7208234 h -0.511596 l -0.547769,-1.408181 -0.56844,0.490925 -0.191203,0.917256 z"
         id="path14284" />
      <path
         d="m 36.916653,10.753063 0.467671,-0.02842 q 0,0.201537 0.06201,0.343647 0.06201,0.14211 0.227376,0.232544 0.167949,0.09043 0.390157,0.09043 0.310058,0 0.465087,-0.124024 0.155029,-0.124023 0.155029,-0.291971 0,-0.12144 -0.09302,-0.22996 -0.0956,-0.10852 -0.467671,-0.266133 -0.369486,-0.160197 -0.472839,-0.224792 -0.173116,-0.105937 -0.260966,-0.248047 -0.08785,-0.1446938 -0.08785,-0.3307287 0,-0.3255611 0.258381,-0.5581048 0.258382,-0.2325436 0.72347,-0.2325436 0.516763,0 0.78548,0.2402951 0.271301,0.2377113 0.281637,0.6278678 l -0.457336,0.031006 q -0.01034,-0.2480466 -0.1757,-0.3927404 -0.165364,-0.1446938 -0.467671,-0.1446938 -0.242879,0 -0.377238,0.1111041 -0.134358,0.1111042 -0.134358,0.2402951 0,0.1291909 0.116272,0.227376 0.07751,0.067179 0.400492,0.2067053 0.537434,0.232544 0.67696,0.366902 0.222208,0.214457 0.222208,0.521932 0,0.204121 -0.126607,0.400492 -0.124023,0.19637 -0.382405,0.315225 -0.255798,0.116272 -0.604613,0.116272 -0.475423,0 -0.808735,-0.235127 -0.333313,-0.235128 -0.315226,-0.76481 z"
         id="path14286" />
      <path
         d="M 41.391825,11.194895 Q 40.898316,11.753 40.381552,11.753 q -0.317809,0 -0.51418,-0.180867 -0.193786,-0.183451 -0.193786,-0.447001 0,-0.173115 0.08785,-0.594278 l 0.330729,-1.5838805 h 0.467671 l -0.366902,1.7544125 q -0.04651,0.219625 -0.04651,0.341064 0,0.155029 0.09302,0.242879 0.0956,0.08527 0.279053,0.08527 0.19637,0 0.382405,-0.0956 0.188619,-0.0956 0.322977,-0.258382 0.136942,-0.162781 0.222208,-0.384989 0.05684,-0.14211 0.131775,-0.498677 l 0.248047,-1.1859725 h 0.467671 L 41.71997,11.690989 h -0.431497 z"
         id="path14288" />
      <path
         d="m 42.458943,11.690989 0.573608,-2.7440155 h 0.467671 l -0.0956,0.4521682 q 0.260966,-0.2919714 0.465087,-0.4030756 0.206706,-0.1111042 0.447001,-0.1111042 0.255798,0 0.42633,0.1369424 0.173116,0.1343585 0.227376,0.3772374 0.209289,-0.2583818 0.439249,-0.3849889 0.232544,-0.1291909 0.488342,-0.1291909 0.343647,0 0.514179,0.1627805 0.173116,0.1627806 0.173116,0.4573359 0,0.1266071 -0.05943,0.4185785 l -0.369486,1.7673322 h -0.467671 l 0.377238,-1.8138409 q 0.04909,-0.2222084 0.04909,-0.3178096 0,-0.1343586 -0.08527,-0.2118731 -0.08527,-0.077515 -0.240295,-0.077515 -0.209289,0 -0.42633,0.1266071 -0.217041,0.1266071 -0.33848,0.3333126 -0.118856,0.2041216 -0.209289,0.6304515 l -0.279053,1.330667 h -0.467671 l 0.387573,-1.8525982 q 0.04134,-0.1886187 0.04134,-0.2687171 0,-0.1343585 -0.08527,-0.2170407 -0.08268,-0.082682 -0.217041,-0.082682 -0.198954,0 -0.418578,0.1266071 -0.217041,0.1266071 -0.353983,0.3539831 -0.136943,0.2247922 -0.224793,0.643371 l -0.2713,1.297077 z"
         id="path14290" />
    </g>
    <g
       aria-label="uint32"
       id="text18950"
       style="font-style:italic;font-size:5.29166px;line-height:1.25;font-family:Arial;-inkscape-font-specification:'Arial Italic';stroke-width:0.396874">
      <path
         d="m 24.888979,16.824801 q -0.493509,0.558105 -1.010272,0.558105 -0.31781,0 -0.51418,-0.180867 -0.193787,-0.183451 -0.193787,-0.447001 0,-0.173116 0.08785,-0.594278 l 0.330729,-1.583881 h 0.467671 l -0.366902,1.754413 q -0.04651,0.219624 -0.04651,0.341064 0,0.155029 0.09302,0.242879 0.0956,0.08527 0.279052,0.08527 0.19637,0 0.382405,-0.0956 0.188619,-0.0956 0.322977,-0.258381 0.136943,-0.162781 0.222209,-0.384989 0.05684,-0.14211 0.131774,-0.498677 l 0.248047,-1.185973 h 0.467671 l -0.573608,2.744015 h -0.431497 z"
         id="path14293" />
      <path
         d="m 26.622722,14.062699 0.111104,-0.529682 h 0.465087 l -0.111104,0.529682 z m -0.682128,3.258195 0.573607,-2.744015 h 0.467671 l -0.573607,2.744015 z"
         id="path14295" />
      <path
         d="m 27.134318,17.320894 0.573607,-2.744015 h 0.423747 l -0.100769,0.478007 q 0.276468,-0.281637 0.516763,-0.410827 0.240296,-0.129191 0.490926,-0.129191 0.333312,0 0.521931,0.180867 0.191203,0.180867 0.191203,0.483174 0,0.152445 -0.06718,0.48059 l -0.348815,1.661395 H 28.86806 l 0.364318,-1.738909 q 0.05426,-0.253215 0.05426,-0.374654 0,-0.136942 -0.0956,-0.222208 -0.09302,-0.08527 -0.271301,-0.08527 -0.359151,0 -0.640787,0.258381 -0.279052,0.258382 -0.410827,0.88625 l -0.266133,1.276406 z"
         id="path14297" />
      <path
         d="m 31.170242,16.941073 -0.07751,0.382405 q -0.167948,0.04392 -0.325561,0.04392 -0.279052,0 -0.444417,-0.136942 -0.124023,-0.103353 -0.124023,-0.281637 0,-0.09043 0.06718,-0.415994 l 0.333313,-1.594216 h -0.369486 l 0.07493,-0.361735 h 0.369486 l 0.14211,-0.674376 0.53485,-0.322978 -0.209289,0.997354 h 0.459919 l -0.07751,0.361735 h -0.457336 l -0.31781,1.516701 q -0.05943,0.289388 -0.05943,0.346232 0,0.08268 0.04651,0.126607 0.04909,0.04393 0.157613,0.04393 0.155029,0 0.276469,-0.03101 z"
         id="path14299" />
      <path
         d="m 31.661167,16.328708 0.454752,-0.05684 q 0.05168,0.397908 0.227376,0.571024 0.178284,0.170532 0.465087,0.170532 0.346232,0 0.596862,-0.248047 0.253215,-0.248046 0.253215,-0.56844 0,-0.279052 -0.188619,-0.459919 -0.188619,-0.183451 -0.506428,-0.183451 -0.03617,0 -0.149862,0.01033 l 0.0801,-0.390157 q 0.06718,0.01034 0.129191,0.01034 0.400492,0 0.614949,-0.193787 0.217041,-0.19637 0.217041,-0.48059 0,-0.260966 -0.178284,-0.439249 -0.175699,-0.178284 -0.431497,-0.178284 -0.250631,0 -0.452169,0.183451 -0.198954,0.180868 -0.255798,0.51418 l -0.459919,-0.09302 q 0.113688,-0.467671 0.436665,-0.723469 0.322977,-0.255798 0.76481,-0.255798 0.465088,0 0.751891,0.281636 0.289388,0.281636 0.289388,0.692463 0,0.299723 -0.157613,0.524515 -0.155029,0.222209 -0.467671,0.369486 0.222208,0.131775 0.330729,0.31781 0.111104,0.186035 0.111104,0.42633 0,0.509012 -0.382405,0.883666 -0.379821,0.37207 -0.909504,0.37207 -0.51418,0 -0.83199,-0.286804 -0.315225,-0.289388 -0.351399,-0.769978 z"
         id="path14301" />
      <path
         d="m 34.624807,17.320894 q 0.07235,-0.33848 0.198954,-0.565856 0.129191,-0.22996 0.341064,-0.434081 0.211873,-0.206706 0.816487,-0.68988 0.366902,-0.291971 0.50126,-0.431498 0.193787,-0.201537 0.281636,-0.395324 0.05943,-0.131774 0.05943,-0.286804 0,-0.260965 -0.186035,-0.441833 -0.183451,-0.183451 -0.452168,-0.183451 -0.266133,0 -0.465087,0.186035 -0.198954,0.183451 -0.28422,0.591695 l -0.457336,-0.06718 q 0.06718,-0.503844 0.390157,-0.793232 0.325561,-0.291971 0.808735,-0.291971 0.322977,0 0.583943,0.134358 0.263549,0.134359 0.395324,0.377238 0.131775,0.242879 0.131775,0.501261 0,0.377237 -0.268717,0.726052 -0.165365,0.217041 -0.971516,0.855244 -0.346232,0.273885 -0.516764,0.449585 -0.167948,0.175699 -0.253214,0.330728 h 1.694985 l -0.09043,0.428914 z"
         id="path14303" />
    </g>
    <g
       aria-label="profile 1 (3nt)"
       id="text20952"
       style="font-style:italic;font-size:5.29166px;line-height:1.25;font-family:Arial;-inkscape-font-specification:'Arial Italic';stroke-width:0.396874">
      <path
         d="m 50.765457,12.977767 0.793232,-3.7956288 h 0.431498 l -0.0801,0.3824051 q 0.240295,-0.2506304 0.428914,-0.3462317 0.191202,-0.098185 0.403075,-0.098185 0.392741,0 0.651122,0.2868039 0.258382,0.28422 0.258382,0.8164866 0,0.428914 -0.14211,0.782897 -0.14211,0.351399 -0.348815,0.565856 -0.206706,0.214457 -0.418579,0.315226 -0.211873,0.100769 -0.434081,0.100769 -0.49351,0 -0.76481,-0.501261 l -0.310059,1.490863 z m 0.925007,-2.172991 q 0,0.307474 0.04393,0.42633 0.0646,0.167948 0.211873,0.271301 0.147278,0.103353 0.341064,0.103353 0.403076,0 0.651122,-0.452168 0.248047,-0.454752 0.248047,-0.927591 0,-0.3488157 -0.167948,-0.5374344 -0.165365,-0.1912026 -0.413411,-0.1912026 -0.178284,0 -0.330729,0.095601 -0.152445,0.093017 -0.28422,0.2816362 -0.129191,0.1860345 -0.214457,0.4573355 -0.08527,0.271301 -0.08527,0.472839 z"
         id="path14306" />
      <path
         d="m 53.938386,11.926153 0.573608,-2.7440148 h 0.413411 l -0.116272,0.5606885 q 0.211873,-0.3178096 0.413411,-0.4702549 0.204121,-0.1524453 0.415995,-0.1524453 0.139526,0 0.343647,0.1007689 l -0.191202,0.4340815 q -0.12144,-0.08785 -0.266133,-0.08785 -0.245463,0 -0.503845,0.2738847 -0.258382,0.2738852 -0.405659,0.9844352 l -0.232544,1.100706 z"
         id="path14308" />
      <path
         d="m 55.783233,10.884874 q 0,-0.803567 0.472838,-1.330666 0.390157,-0.4340815 1.023192,-0.4340815 0.496094,0 0.7984,0.3100582 0.304891,0.3100582 0.304891,0.8371573 0,0.472839 -0.191203,0.881082 -0.191202,0.405659 -0.545185,0.6227 -0.3514,0.217041 -0.741556,0.217041 -0.320394,0 -0.583943,-0.136943 -0.260966,-0.136942 -0.400492,-0.387572 -0.136942,-0.250631 -0.136942,-0.578776 z m 0.467671,-0.04651 q 0,0.387572 0.186035,0.58911 0.186035,0.198954 0.472838,0.198954 0.149862,0 0.29714,-0.05943 0.147277,-0.06201 0.273884,-0.186034 0.126607,-0.124024 0.214457,-0.281637 0.09043,-0.160196 0.144694,-0.343647 0.0801,-0.255799 0.0801,-0.490926 0,-0.3720698 -0.188618,-0.5761914 -0.186035,-0.2067055 -0.470255,-0.2067055 -0.219625,0 -0.400492,0.1059365 -0.180867,0.1033528 -0.328145,0.3048906 -0.144694,0.2015378 -0.214457,0.4702548 -0.06718,0.266133 -0.06718,0.475423 z"
         id="path14310" />
      <path
         d="m 58.708115,11.926153 0.498677,-2.3822803 h -0.418579 l 0.07493,-0.3617345 h 0.418578 l 0.0801,-0.3901566 q 0.06201,-0.2919715 0.126607,-0.4211624 0.06718,-0.1291909 0.214457,-0.2118731 0.149861,-0.085266 0.405659,-0.085266 0.178284,0 0.516764,0.074931 l -0.08527,0.4082432 q -0.237711,-0.062012 -0.397908,-0.062012 -0.136942,0 -0.209289,0.069763 -0.06976,0.067179 -0.12144,0.3229773 l -0.06201,0.2945553 h 0.521931 l -0.07493,0.3617345 h -0.521931 l -0.498677,2.3822803 z"
         id="path14312" />
      <path
         d="m 60.777753,8.6679583 0.111104,-0.5296827 h 0.465088 L 61.24284,8.6679583 Z m -0.682128,3.2581947 0.573608,-2.7440148 h 0.467671 l -0.573608,2.7440148 z"
         id="path14314" />
      <path
         d="m 61.253176,11.926153 0.790648,-3.7878774 h 0.467671 l -0.790648,3.7878774 z"
         id="path14316" />
      <path
         d="m 64.480365,10.993395 0.454752,0.04651 q -0.09819,0.33848 -0.452169,0.64337 -0.351399,0.304891 -0.839741,0.304891 -0.30489,0 -0.560688,-0.139526 -0.253214,-0.14211 -0.387573,-0.410827 -0.131775,-0.268718 -0.131775,-0.612365 0,-0.449585 0.206706,-0.8707472 0.209289,-0.4237462 0.540018,-0.6278678 0.330729,-0.2067055 0.715717,-0.2067055 0.490926,0 0.782897,0.3048906 0.294556,0.3048905 0.294556,0.8319899 0,0.201537 -0.03617,0.413411 h -2.020546 q -0.01034,0.0801 -0.01034,0.144693 0,0.384989 0.1757,0.589111 0.178283,0.201538 0.434081,0.201538 0.240295,0 0.472839,-0.157613 0.232544,-0.157613 0.361735,-0.454752 z m -1.359089,-0.679544 h 1.539956 q 0.0026,-0.07235 0.0026,-0.103353 0,-0.3513994 -0.1757,-0.5374344 -0.1757,-0.1886187 -0.452168,-0.1886187 -0.299723,0 -0.54777,0.2067055 -0.245462,0.2067054 -0.366902,0.6227006 z"
         id="path14318" />
      <path
         d="M 67.976271,11.926153 68.575717,9.0658663 Q 68.188144,9.3707569 67.485346,9.554208 l 0.08785,-0.4237462 q 0.348815,-0.1395262 0.687295,-0.3643184 0.341064,-0.2247922 0.511596,-0.3927403 0.103353,-0.1033528 0.19637,-0.2506304 h 0.271301 l -0.793232,3.8033803 z"
         id="path14320" />
      <path
         d="m 71.96827,13.039779 q -0.405659,-0.888834 -0.405659,-1.82676 0,-0.625284 0.16278,-1.162718 0.165365,-0.5400179 0.501261,-1.0671168 0.222208,-0.3513993 0.71055,-0.9095041 h 0.364318 q -0.302306,0.3229773 -0.640787,0.9095041 -0.335896,0.5865267 -0.488341,1.1523828 -0.152445,0.565856 -0.152445,1.13688 0,0.85266 0.297139,1.767332 z"
         id="path14322" />
      <path
         d="m 73.167163,10.933967 0.454752,-0.05684 q 0.05168,0.397908 0.227376,0.571024 0.178283,0.170532 0.465087,0.170532 0.346232,0 0.596862,-0.248047 0.253214,-0.248046 0.253214,-0.56844 0,-0.279052 -0.188618,-0.459919 -0.188619,-0.183452 -0.506429,-0.183452 -0.03617,0 -0.149861,0.01034 l 0.0801,-0.3901568 q 0.06718,0.010335 0.129191,0.010335 0.400492,0 0.614949,-0.1937864 0.217041,-0.1963702 0.217041,-0.4805902 0,-0.2609656 -0.178284,-0.4392491 -0.1757,-0.1782835 -0.431498,-0.1782835 -0.25063,0 -0.452168,0.1834511 -0.198954,0.1808673 -0.255798,0.5141799 l -0.459919,-0.093018 q 0.113688,-0.4676711 0.436665,-0.7234691 0.322977,-0.255798 0.76481,-0.255798 0.465087,0 0.751891,0.2816362 0.289388,0.2816362 0.289388,0.6924633 0,0.2997229 -0.157613,0.5245151 -0.155029,0.2222084 -0.467671,0.369486 0.222208,0.1317747 0.330729,0.3178097 0.111104,0.186035 0.111104,0.42633 0,0.509012 -0.382405,0.883666 -0.379822,0.37207 -0.909504,0.37207 -0.51418,0 -0.83199,-0.286804 -0.315226,-0.289388 -0.351399,-0.769978 z"
         id="path14324" />
      <path
         d="m 75.996443,11.926153 0.573608,-2.7440148 h 0.423746 l -0.100769,0.4780064 q 0.276469,-0.2816362 0.516764,-0.4108272 0.240295,-0.1291909 0.490925,-0.1291909 0.333313,0 0.521932,0.1808673 0.191202,0.1808673 0.191202,0.483174 0,0.1524453 -0.06718,0.4805902 l -0.348816,1.661395 h -0.467671 l 0.364319,-1.73891 q 0.05426,-0.2532137 0.05426,-0.3746532 0,-0.1369423 -0.0956,-0.2222083 -0.09302,-0.085266 -0.271301,-0.085266 -0.359151,0 -0.640787,0.2583818 -0.279053,0.2583817 -0.410827,0.8862497 l -0.266134,1.276406 z"
         id="path14326" />
      <path
         d="m 80.032367,11.546332 -0.07751,0.382405 q -0.167948,0.04392 -0.325561,0.04392 -0.279052,0 -0.444417,-0.136942 -0.124023,-0.103353 -0.124023,-0.281637 0,-0.09043 0.06718,-0.415994 l 0.333313,-1.5942163 h -0.369486 l 0.07493,-0.3617345 h 0.369486 l 0.14211,-0.6743766 0.53485,-0.3229773 -0.209289,0.9973539 h 0.459919 l -0.07751,0.3617345 h -0.457336 l -0.31781,1.5167013 q -0.05943,0.289388 -0.05943,0.346232 0,0.08268 0.04651,0.126607 0.04909,0.04392 0.157613,0.04392 0.155029,0 0.276469,-0.03101 z"
         id="path14328" />
      <path
         d="m 81.282936,8.0736801 q 0.408243,0.8888335 0.408243,1.8241757 0,0.6278682 -0.165364,1.1653022 -0.162781,0.537434 -0.498677,1.067117 -0.224792,0.351399 -0.71055,0.909504 H 79.95227 q 0.299723,-0.325561 0.638203,-0.912088 0.33848,-0.586527 0.488341,-1.149799 0.152446,-0.565856 0.152446,-1.139464 0,-0.85266 -0.297139,-1.7647479 z"
         id="path14330" />
    </g>
    <g
       aria-label="profile 2 (2nt)"
       id="text22792"
       style="font-style:italic;font-size:5.29166px;line-height:1.25;font-family:Arial;-inkscape-font-specification:'Arial Italic';stroke-width:0.396874">
      <path
         d="m 94.212341,12.977767 0.793233,-3.7956288 h 0.431497 l -0.0801,0.3824051 q 0.240295,-0.2506304 0.428914,-0.3462317 0.191202,-0.098185 0.403075,-0.098185 0.392741,0 0.651123,0.2868039 0.258381,0.28422 0.258381,0.8164866 0,0.428914 -0.14211,0.782897 -0.14211,0.351399 -0.348815,0.565856 -0.206706,0.214457 -0.418579,0.315226 -0.211873,0.100769 -0.434081,0.100769 -0.493509,0 -0.76481,-0.501261 l -0.310059,1.490863 z m 0.925007,-2.172991 q 0,0.307474 0.04393,0.42633 0.0646,0.167948 0.211873,0.271301 0.147278,0.103353 0.341064,0.103353 0.403076,0 0.651123,-0.452168 0.248046,-0.454752 0.248046,-0.927591 0,-0.3488157 -0.167948,-0.5374344 Q 96.300067,9.497364 96.05202,9.497364 q -0.178283,0 -0.330729,0.095601 -0.152445,0.093017 -0.28422,0.2816362 -0.129191,0.1860345 -0.214457,0.4573355 -0.08527,0.271301 -0.08527,0.472839 z"
         id="path14333" />
      <path
         d="m 97.38527,11.926153 0.573608,-2.7440148 h 0.413411 l -0.116272,0.5606885 q 0.211873,-0.3178096 0.413411,-0.4702549 0.204122,-0.1524453 0.415995,-0.1524453 0.139526,0 0.343648,0.1007689 l -0.191203,0.4340815 q -0.121439,-0.08785 -0.266133,-0.08785 -0.245463,0 -0.503845,0.2738847 -0.258382,0.2738852 -0.405659,0.9844352 l -0.232544,1.100706 z"
         id="path14335" />
      <path
         d="m 99.230117,10.884874 q 0,-0.803567 0.472839,-1.330666 0.390154,-0.4340815 1.023194,-0.4340815 0.49609,0 0.7984,0.3100582 0.30489,0.3100582 0.30489,0.8371573 0,0.472839 -0.1912,0.881082 -0.19121,0.405659 -0.54519,0.6227 -0.3514,0.217041 -0.74156,0.217041 -0.32039,0 -0.583939,-0.136943 -0.260966,-0.136942 -0.400492,-0.387572 -0.136942,-0.250631 -0.136942,-0.578776 z m 0.467671,-0.04651 q 0,0.387572 0.186035,0.58911 0.186037,0.198954 0.472837,0.198954 0.14986,0 0.29714,-0.05943 0.14728,-0.06201 0.27389,-0.186034 0.1266,-0.124024 0.21445,-0.281637 0.0904,-0.160196 0.1447,-0.343647 0.0801,-0.255799 0.0801,-0.490926 0,-0.3720698 -0.18861,-0.5761914 -0.18604,-0.2067055 -0.47026,-0.2067055 -0.21962,0 -0.40049,0.1059365 -0.18087,0.1033528 -0.328146,0.3048906 -0.144694,0.2015378 -0.214457,0.4702548 -0.06718,0.266133 -0.06718,0.475423 z"
         id="path14337" />
      <path
         d="m 102.155,11.926153 0.49868,-2.3822803 h -0.41858 l 0.0749,-0.3617345 h 0.41858 l 0.0801,-0.3901566 q 0.062,-0.2919715 0.12661,-0.4211624 0.0672,-0.1291909 0.21446,-0.2118731 0.14986,-0.085266 0.40566,-0.085266 0.17828,0 0.51676,0.074931 l -0.0853,0.4082432 q -0.23772,-0.062012 -0.39791,-0.062012 -0.13694,0 -0.20929,0.069763 -0.0698,0.067179 -0.12144,0.3229773 l -0.062,0.2945553 h 0.52193 l -0.0749,0.3617345 h -0.52193 l -0.49868,2.3822803 z"
         id="path14339" />
      <path
         d="m 104.22464,8.6679583 0.1111,-0.5296827 h 0.46509 l -0.11111,0.5296827 z m -0.68213,3.2581947 0.57361,-2.7440148 h 0.46767 l -0.57361,2.7440148 z"
         id="path14341" />
      <path
         d="m 104.70006,11.926153 0.79065,-3.7878774 h 0.46767 l -0.79065,3.7878774 z"
         id="path14343" />
      <path
         d="m 107.92725,10.993395 0.45475,0.04651 q -0.0982,0.33848 -0.45217,0.64337 -0.3514,0.304891 -0.83974,0.304891 -0.30489,0 -0.56069,-0.139526 -0.25321,-0.14211 -0.38757,-0.410827 -0.13177,-0.268718 -0.13177,-0.612365 0,-0.449585 0.2067,-0.8707472 0.20929,-0.4237462 0.54002,-0.6278678 0.33073,-0.2067055 0.71572,-0.2067055 0.49092,0 0.78289,0.3048906 0.29456,0.3048905 0.29456,0.8319899 0,0.201537 -0.0362,0.413411 h -2.02055 q -0.0103,0.0801 -0.0103,0.144693 0,0.384989 0.1757,0.589111 0.17829,0.201538 0.43409,0.201538 0.24029,0 0.47283,-0.157613 0.23255,-0.157613 0.36174,-0.454752 z m -1.35909,-0.679544 h 1.53996 q 0.003,-0.07235 0.003,-0.103353 0,-0.3513994 -0.1757,-0.5374344 -0.1757,-0.1886187 -0.45217,-0.1886187 -0.29972,0 -0.54777,0.2067055 -0.24546,0.2067054 -0.3669,0.6227006 z"
         id="path14345" />
      <path
         d="m 110.45939,11.926153 q 0.0724,-0.33848 0.19896,-0.565856 0.12919,-0.22996 0.34106,-0.434081 0.21187,-0.206706 0.81649,-0.68988 0.3669,-0.2919714 0.50126,-0.4314976 0.19378,-0.2015378 0.28163,-0.3953242 0.0594,-0.1317748 0.0594,-0.2868038 0,-0.2609657 -0.18603,-0.441833 -0.18346,-0.1834511 -0.45217,-0.1834511 -0.26614,0 -0.46509,0.1860349 -0.19895,0.1834511 -0.28422,0.5916944 l -0.45734,-0.067179 q 0.0672,-0.5038446 0.39016,-0.7932323 0.32556,-0.2919714 0.80874,-0.2919714 0.32297,0 0.58394,0.1343585 0.26355,0.1343586 0.39532,0.3772375 0.13178,0.2428789 0.13178,0.5012607 0,0.3772375 -0.26872,0.726053 -0.16536,0.2170406 -0.97151,0.8552436 -0.34624,0.273885 -0.51677,0.449585 -0.16795,0.175699 -0.25321,0.330728 h 1.69498 l -0.0904,0.428914 z"
         id="path14347" />
      <path
         d="m 115.41515,13.039779 q -0.40566,-0.888834 -0.40566,-1.82676 0,-0.625284 0.16279,-1.162718 0.16536,-0.5400179 0.50126,-1.0671168 0.2222,-0.3513993 0.71055,-0.9095041 h 0.36431 q -0.3023,0.3229773 -0.64078,0.9095041 -0.3359,0.5865267 -0.48834,1.1523828 -0.15245,0.565856 -0.15245,1.13688 0,0.85266 0.29714,1.767332 z"
         id="path14349" />
      <path
         d="m 116.63472,11.926153 q 0.0723,-0.33848 0.19895,-0.565856 0.12919,-0.22996 0.34107,-0.434081 0.21187,-0.206706 0.81648,-0.68988 0.3669,-0.2919714 0.50126,-0.4314976 0.19379,-0.2015378 0.28164,-0.3953242 0.0594,-0.1317748 0.0594,-0.2868038 0,-0.2609657 -0.18604,-0.441833 -0.18345,-0.1834511 -0.45217,-0.1834511 -0.26613,0 -0.46508,0.1860349 -0.19896,0.1834511 -0.28422,0.5916944 l -0.45734,-0.067179 q 0.0672,-0.5038446 0.39016,-0.7932323 0.32556,-0.2919714 0.80873,-0.2919714 0.32298,0 0.58395,0.1343585 0.26354,0.1343586 0.39532,0.3772375 0.13177,0.2428789 0.13177,0.5012607 0,0.3772375 -0.26871,0.726053 -0.16537,0.2170406 -0.97152,0.8552436 -0.34623,0.273885 -0.51676,0.449585 -0.16795,0.175699 -0.25322,0.330728 h 1.69499 l -0.0904,0.428914 z"
         id="path14351" />
      <path
         d="m 119.44333,11.926153 0.57361,-2.7440148 h 0.42374 l -0.10077,0.4780064 q 0.27647,-0.2816362 0.51677,-0.4108272 0.24029,-0.1291909 0.49092,-0.1291909 0.33331,0 0.52193,0.1808673 0.19121,0.1808673 0.19121,0.483174 0,0.1524453 -0.0672,0.4805902 l -0.34882,1.661395 h -0.46767 l 0.36432,-1.73891 q 0.0543,-0.2532137 0.0543,-0.3746532 0,-0.1369423 -0.0956,-0.2222083 -0.093,-0.085266 -0.2713,-0.085266 -0.35915,0 -0.64079,0.2583818 -0.27905,0.2583817 -0.41083,0.8862497 l -0.26613,1.276406 z"
         id="path14353" />
      <path
         d="m 123.47925,11.546332 -0.0775,0.382405 q -0.16795,0.04392 -0.32556,0.04392 -0.27906,0 -0.44442,-0.136942 -0.12402,-0.103353 -0.12402,-0.281637 0,-0.09043 0.0672,-0.415994 l 0.33332,-1.5942163 h -0.36949 l 0.0749,-0.3617345 h 0.36949 l 0.14211,-0.6743766 0.53485,-0.3229773 -0.20929,0.9973539 h 0.45992 l -0.0775,0.3617345 h -0.45733 l -0.31781,1.5167013 q -0.0594,0.289388 -0.0594,0.346232 0,0.08268 0.0465,0.126607 0.0491,0.04392 0.15761,0.04392 0.15503,0 0.27647,-0.03101 z"
         id="path14355" />
      <path
         d="m 124.72982,8.0736801 q 0.40824,0.8888335 0.40824,1.8241757 0,0.6278682 -0.16536,1.1653022 -0.16278,0.537434 -0.49868,1.067117 -0.22479,0.351399 -0.71055,0.909504 h -0.36432 q 0.29973,-0.325561 0.63821,-0.912088 0.33848,-0.586527 0.48834,-1.149799 0.15244,-0.565856 0.15244,-1.139464 0,-0.85266 -0.29714,-1.7647479 z"
         id="path14357" />
    </g>
    <g
       aria-label="float32"
       id="text25982"
       style="font-style:italic;font-size:5.29166px;line-height:1.25;font-family:Arial;-inkscape-font-specification:'Arial Italic';stroke-width:0.396874">
      <path
         d="m 58.389003,17.345442 0.498677,-2.382281 h -0.418578 l 0.07493,-0.361734 h 0.418578 l 0.0801,-0.390157 q 0.06201,-0.291971 0.126608,-0.421162 0.06718,-0.129191 0.214456,-0.211873 0.149862,-0.08527 0.40566,-0.08527 0.178283,0 0.516764,0.07493 l -0.08527,0.408244 q -0.237712,-0.06201 -0.397908,-0.06201 -0.136943,0 -0.20929,0.06976 -0.06976,0.06718 -0.121439,0.322978 l -0.06201,0.294555 h 0.521932 l -0.07493,0.361734 h -0.521932 l -0.498676,2.382281 z"
         id="path14360" />
      <path
         d="m 59.758427,17.345442 0.790648,-3.787878 h 0.467672 l -0.790649,3.787878 z"
         id="path14362" />
      <path
         d="m 61.05292,16.304163 q 0,-0.803567 0.472839,-1.330666 0.390156,-0.434082 1.023192,-0.434082 0.496093,0 0.7984,0.310058 0.30489,0.310059 0.30489,0.837157 0,0.472839 -0.191202,0.881083 -0.191203,0.405659 -0.545186,0.6227 -0.351399,0.21704 -0.741556,0.21704 -0.320393,0 -0.583943,-0.136942 -0.260965,-0.136942 -0.400492,-0.387573 -0.136942,-0.25063 -0.136942,-0.578775 z m 0.467671,-0.04651 q 0,0.387573 0.186035,0.589111 0.186035,0.198954 0.472839,0.198954 0.149861,0 0.297139,-0.05943 0.147278,-0.06201 0.273885,-0.186035 0.126607,-0.124023 0.214457,-0.281636 0.09043,-0.160197 0.144693,-0.343648 0.0801,-0.255798 0.0801,-0.490925 0,-0.37207 -0.188619,-0.576192 -0.186035,-0.206705 -0.470255,-0.206705 -0.219624,0 -0.400492,0.105936 -0.180867,0.103353 -0.328145,0.304891 -0.144693,0.201538 -0.214457,0.470255 -0.06718,0.266133 -0.06718,0.475422 z"
         id="path14364" />
      <path
         d="m 65.763221,17.004378 q -0.242879,0.209289 -0.467671,0.307474 -0.224792,0.0956 -0.48059,0.0956 -0.379822,0 -0.612365,-0.222208 -0.232544,-0.224792 -0.232544,-0.573608 0,-0.229959 0.103353,-0.405659 0.105936,-0.178284 0.279052,-0.28422 0.173116,-0.10852 0.423746,-0.155029 0.157613,-0.03101 0.596862,-0.04909 0.441833,-0.01809 0.633036,-0.09302 0.05426,-0.191203 0.05426,-0.31781 0,-0.16278 -0.118856,-0.255798 -0.16278,-0.129191 -0.475422,-0.129191 -0.294556,0 -0.483174,0.131775 -0.186035,0.129191 -0.271301,0.369486 l -0.472839,-0.04134 q 0.144694,-0.408243 0.457336,-0.625284 0.315226,-0.217041 0.793232,-0.217041 0.509012,0 0.806151,0.242879 0.227376,0.180867 0.227376,0.470255 0,0.219625 -0.06459,0.509012 l -0.152445,0.682128 q -0.07235,0.325561 -0.07235,0.529683 0,0.129191 0.05684,0.37207 h -0.472839 q -0.03876,-0.134359 -0.05426,-0.341064 z m 0.173116,-1.04903 q -0.09819,0.03876 -0.211873,0.05943 -0.111105,0.02067 -0.374654,0.04393 -0.408243,0.03617 -0.576192,0.09302 -0.167948,0.05426 -0.253214,0.175699 -0.08527,0.12144 -0.08527,0.268718 0,0.19637 0.134359,0.322977 0.136942,0.126607 0.387573,0.126607 0.232543,0 0.447,-0.12144 0.214457,-0.124023 0.33848,-0.343647 0.124024,-0.219625 0.193787,-0.625284 z"
         id="path14366" />
      <path
         d="m 67.949131,16.965621 -0.07751,0.382405 q -0.167948,0.04392 -0.325561,0.04392 -0.279052,0 -0.444416,-0.136943 -0.124024,-0.103353 -0.124024,-0.281636 0,-0.09043 0.06718,-0.415995 l 0.333312,-1.594216 h -0.369486 l 0.07493,-0.361734 h 0.369486 l 0.14211,-0.674377 0.53485,-0.322977 -0.209289,0.997354 h 0.45992 l -0.07752,0.361734 h -0.457336 l -0.317809,1.516702 q -0.05943,0.289387 -0.05943,0.346231 0,0.08268 0.04651,0.126607 0.04909,0.04392 0.157613,0.04392 0.15503,0 0.276469,-0.03101 z"
         id="path14368" />
      <path
         d="m 68.440057,16.353256 0.454752,-0.05684 q 0.05168,0.397908 0.227376,0.571023 0.178283,0.170532 0.465087,0.170532 0.346232,0 0.596862,-0.248046 0.253214,-0.248047 0.253214,-0.56844 0,-0.279053 -0.188618,-0.45992 -0.188619,-0.183451 -0.506429,-0.183451 -0.03617,0 -0.149861,0.01033 l 0.0801,-0.390156 q 0.06718,0.01033 0.129191,0.01033 0.400492,0 0.614949,-0.193786 0.21704,-0.19637 0.21704,-0.48059 0,-0.260966 -0.178283,-0.43925 -0.1757,-0.178283 -0.431498,-0.178283 -0.25063,0 -0.452168,0.183451 -0.198954,0.180867 -0.255798,0.51418 l -0.45992,-0.09302 q 0.113688,-0.467671 0.436666,-0.723469 0.322977,-0.255798 0.76481,-0.255798 0.465087,0 0.751891,0.281637 0.289388,0.281636 0.289388,0.692463 0,0.299723 -0.157613,0.524515 -0.155029,0.222208 -0.467671,0.369486 0.222208,0.131775 0.330728,0.31781 0.111105,0.186034 0.111105,0.42633 0,0.509012 -0.382405,0.883665 -0.379822,0.37207 -0.909504,0.37207 -0.51418,0 -0.83199,-0.286804 -0.315226,-0.289387 -0.351399,-0.769977 z"
         id="path14370" />
      <path
         d="m 71.403697,17.345442 q 0.07235,-0.33848 0.198954,-0.565856 0.129191,-0.22996 0.341064,-0.434082 0.211873,-0.206705 0.816486,-0.689879 0.366902,-0.291972 0.501261,-0.431498 0.193786,-0.201538 0.281636,-0.395324 0.05943,-0.131775 0.05943,-0.286804 0,-0.260966 -0.186035,-0.441833 -0.183451,-0.183451 -0.452168,-0.183451 -0.266133,0 -0.465087,0.186035 -0.198954,0.183451 -0.28422,0.591694 l -0.457336,-0.06718 q 0.06718,-0.503845 0.390156,-0.793232 0.325561,-0.291972 0.808735,-0.291972 0.322978,0 0.583943,0.134359 0.26355,0.134358 0.395325,0.377237 0.131774,0.242879 0.131774,0.501261 0,0.377238 -0.268717,0.726053 -0.165364,0.217041 -0.971516,0.855244 -0.346231,0.273885 -0.516763,0.449584 -0.167948,0.1757 -0.253214,0.330729 h 1.694984 l -0.09043,0.428914 z"
         id="path14372" />
    </g>
    <g
       aria-label="float32"
       id="text28284"
       style="font-style:italic;font-size:5.29166px;line-height:1.25;font-family:Arial;-inkscape-font-specification:'Arial Italic';stroke-width:0.396874">
      <path
         d="m 101.83589,17.345442 0.49868,-2.382281 h -0.41858 l 0.0749,-0.361734 h 0.41858 l 0.0801,-0.390157 q 0.062,-0.291971 0.1266,-0.421162 0.0672,-0.129191 0.21446,-0.211873 0.14986,-0.08527 0.40566,-0.08527 0.17828,0 0.51676,0.07493 l -0.0853,0.408244 q -0.23771,-0.06201 -0.39791,-0.06201 -0.13694,0 -0.20929,0.06976 -0.0698,0.06718 -0.12144,0.322978 l -0.062,0.294555 h 0.52193 l -0.0749,0.361734 h -0.52193 l -0.49868,2.382281 z"
         id="path14375" />
      <path
         d="m 103.20532,17.345442 0.79064,-3.787878 h 0.46767 l -0.79064,3.787878 z"
         id="path14377" />
      <path
         d="m 104.49981,16.304163 q 0,-0.803567 0.47284,-1.330666 0.39015,-0.434082 1.02319,-0.434082 0.49609,0 0.7984,0.310058 0.30489,0.310059 0.30489,0.837157 0,0.472839 -0.1912,0.881083 -0.19121,0.405659 -0.54519,0.6227 -0.3514,0.21704 -0.74155,0.21704 -0.3204,0 -0.58395,-0.136942 -0.26096,-0.136942 -0.40049,-0.387573 -0.13694,-0.25063 -0.13694,-0.578775 z m 0.46767,-0.04651 q 0,0.387573 0.18603,0.589111 0.18604,0.198954 0.47284,0.198954 0.14986,0 0.29714,-0.05943 0.14728,-0.06201 0.27389,-0.186035 0.1266,-0.124023 0.21445,-0.281636 0.0904,-0.160197 0.1447,-0.343648 0.0801,-0.255798 0.0801,-0.490925 0,-0.37207 -0.18862,-0.576192 -0.18604,-0.206705 -0.47026,-0.206705 -0.21962,0 -0.40049,0.105936 -0.18087,0.103353 -0.32814,0.304891 -0.1447,0.201538 -0.21446,0.470255 -0.0672,0.266133 -0.0672,0.475422 z"
         id="path14379" />
      <path
         d="m 109.21011,17.004378 q -0.24288,0.209289 -0.46767,0.307474 -0.22479,0.0956 -0.48059,0.0956 -0.37982,0 -0.61237,-0.222208 -0.23254,-0.224792 -0.23254,-0.573608 0,-0.229959 0.10335,-0.405659 0.10594,-0.178284 0.27905,-0.28422 0.17312,-0.10852 0.42375,-0.155029 0.15761,-0.03101 0.59686,-0.04909 0.44184,-0.01809 0.63304,-0.09302 0.0543,-0.191203 0.0543,-0.31781 0,-0.16278 -0.11886,-0.255798 -0.16278,-0.129191 -0.47542,-0.129191 -0.29456,0 -0.48317,0.131775 -0.18604,0.129191 -0.27131,0.369486 l -0.47283,-0.04134 q 0.14469,-0.408243 0.45733,-0.625284 0.31523,-0.217041 0.79323,-0.217041 0.50902,0 0.80616,0.242879 0.22737,0.180867 0.22737,0.470255 0,0.219625 -0.0646,0.509012 l -0.15245,0.682128 q -0.0724,0.325561 -0.0724,0.529683 0,0.129191 0.0569,0.37207 h -0.47284 q -0.0388,-0.134359 -0.0543,-0.341064 z m 0.17311,-1.04903 q -0.0982,0.03876 -0.21187,0.05943 -0.1111,0.02067 -0.37465,0.04393 -0.40825,0.03617 -0.57619,0.09302 -0.16795,0.05426 -0.25322,0.175699 -0.0853,0.12144 -0.0853,0.268718 0,0.19637 0.13435,0.322977 0.13695,0.126607 0.38758,0.126607 0.23254,0 0.447,-0.12144 0.21446,-0.124023 0.33848,-0.343647 0.12402,-0.219625 0.19378,-0.625284 z"
         id="path14381" />
      <path
         d="m 111.39602,16.965621 -0.0775,0.382405 q -0.16794,0.04392 -0.32556,0.04392 -0.27905,0 -0.44441,-0.136943 -0.12403,-0.103353 -0.12403,-0.281636 0,-0.09043 0.0672,-0.415995 l 0.33332,-1.594216 h -0.36949 l 0.0749,-0.361734 h 0.36949 l 0.14211,-0.674377 0.53485,-0.322977 -0.20929,0.997354 h 0.45992 l -0.0775,0.361734 h -0.45733 l -0.31781,1.516702 q -0.0594,0.289387 -0.0594,0.346231 0,0.08268 0.0465,0.126607 0.0491,0.04392 0.15761,0.04392 0.15503,0 0.27647,-0.03101 z"
         id="path14383" />
      <path
         d="m 111.88694,16.353256 0.45476,-0.05684 q 0.0517,0.397908 0.22737,0.571023 0.17829,0.170532 0.46509,0.170532 0.34623,0 0.59686,-0.248046 0.25322,-0.248047 0.25322,-0.56844 0,-0.279053 -0.18862,-0.45992 -0.18862,-0.183451 -0.50643,-0.183451 -0.0362,0 -0.14986,0.01033 l 0.0801,-0.390156 q 0.0672,0.01033 0.12919,0.01033 0.40049,0 0.61495,-0.193786 0.21704,-0.19637 0.21704,-0.48059 0,-0.260966 -0.17829,-0.43925 -0.1757,-0.178283 -0.43149,-0.178283 -0.25064,0 -0.45217,0.183451 -0.19896,0.180867 -0.2558,0.51418 l -0.45992,-0.09302 q 0.11369,-0.467671 0.43666,-0.723469 0.32298,-0.255798 0.76481,-0.255798 0.46509,0 0.7519,0.281637 0.28938,0.281636 0.28938,0.692463 0,0.299723 -0.15761,0.524515 -0.15503,0.222208 -0.46767,0.369486 0.22221,0.131775 0.33073,0.31781 0.1111,0.186034 0.1111,0.42633 0,0.509012 -0.3824,0.883665 -0.37982,0.37207 -0.90951,0.37207 -0.51418,0 -0.83199,-0.286804 -0.31522,-0.289387 -0.3514,-0.769977 z"
         id="path14385" />
      <path
         d="m 114.85058,17.345442 q 0.0724,-0.33848 0.19896,-0.565856 0.12919,-0.22996 0.34106,-0.434082 0.21188,-0.206705 0.81649,-0.689879 0.3669,-0.291972 0.50126,-0.431498 0.19379,-0.201538 0.28164,-0.395324 0.0594,-0.131775 0.0594,-0.286804 0,-0.260966 -0.18603,-0.441833 -0.18345,-0.183451 -0.45217,-0.183451 -0.26613,0 -0.46509,0.186035 -0.19895,0.183451 -0.28422,0.591694 l -0.45733,-0.06718 q 0.0672,-0.503845 0.39015,-0.793232 0.32557,-0.291972 0.80874,-0.291972 0.32298,0 0.58394,0.134359 0.26355,0.134358 0.39533,0.377237 0.13177,0.242879 0.13177,0.501261 0,0.377238 -0.26872,0.726053 -0.16536,0.217041 -0.97151,0.855244 -0.34623,0.273885 -0.51677,0.449584 -0.16794,0.1757 -0.25321,0.330729 h 1.69499 l -0.0904,0.428914 z"
         id="path14387" />
    </g>
    <path
       style="fill:none;stroke:#000000;stroke-width:0.6975;stroke-linecap:butt;stroke-linejoin:miter;stroke-miterlimit:4;stroke-dasharray:none;stroke-opacity:1"
       d="m 5.4706267,22.066745 v 3.96979"
       id="path29341-6" />
    <path
       style="fill:none;stroke:#000000;stroke-width:0.6975;stroke-linecap:butt;stroke-linejoin:miter;stroke-miterlimit:4;stroke-dasharray:none;stroke-opacity:1"
       d="m 9.8084647,22.066745 v 3.96979"
       id="path29341-7" />
    <path
       style="fill:none;stroke:#000000;stroke-width:0.6975;stroke-linecap:butt;stroke-linejoin:miter;stroke-miterlimit:4;stroke-dasharray:none;stroke-opacity:1"
       d="m 14.146306,22.066745 v 3.96979"
       id="path29341-5" />
    <path
       style="fill:none;stroke:#000000;stroke-width:0.6975;stroke-linecap:butt;stroke-linejoin:miter;stroke-miterlimit:4;stroke-dasharray:none;stroke-opacity:1"
       d="m 18.484147,22.066745 v 3.96979"
       id="path29341-3" />
    <path
       style="fill:none;stroke:#000000;stroke-width:0.6975;stroke-linecap:butt;stroke-linejoin:miter;stroke-miterlimit:4;stroke-dasharray:none;stroke-opacity:1"
       d="m 22.821988,22.066745 v 3.96979"
       id="path29341-56" />
    <path
       style="fill:none;stroke:#000000;stroke-width:0.6975;stroke-linecap:butt;stroke-linejoin:miter;stroke-miterlimit:4;stroke-dasharray:none;stroke-opacity:1"
       d="m 27.159829,22.066745 v 3.96979"
       id="path29341-2" />
    <path
       style="fill:none;stroke:#000000;stroke-width:0.6975;stroke-linecap:butt;stroke-linejoin:miter;stroke-miterlimit:4;stroke-dasharray:none;stroke-opacity:1"
       d="m 31.497668,22.066745 v 3.96979"
       id="path29341-9" />
    <path
       style="fill:none;stroke:#000000;stroke-width:0.6975;stroke-linecap:butt;stroke-linejoin:miter;stroke-miterlimit:4;stroke-dasharray:none;stroke-opacity:1"
       d="m 35.835509,22.066745 v 3.96979"
       id="path29341-1" />
    <path
       style="fill:none;stroke:#000000;stroke-width:0.6975;stroke-linecap:butt;stroke-linejoin:miter;stroke-miterlimit:4;stroke-dasharray:none;stroke-opacity:1"
       d="m 40.17335,22.066745 v 3.96979"
       id="path29341-27" />
    <path
       style="fill:none;stroke:#000000;stroke-width:0.6975;stroke-linecap:butt;stroke-linejoin:miter;stroke-miterlimit:4;stroke-dasharray:none;stroke-opacity:1"
       d="m 44.511191,22.066745 v 3.96979"
       id="path29341-0" />
    <path
       style="fill:none;stroke:#000000;stroke-width:0.6975;stroke-linecap:butt;stroke-linejoin:miter;stroke-miterlimit:4;stroke-dasharray:none;stroke-opacity:1"
       d="m 48.849032,22.066745 v 3.96979"
       id="path29341-93" />
    <path
       style="fill:none;stroke:#000000;stroke-width:0.6975;stroke-linecap:butt;stroke-linejoin:miter;stroke-miterlimit:4;stroke-dasharray:none;stroke-opacity:1"
       d="m 53.186873,22.066745 v 3.96979"
       id="path29341-6-6" />
    <path
       style="fill:none;stroke:#000000;stroke-width:0.6975;stroke-linecap:butt;stroke-linejoin:miter;stroke-miterlimit:4;stroke-dasharray:none;stroke-opacity:1"
       d="m 57.524714,22.066745 v 3.96979"
       id="path29341-7-0" />
    <path
       style="fill:none;stroke:#000000;stroke-width:0.6975;stroke-linecap:butt;stroke-linejoin:miter;stroke-miterlimit:4;stroke-dasharray:none;stroke-opacity:1"
       d="m 61.862555,22.066745 v 3.96979"
       id="path29341-5-6" />
    <path
       style="fill:none;stroke:#000000;stroke-width:0.6975;stroke-linecap:butt;stroke-linejoin:miter;stroke-miterlimit:4;stroke-dasharray:none;stroke-opacity:1"
       d="m 66.200396,22.066745 v 3.96979"
       id="path29341-3-2" />
    <path
       style="fill:none;stroke:#000000;stroke-width:0.6975;stroke-linecap:butt;stroke-linejoin:miter;stroke-miterlimit:4;stroke-dasharray:none;stroke-opacity:1"
       d="m 70.538236,22.066745 v 3.96979"
       id="path29341-56-6" />
    <path
       style="fill:none;stroke:#000000;stroke-width:0.6975;stroke-linecap:butt;stroke-linejoin:miter;stroke-miterlimit:4;stroke-dasharray:none;stroke-opacity:1"
       d="m 74.876077,22.066745 v 3.96979"
       id="path29341-2-1" />
    <path
       style="fill:none;stroke:#000000;stroke-width:0.6975;stroke-linecap:butt;stroke-linejoin:miter;stroke-miterlimit:4;stroke-dasharray:none;stroke-opacity:1"
       d="m 79.213918,22.066745 v 3.96979"
       id="path29341-9-8" />
    <path
       style="fill:none;stroke:#000000;stroke-width:0.6975;stroke-linecap:butt;stroke-linejoin:miter;stroke-miterlimit:4;stroke-dasharray:none;stroke-opacity:1"
       d="m 83.551759,22.066745 v 3.96979"
       id="path29341-1-7" />
    <path
       style="fill:none;stroke:#000000;stroke-width:0.6975;stroke-linecap:butt;stroke-linejoin:miter;stroke-miterlimit:4;stroke-dasharray:none;stroke-opacity:1"
       d="m 87.8896,22.066745 v 3.96979"
       id="path29341-27-9" />
    <path
       style="fill:none;stroke:#000000;stroke-width:0.6975;stroke-linecap:butt;stroke-linejoin:miter;stroke-miterlimit:4;stroke-dasharray:none;stroke-opacity:1"
       d="m 92.227441,22.066745 v 3.96979"
       id="path29341-0-2" />
    <path
       style="fill:none;stroke:#000000;stroke-width:0.6975;stroke-linecap:butt;stroke-linejoin:miter;stroke-miterlimit:4;stroke-dasharray:none;stroke-opacity:1"
       d="m 96.565282,22.066745 v 3.96979"
       id="path29341-93-0" />
    <path
       style="fill:none;stroke:#000000;stroke-width:0.6975;stroke-linecap:butt;stroke-linejoin:miter;stroke-miterlimit:4;stroke-dasharray:none;stroke-opacity:1"
       d="m 100.90312,22.066745 v 3.96979"
       id="path29341-23" />
    <path
       style="fill:none;stroke:#000000;stroke-width:0.6975;stroke-linecap:butt;stroke-linejoin:miter;stroke-miterlimit:4;stroke-dasharray:none;stroke-opacity:1"
       d="m 105.24096,22.066745 v 3.96979"
       id="path29341-6-7" />
    <path
       style="fill:none;stroke:#000000;stroke-width:0.6975;stroke-linecap:butt;stroke-linejoin:miter;stroke-miterlimit:4;stroke-dasharray:none;stroke-opacity:1"
       d="m 109.5788,22.066745 v 3.96979"
       id="path29341-7-5" />
    <path
       style="fill:none;stroke:#000000;stroke-width:0.6975;stroke-linecap:butt;stroke-linejoin:miter;stroke-miterlimit:4;stroke-dasharray:none;stroke-opacity:1"
       d="m 113.91664,22.066745 v 3.96979"
       id="path29341-5-9" />
    <path
       style="fill:none;stroke:#000000;stroke-width:0.6975;stroke-linecap:butt;stroke-linejoin:miter;stroke-miterlimit:4;stroke-dasharray:none;stroke-opacity:1"
       d="m 118.25449,22.066745 v 3.96979"
       id="path29341-3-22" />
    <path
       style="fill:none;stroke:#000000;stroke-width:0.6975;stroke-linecap:butt;stroke-linejoin:miter;stroke-miterlimit:4;stroke-dasharray:none;stroke-opacity:1"
       d="m 122.59232,22.066745 v 3.96979"
       id="path29341-56-8" />
    <g
       id="path30593">
      <path
         style="color:#000000;fill:#000000;-inkscape-stroke:none"
         d="m 40.962891,20.308594 v 0.398437 h 50.53125 v -0.398437 z"
         id="path15440" />
      <g
         id="g15418">
        <g
           id="path15430">
          <path
             style="color:#000000;fill:#000000;fill-rule:evenodd;stroke-width:0.0795pt;-inkscape-stroke:none"
             d="m 91.016834,20.508252 -0.3975,0.3975 1.39125,-0.3975 -1.39125,-0.3975 z"
             id="path15434" />
          <path
             style="color:#000000;fill:#000000;fill-rule:evenodd;-inkscape-stroke:none"
             d="m 90.4375,20.003906 0.503906,0.503906 -0.503906,0.50586 1.765625,-0.50586 z m 0.363281,0.212891 1.017578,0.291015 -1.017578,0.291016 0.291016,-0.291016 -0.03711,-0.03711 z"
             id="path15436" />
        </g>
        <g
           id="path15420">
          <path
             style="color:#000000;fill:#000000;fill-rule:evenodd;stroke-width:0.0795pt;-inkscape-stroke:none"
             d="m 41.439761,20.508252 0.3975,-0.3975 -1.39125,0.3975 1.39125,0.3975 z"
             id="path15424" />
          <path
             style="color:#000000;fill:#000000;fill-rule:evenodd;-inkscape-stroke:none"
             d="m 42.019531,20.003906 -1.765625,0.503906 1.765625,0.50586 -0.505859,-0.50586 z m -0.365234,0.214844 -0.289063,0.289062 0.03711,0.03711 0.253906,0.253906 -1.017578,-0.291016 z"
             id="path15426" />
        </g>
      </g>
    </g>
    <g
       id="path30593-0">
      <path
         style="color:#000000;fill:#000000;-inkscape-stroke:none"
         d="m 92.929687,20.308594 v 0.398437 h 33.490233 v -0.398437 z"
         id="path15468" />
      <g
         id="g15446">
        <g
           id="path15458">
          <path
             style="color:#000000;fill:#000000;fill-rule:evenodd;stroke-width:0.0795pt;-inkscape-stroke:none"
             d="m 125.94376,20.508252 -0.3975,0.3975 1.39125,-0.3975 -1.39125,-0.3975 z"
             id="path15462" />
          <path
             style="color:#000000;fill:#000000;fill-rule:evenodd;-inkscape-stroke:none"
             d="m 125.36328,20.003906 0.50586,0.503906 -0.50586,0.50586 1.76758,-0.50586 z m 0.36524,0.214844 1.01757,0.289062 -1.01757,0.291016 0.29101,-0.291016 -0.0391,-0.03711 z"
             id="path15464" />
        </g>
        <g
           id="path15448">
          <path
             style="color:#000000;fill:#000000;fill-rule:evenodd;stroke-width:0.0795pt;-inkscape-stroke:none"
             d="m 93.406628,20.508252 0.3975,-0.3975 -1.39125,0.3975 1.39125,0.3975 z"
             id="path15452" />
          <path
             style="color:#000000;fill:#000000;fill-rule:evenodd;-inkscape-stroke:none"
             d="m 93.986328,20.003906 -1.765625,0.503906 1.765625,0.50586 -0.505859,-0.50586 z m -0.363281,0.212891 -0.291016,0.291015 0.03711,0.03711 0.253906,0.253906 -1.017578,-0.291016 z"
             id="path15454" />
        </g>
      </g>
    </g>
  </g>
</svg>
